<svg xmlns="http://www.w3.org/2000/svg" viewBox="0 0 197.67 56.57"><defs><style>.cls-1{fill:#24235c;}.cls-2{fill:#cb952b;}</style></defs><g id="Layer_2" data-name="Layer 2"><g id="Layer_1-2" data-name="Layer 1"><path class="cls-1" d="M68.91,33.42a5.11,5.11,0,0,1,3.81-1.61,5,5,0,0,1,2.92.91,5.48,5.48,0,0,1,1.91,2.43l-1.31.31a4,4,0,0,0-1.4-1.73,3.71,3.71,0,0,0-2.12-.64,3.82,3.82,0,0,0-2.89,1.22,4.38,4.38,0,0,0,0,5.92,3.84,3.84,0,0,0,2.89,1.2,3.6,3.6,0,0,0,2.49-.92,4.12,4.12,0,0,0,1.26-2.43H72.7V36.94h5.1v.44a5.36,5.36,0,0,1-1.42,3.82,4.77,4.77,0,0,1-3.65,1.53,5.11,5.11,0,0,1-3.82-1.6,5.53,5.53,0,0,1,0-7.71Z"/><path class="cls-1" d="M78.51,42.6V31.94h4.56a3.23,3.23,0,0,1,2.45,1,3.3,3.3,0,0,1,.94,2.38,3.11,3.11,0,0,1-.7,2.05A3.06,3.06,0,0,1,84,38.46l2.61,4.14H85.12l-2.53-4H79.85v4Zm4.4-5.18a2.28,2.28,0,0,0,1.62-.59,2,2,0,0,0,.64-1.56,2.13,2.13,0,0,0-.57-1.51,2,2,0,0,0-1.53-.62H79.85v4.28Z"/><path class="cls-1" d="M88.54,33.42a5.3,5.3,0,0,1,7.6,0,5.51,5.51,0,0,1,0,7.72,5.35,5.35,0,0,1-7.63,0A5.35,5.35,0,0,1,87,37.27,5.28,5.28,0,0,1,88.54,33.42Zm.93,6.82a4,4,0,0,0,5.76,0,4.37,4.37,0,0,0,0-5.93,4,4,0,0,0-5.76,0,4.15,4.15,0,0,0-1.16,3A4.11,4.11,0,0,0,89.47,40.24Z"/><path class="cls-1" d="M98.41,31.94h1.34v6.34a3,3,0,0,0,.92,2.34,3.13,3.13,0,0,0,4.27,0,3,3,0,0,0,.92-2.34V31.94h1.33v6.34a4.24,4.24,0,0,1-1.27,3.25,4.64,4.64,0,0,1-6.22,0,4.21,4.21,0,0,1-1.29-3.26Z"/><path class="cls-1" d="M108.18,42.6V31.94h4.56a3.22,3.22,0,0,1,2.46,1,3.66,3.66,0,0,1,0,4.9,3.25,3.25,0,0,1-2.46,1h-3.22V42.6Zm1.34-5,3.14,0a2,2,0,0,0,1.6-.65,2.32,2.32,0,0,0,.58-1.62,2.24,2.24,0,0,0-.57-1.58,2.09,2.09,0,0,0-1.61-.61h-3.14Z"/><path class="cls-2" d="M56.57,28.33,50,21.78H44l4.25-4.25.1-9.21L39,8.34l-4.26,4.25v-6L28.34,0,21.79,6.57v6l-4.11-4.1L8.25,8.31l.25,9.37,4.1,4.1H6.8L0,28.33l6.8,6.45h5.8l-4.1,4.1-.18,9.44,9.37-.26,4.1-4.1v5.81l6.55,6.8,6.44-6.81V44L39,48.21l9.2.1V39L44,34.78h6ZM34.78,16.42,40.16,11h5.43l-.06,5.37-5.38,5.38H34.78ZM24.49,7.69l3.83-3.84,3.76,3.83V15.3l-3.79,3.79-3.8-3.79ZM11.17,16.53,11,11.07l5.51.1,5.25,5.25v5.36H16.43ZM7.88,32.07l-4-3.75,4-3.84h7.42l3.79,3.8-3.79,3.79Zm13.91,8.07-5.25,5.25-5.46.15.1-5.52,5.25-5.24h5.36Zm10.29,8.55-3.76,4-3.83-4V41.26l3.8-3.79,3.79,3.79Zm1.6-16.62h-1.6v5.37L30.2,35.55l-1.91-1.91-1.91,1.91-1.89,1.89V32.07H19.13l1.95-1.94,1.84-1.85h0l-.56-.57L21,26.37l-1.88-1.89h5.36V19.12l3.8,3.79L30.2,21h0l1.88-1.88v5.36h5.37L35.3,26.63l-.52.52h0l-1.13,1.14,3.79,3.79H33.68Zm11.85,8.08v5.43l-5.37-.06-5.39-5.38V34.78h5.37Zm-4.26-8.08-3.79-3.79,3.79-3.8h7.6l3.85,3.84-3.84,3.75Z"/><path class="cls-1" d="M77.71,15.5a4.67,4.67,0,0,0-3.49-1.42H69.51L68,16.66V28.57h2.46V23.75l3.81,0a4.81,4.81,0,0,0,3.51-1.4,4.62,4.62,0,0,0,1.38-3.4A4.71,4.71,0,0,0,77.71,15.5ZM76,20.76a2.48,2.48,0,0,1-1.92.77H70.41V16.32l3.67,0A2.59,2.59,0,0,1,76,17a2.5,2.5,0,0,1,.72,1.84A2.7,2.7,0,0,1,76,20.76Z"/><path class="cls-1" d="M80,14.17h2.79v8.54a3.27,3.27,0,0,0,1,2.43,3.13,3.13,0,0,0,2.28.94,3.3,3.3,0,0,0,3.29-3.37V14.17h2.75v8.54A5.75,5.75,0,0,1,90.33,27a6.36,6.36,0,0,1-8.6,0A5.7,5.7,0,0,1,80,22.71Z"/><path class="cls-1" d="M94.46,15.07a6.82,6.82,0,0,1,4-1.11,8.88,8.88,0,0,1,5.06,1.56v2.86a9,9,0,0,0-5.08-1.81,4.09,4.09,0,0,0-2,.43,1.32,1.32,0,0,0-.77,1.19,1.11,1.11,0,0,0,.74,1,12.35,12.35,0,0,0,2.32.75c.63.15,1.16.29,1.58.42a9.62,9.62,0,0,1,1.44.58,5,5,0,0,1,1.28.82,3.78,3.78,0,0,1,1.13,2.74,3.58,3.58,0,0,1-1.54,3.06,6.44,6.44,0,0,1-3.89,1.11A9.56,9.56,0,0,1,96,28.32,19.27,19.27,0,0,1,93,27.17V24.32a10.88,10.88,0,0,0,5.67,1.76,3.77,3.77,0,0,0,2-.42,1.3,1.3,0,0,0,.7-1.18,1.24,1.24,0,0,0-.66-1.1,8.23,8.23,0,0,0-2-.75,28,28,0,0,1-3.33-1.05,3.8,3.8,0,0,1-2.51-3.53A3.45,3.45,0,0,1,94.46,15.07Z"/><path class="cls-1" d="M107.69,14.15v5.93h6.86V14.15h2.78V28.53h-2.78v-6h-6.86v6h-2.77V14.15Z"/><path class="cls-1" d="M120.24,28.53V14.15h6.31a4.92,4.92,0,0,1,5,4.89,4.6,4.6,0,0,1-1.42,3.42,5,5,0,0,1-3.53,1.41l-3.52,0v4.64ZM123,21.42l3.33,0a2.37,2.37,0,0,0,1.79-.71,2.42,2.42,0,0,0,.68-1.74,2.22,2.22,0,0,0-.68-1.66,2.46,2.46,0,0,0-1.79-.66l-3.33,0Z"/><path class="cls-1" d="M130.19,28.53l5.59-14.38h2.84l5.75,14.38h-2.88l-1.13-2.94h-6.22l-1.09,2.94Zm9.27-5.32-2.28-5.78L135,23.21Z"/><path class="cls-1" d="M147.88,14.15l7,10.17V14.15h2.67V28.53h-2.69l-7-10.19V28.53h-2.67V14.15Z"/><path class="cls-1" d="M158.51,23.6h2.75a2.4,2.4,0,0,0,.79,1.87,2.73,2.73,0,0,0,1.78.61c1.62,0,2.43-1.09,2.43-3.28V16.71h-6.11V14.15H169v9a5.54,5.54,0,0,1-1.41,4,5,5,0,0,1-3.79,1.47A5.63,5.63,0,0,1,160,27.34a4.52,4.52,0,0,1-1.53-3.62Z"/><path class="cls-1" d="M169.67,28.53l5.59-14.38h2.83l5.76,14.38H181l-1.13-2.94h-6.23l-1.09,2.94Zm9.26-5.32-2.28-5.78-2.18,5.78Z"/><path class="cls-1" d="M184.56,28.53V14.15h2.78V26h6.84v2.57Z"/><path class="cls-1" d="M195,28.53V14.15h2.67V28.53Z"/></g></g></svg>