<svg xmlns="http://www.w3.org/2000/svg" viewBox="0 0 111.44 26.42"><defs><style>.cls-1{fill:#24235c;}</style></defs><g id="Layer_2" data-name="Layer 2"><g id="Layer_1-2" data-name="Layer 1"><path class="cls-1" d="M8.42,1.32A4,4,0,0,0,5.42.1h-4L0,2.31V12.55H2.15V8.41l3.27,0a4.11,4.11,0,0,0,3-1.2A4,4,0,0,0,9.62,4.26,4,4,0,0,0,8.42,1.32ZM7,5.84A2.18,2.18,0,0,1,5.3,6.5H2.15V2H5.3A2.2,2.2,0,0,1,7,2.63a2.14,2.14,0,0,1,.61,1.58A2.33,2.33,0,0,1,7,5.84Z"/><path class="cls-1" d="M10.36.18h2.4V7.52a2.77,2.77,0,0,0,.83,2.08,2.7,2.7,0,0,0,2,.81,2.83,2.83,0,0,0,2.82-2.89V.18h2.36V7.52a4.94,4.94,0,0,1-1.48,3.69,5.1,5.1,0,0,1-3.7,1.44,5.12,5.12,0,0,1-3.68-1.44,4.85,4.85,0,0,1-1.51-3.69Z"/><path class="cls-1" d="M22.8,1A5.91,5.91,0,0,1,26.22,0a7.64,7.64,0,0,1,4.34,1.34V3.79A7.76,7.76,0,0,0,26.2,2.24a3.5,3.5,0,0,0-1.73.37,1.13,1.13,0,0,0-.67,1,1,1,0,0,0,.64.87,11.1,11.1,0,0,0,2,.64c.54.13,1,.25,1.36.36A10,10,0,0,1,29,6a4.37,4.37,0,0,1,1.09.7,3.35,3.35,0,0,1,.69,1,3.23,3.23,0,0,1,.28,1.37,3.08,3.08,0,0,1-1.31,2.63,5.53,5.53,0,0,1-3.35,1,8.4,8.4,0,0,1-2.35-.31,18.85,18.85,0,0,1-2.5-1V8.89a9.31,9.31,0,0,0,4.87,1.52,3.28,3.28,0,0,0,1.68-.36,1.13,1.13,0,0,0,.6-1,1.07,1.07,0,0,0-.57-.95,6.54,6.54,0,0,0-1.73-.64,27.21,27.21,0,0,1-2.86-.9,3.28,3.28,0,0,1-2.15-3A3,3,0,0,1,22.8,1Z"/><path class="cls-1" d="M34.16.16v5.1h5.9V.16h2.38V12.51H40.06V7.39h-5.9v5.12H31.78V.16Z"/><path class="cls-1" d="M44.94,12.51V.16h5.42a4.07,4.07,0,0,1,3,1.24,4,4,0,0,1,1.24,3A4,4,0,0,1,53.39,7.3a4.27,4.27,0,0,1-3,1.21h-3v4Zm2.4-6.1,2.86,0a2,2,0,0,0,1.53-.61,2.08,2.08,0,0,0,.59-1.49,1.91,1.91,0,0,0-.59-1.43,2.1,2.1,0,0,0-1.53-.57l-2.86,0Z"/><path class="cls-1" d="M53.49,12.51,58.29.16h2.43l4.94,12.35H63.19l-1-2.52H56.87l-.93,2.52Zm7.95-4.57L59.49,3l-1.87,5Z"/><path class="cls-1" d="M68.68.16l6,8.73V.16H77V12.51H74.66l-6-8.75v8.75h-2.3V.16Z"/><path class="cls-1" d="M77.8,8.28h2.37a2,2,0,0,0,.68,1.6,2.27,2.27,0,0,0,1.52.53c1.39,0,2.09-.94,2.09-2.82V2.36H79.21V.16h7.63V7.91a4.79,4.79,0,0,1-1.21,3.45,4.31,4.31,0,0,1-3.26,1.26,4.82,4.82,0,0,1-3.25-1.13A3.87,3.87,0,0,1,77.8,8.38Z"/><path class="cls-1" d="M87.39,12.51,92.18.16h2.44l4.94,12.35H97.09l-1-2.52H90.77l-.93,2.52Zm8-4.57-2-5-1.88,5Z"/><path class="cls-1" d="M100.18,12.51V.16h2.38V10.31h5.88v2.2Z"/><path class="cls-1" d="M109.14,12.51V.16h2.3V12.51Z"/><path class="cls-1" d="M0,15.53H3.1a2.8,2.8,0,0,1,2,.75,2.68,2.68,0,0,1,.77,2,2.61,2.61,0,0,1-.78,2,2.81,2.81,0,0,1-2,.75H.83v3.29H0Zm.83.74v4H2.9a2.32,2.32,0,0,0,1.59-.52,1.87,1.87,0,0,0,.57-1.45,1.9,1.9,0,0,0-.57-1.47,2.26,2.26,0,0,0-1.59-.52Z"/><path class="cls-1" d="M7,24.26V17.74h.75v1.07h.08A1.51,1.51,0,0,1,8.48,18a2,2,0,0,1,1.15-.33,2.44,2.44,0,0,1,.61.06v.79a2.72,2.72,0,0,0-.71-.08,1.71,1.71,0,0,0-1.26.51,1.77,1.77,0,0,0-.5,1.28v4.07Z"/><path class="cls-1" d="M15.78,23.46a2.76,2.76,0,0,1-2.17.91,2.74,2.74,0,0,1-2.16-.91,3.59,3.59,0,0,1-.8-2.46,3.63,3.63,0,0,1,.8-2.47,2.74,2.74,0,0,1,2.16-.9,2.76,2.76,0,0,1,2.17.9,3.63,3.63,0,0,1,.8,2.47A3.59,3.59,0,0,1,15.78,23.46ZM12,22.94a1.91,1.91,0,0,0,1.57.71,1.93,1.93,0,0,0,1.58-.71A3.07,3.07,0,0,0,15.75,21a3.08,3.08,0,0,0-.56-1.95,1.92,1.92,0,0,0-1.58-.7,1.9,1.9,0,0,0-1.57.7A3,3,0,0,0,11.47,21,3,3,0,0,0,12,22.94Z"/><path class="cls-1" d="M20.73,17.63a2.42,2.42,0,0,1,2,.93A3.72,3.72,0,0,1,23.47,21a3.76,3.76,0,0,1-.75,2.44,2.45,2.45,0,0,1-2,.93A2.51,2.51,0,0,1,19.39,24a2.18,2.18,0,0,1-.86-1h-.07v3.4h-.79V17.74h.75v1.33h.08a2.41,2.41,0,0,1,2.23-1.44Zm-.18,6a1.86,1.86,0,0,0,1.54-.72A3.06,3.06,0,0,0,22.65,21a3.11,3.11,0,0,0-.56-1.94,2,2,0,0,0-3.07,0A3,3,0,0,0,18.44,21,3,3,0,0,0,19,22.92,1.89,1.89,0,0,0,20.55,23.65Z"/><path class="cls-1" d="M29,22.65h.8a2.26,2.26,0,0,1-.95,1.26,3.22,3.22,0,0,1-1.74.46A2.71,2.71,0,0,1,25,23.46,3.67,3.67,0,0,1,24.24,21,3.61,3.61,0,0,1,25,18.55a2.65,2.65,0,0,1,2.12-.92,2.57,2.57,0,0,1,2.05.87A3.48,3.48,0,0,1,30,20.86v.35h-4.9v0A2.64,2.64,0,0,0,25.66,23a1.89,1.89,0,0,0,1.51.66,2.47,2.47,0,0,0,1.17-.26A1.54,1.54,0,0,0,29,22.65Zm-1.9-4.32a1.94,1.94,0,0,0-1.46.61,2.51,2.51,0,0,0-.62,1.62h4.06a2.38,2.38,0,0,0-.55-1.62A1.86,1.86,0,0,0,27.14,18.33Z"/><path class="cls-1" d="M31.05,24.26V17.74h.75v1.07h.08a1.51,1.51,0,0,1,.67-.85,2,2,0,0,1,1.15-.33,2.5,2.5,0,0,1,.61.06v.79a2.78,2.78,0,0,0-.71-.08,1.68,1.68,0,0,0-1.26.51,1.77,1.77,0,0,0-.5,1.28v4.07Z"/><path class="cls-1" d="M35.46,16.05h.79v1.69h1.51v.67H36.25v4a1.29,1.29,0,0,0,.24.87,1,1,0,0,0,.8.27,3.39,3.39,0,0,0,.47,0v.68a3.13,3.13,0,0,1-.56,0,1.9,1.9,0,0,1-1.34-.38,1.7,1.7,0,0,1-.4-1.27V18.41H34.39v-.67h1.07Z"/><path class="cls-1" d="M39.66,16.12a.61.61,0,0,1-.42.17.58.58,0,0,1-.42-.18.57.57,0,0,1-.17-.41.59.59,0,1,1,1,.42Zm-.82,8.14V17.74h.8v6.52Z"/><path class="cls-1" d="M45.57,22.65h.8a2.26,2.26,0,0,1-.95,1.26,3.22,3.22,0,0,1-1.74.46,2.71,2.71,0,0,1-2.13-.91A3.67,3.67,0,0,1,40.77,21a3.61,3.61,0,0,1,.79-2.45,2.65,2.65,0,0,1,2.12-.92,2.57,2.57,0,0,1,2,.87,3.48,3.48,0,0,1,.75,2.36v.35h-4.9v0a2.68,2.68,0,0,0,.6,1.76,1.93,1.93,0,0,0,1.52.66,2.47,2.47,0,0,0,1.17-.26A1.54,1.54,0,0,0,45.57,22.65Zm-1.9-4.32a1.94,1.94,0,0,0-1.46.61,2.46,2.46,0,0,0-.62,1.62h4.06a2.34,2.34,0,0,0-.56-1.62A1.82,1.82,0,0,0,43.67,18.33Z"/><path class="cls-1" d="M47.42,19.47a1.61,1.61,0,0,1,.68-1.31,2.7,2.7,0,0,1,1.68-.53,2.8,2.8,0,0,1,1.63.46,1.76,1.76,0,0,1,.76,1.23h-.78a1.18,1.18,0,0,0-.55-.73,2.11,2.11,0,0,0-2.17,0,1,1,0,0,0-.45.81.78.78,0,0,0,.32.64,2.52,2.52,0,0,0,1,.41l.89.21a3.24,3.24,0,0,1,1.42.64,1.45,1.45,0,0,1,.45,1.11,1.66,1.66,0,0,1-.72,1.38,2.92,2.92,0,0,1-1.8.54A3.06,3.06,0,0,1,48,23.9a1.77,1.77,0,0,1-.79-1.28h.83a1.3,1.3,0,0,0,.58.78,2.17,2.17,0,0,0,1.16.29,2.07,2.07,0,0,0,1.2-.33,1,1,0,0,0,.47-.84.86.86,0,0,0-.3-.69,2.26,2.26,0,0,0-1-.42l-1-.24a3.15,3.15,0,0,1-1.35-.62A1.44,1.44,0,0,1,47.42,19.47Z"/></g></g></svg>