<svg xmlns="http://www.w3.org/2000/svg" xmlns:xlink="http://www.w3.org/1999/xlink" viewBox="0 0 129.2 56.98"><defs><style>.cls-1{fill:url(#linear-gradient);}.cls-2{fill:url(#linear-gradient-2);}.cls-3{fill:#333;}</style><linearGradient id="linear-gradient" y1="28.49" x2="57.17" y2="28.49" gradientUnits="userSpaceOnUse"><stop offset="0" stop-color="#ffde9d"/><stop offset="0.54" stop-color="#fbbc62"/><stop offset="1" stop-color="#faa543"/></linearGradient><linearGradient id="linear-gradient-2" y1="28.49" x2="57.17" y2="28.49" xlink:href="#linear-gradient"/></defs><g id="Layer_2" data-name="Layer 2"><g id="Layer_1-2" data-name="Layer 1"><path class="cls-1" d="M48.7,19.72V8.28H37.08a.76.76,0,0,1-.52-.21L28.49,0,20.42,8.07a.74.74,0,0,1-.51.21H8.47V19.72a.74.74,0,0,1-.22.52L0,28.49l8.25,8.26a.7.7,0,0,1,.22.51V48.7H20.09a.73.73,0,0,1,.52.22L28.68,57l8.07-8.06a.7.7,0,0,1,.51-.22H48.7V37.26a.7.7,0,0,1,.22-.51l8.25-8.26-8.25-8.25A.74.74,0,0,1,48.7,19.72Zm-12,17.74v8.86a.73.73,0,0,1-1.25.52L29.2,40.56a.75.75,0,0,0-1,0L21.69,47a.73.73,0,0,1-1.25-.52v-9a.73.73,0,0,0-.73-.74H10.47A.73.73,0,0,1,10,35.47L16.42,29a.73.73,0,0,0,0-1L10,21.51a.73.73,0,0,1,.52-1.25h9.24a.73.73,0,0,0,.73-.73V10.66a.73.73,0,0,1,1.25-.52L28,16.42a.73.73,0,0,0,1,0L35.47,10a.73.73,0,0,1,1.25.52v9.06a.74.74,0,0,0,.74.73H46.7a.73.73,0,0,1,.52,1.25L40.75,28a.73.73,0,0,0,0,1l6.47,6.46a.73.73,0,0,1-.52,1.25H37.46A.74.74,0,0,0,36.72,37.46Z"/><path class="cls-2" d="M48.92,20.24a.74.74,0,0,1-.22-.52V8.28H37.08a.74.74,0,0,1-.52-.21L28.49,0,20.42,8.07a.74.74,0,0,1-.51.21H8.47V19.72a.74.74,0,0,1-.22.52L0,28.49l1,1,7.22,7.23a.7.7,0,0,1,.22.51V48.7H20.09a.72.72,0,0,1,.4.12.53.53,0,0,1,.12.1l.36.35L28.68,57l8.07-8.06a.7.7,0,0,1,.51-.22H48.7V37.26a.7.7,0,0,1,.22-.51l7.22-7.23,1-1Zm-1.7,1.27L40.75,28a.73.73,0,0,0,0,1l.51.51,6,5.95a.73.73,0,0,1-.52,1.25H37.46a.74.74,0,0,0-.74.74v8.86a.73.73,0,0,1-1.25.52L29.2,40.56a.75.75,0,0,0-1,0L21.69,47a.73.73,0,0,1-1.25-.52v-9a.73.73,0,0,0-.73-.74H10.47A.73.73,0,0,1,10,35.47l6-5.95.51-.51a.73.73,0,0,0,0-1L10,21.51a.73.73,0,0,1,.52-1.25h9.24a.73.73,0,0,0,.73-.73V10.66a.73.73,0,0,1,1.25-.52L28,16.42a.73.73,0,0,0,1,0L35.47,10a.73.73,0,0,1,.73-.18.69.69,0,0,1,.48.46.61.61,0,0,1,0,.24v9.06a.74.74,0,0,0,.74.73H46.7A.73.73,0,0,1,47.22,21.51Z"/><path class="cls-3" d="M68.88,25.66l1.77-1V11.76l-1.77-1V10.6H76a7.13,7.13,0,0,1,4.11,1,3.34,3.34,0,0,1,1.49,2.93,3.64,3.64,0,0,1-1.22,2.8,5.45,5.45,0,0,1-3.26,1.34l1.25.41,3.53,5.53,1.61,1v.17H79.93l-4.3-6.94H73v5.78l1.81,1v.17H68.88Zm6.53-7.26a3.66,3.66,0,0,0,2.7-1,3.8,3.8,0,0,0,1-2.78A3.38,3.38,0,0,0,78,12a3.89,3.89,0,0,0-2.72-.93H73v7.31Z"/><path class="cls-3" d="M94.12,24.54a2.15,2.15,0,0,1-2.07,1.53,1.8,1.8,0,0,1-1.37-.5,2.09,2.09,0,0,1-.51-1.29,4.55,4.55,0,0,1-3.66,1.78,3.83,3.83,0,0,1-1-.15,4.7,4.7,0,0,1-1.09-.44,2.5,2.5,0,0,1-.93-.95A3,3,0,0,1,83.1,23c0-1.6,1.12-2.74,3.35-3.39,1.06-.29,2.3-.57,3.72-.83V17.17a2.2,2.2,0,0,0-.46-1.53,2,2,0,0,0-1.53-.51,5.44,5.44,0,0,0-1.85.35L85,18.53h-.17l-1.07-2.87a13.23,13.23,0,0,1,4.79-1,4.41,4.41,0,0,1,2.89.8,2.66,2.66,0,0,1,.95,2.11v6.26c0,.83.23,1.24.66,1.23a1.16,1.16,0,0,0,.91-.66Zm-6.54.54a3.44,3.44,0,0,0,2.57-1.29V19.17c-.77.2-1.72.48-2.83.83a2.61,2.61,0,0,0-2,2.71A2.4,2.4,0,0,0,86,24.44a2.16,2.16,0,0,0,1.59.64Z"/><path class="cls-3" d="M97.3,15.43v8a1.62,1.62,0,0,0,.4,1.18,1.34,1.34,0,0,0,1.06.43,2,2,0,0,0,1.74-1.08l.27.1a3.75,3.75,0,0,1-1.11,1.47,2.86,2.86,0,0,1-1.85.58,2.64,2.64,0,0,1-2-.7,2.58,2.58,0,0,1-.7-1.92v-8H93.41V15h1.74l2-3h.17v3h3.62v.46Z"/><path class="cls-3" d="M113.27,25.63v.17h-5.33v-.17l1.59-.85V18.31c0-1.78-.74-2.66-2.24-2.65a4,4,0,0,0-3.11,1.57v7.55l1.56.85v.17h-5.33v-.17l1.59-.85V16l-1.59-.85v-.17h3.44l.31,1.74a5.16,5.16,0,0,1,4.09-2,3.41,3.41,0,0,1,2.57.92,3.6,3.6,0,0,1,.89,2.59v6.6Z"/><path class="cls-3" d="M124.49,24.54a2.15,2.15,0,0,1-2.06,1.53,1.77,1.77,0,0,1-1.37-.5,2,2,0,0,1-.51-1.29,4.58,4.58,0,0,1-3.67,1.78,3.83,3.83,0,0,1-1-.15,4.7,4.7,0,0,1-1.09-.44,2.5,2.5,0,0,1-.93-.95,3,3,0,0,1-.36-1.49c0-1.6,1.12-2.74,3.35-3.39,1.06-.29,2.3-.57,3.73-.83V17.17a2.21,2.21,0,0,0-.47-1.53,2,2,0,0,0-1.53-.51,5.44,5.44,0,0,0-1.85.35l-1.37,3.05h-.17l-1.07-2.87a13.23,13.23,0,0,1,4.79-1,4.41,4.41,0,0,1,2.89.8,2.66,2.66,0,0,1,1,2.11v6.26c0,.83.23,1.24.66,1.23a1.16,1.16,0,0,0,.91-.66Zm-6.54.54a3.44,3.44,0,0,0,2.57-1.29V19.17c-.77.2-1.72.48-2.83.83a2.61,2.61,0,0,0-2,2.71,2.4,2.4,0,0,0,.64,1.73,2.16,2.16,0,0,0,1.59.64Z"/><path class="cls-3" d="M68.68,30.16h13v4.42h-.18l-2.13-3.94h-3V44.23l1.78,1v.17H72.23v-.17l1.8-1V30.64H71l-2.13,3.94h-.17Z"/><path class="cls-3" d="M87.47,45.67A5.43,5.43,0,0,1,81.8,40a5.5,5.5,0,0,1,1.59-4.11,5.58,5.58,0,0,1,4.08-1.56A5.4,5.4,0,0,1,93.11,40a5.39,5.39,0,0,1-5.63,5.69Zm2.29-1.75a7,7,0,0,0,.89-4,6.91,6.91,0,0,0-.89-3.92,2.69,2.69,0,0,0-2.3-1.29,2.75,2.75,0,0,0-2.33,1.29,6.9,6.9,0,0,0-.9,3.92,7,7,0,0,0,.9,4,2.76,2.76,0,0,0,2.33,1.3A2.7,2.7,0,0,0,89.76,43.92Z"/><path class="cls-3" d="M110.55,34.53v.17l-1.48,1.62-3.53,9.07h-1.32l-2.74-6.75-2.62,6.75H97.55l-4-9.79-1.18-.9v-.17h4.93v.17l-1.41.85,3.16,8.05L101.22,38l-1-2.49-1.14-.85v-.17H104v.17l-1.41.85,3.16,8.05,2.82-7.3-1.76-1.6v-.17Z"/><path class="cls-3" d="M112.19,39.8a4.93,4.93,0,0,0,1.11,3.35,3.56,3.56,0,0,0,2.77,1.21,4.09,4.09,0,0,0,3.82-2.31l.33.13a5.23,5.23,0,0,1-1.79,2.52,5.11,5.11,0,0,1-3.16.95,5.25,5.25,0,0,1-3.86-1.53,5.35,5.35,0,0,1-1.54-4,6,6,0,0,1,1.52-4.27,5.19,5.19,0,0,1,3.94-1.59,4.8,4.8,0,0,1,3.61,1.32,4.94,4.94,0,0,1,1.3,3.64v.55h-8Zm5.83-.43v-.18c0-3-.9-4.46-2.69-4.46a2.6,2.6,0,0,0-2.2,1.23,6.08,6.08,0,0,0-.94,3.41Z"/><path class="cls-3" d="M129.2,34.56l-1.12,3.15h-.17l-1.24-2.57a3.73,3.73,0,0,0-2.43,2v7.24l2,.85v.17h-5.81v-.17l1.59-.85V35.55l-1.59-.85v-.17h3.44l.31,2a3.92,3.92,0,0,1,3.34-2.24A4.14,4.14,0,0,1,129.2,34.56Z"/></g></g></svg>