<svg xmlns="http://www.w3.org/2000/svg" xmlns:xlink="http://www.w3.org/1999/xlink" viewBox="0 0 371.72 57.17"><defs><style>.cls-1{fill:url(#linear-gradient);}.cls-2{fill:url(#linear-gradient-2);}.cls-3{fill:#333;}.cls-4{fill:#24235c;}.cls-5{fill:#cb952b;}</style><linearGradient id="linear-gradient" y1="28.68" x2="57.17" y2="28.68" gradientUnits="userSpaceOnUse"><stop offset="0" stop-color="#ffde9d"/><stop offset="0.54" stop-color="#fbbc62"/><stop offset="1" stop-color="#faa543"/></linearGradient><linearGradient id="linear-gradient-2" y1="28.68" x2="57.17" y2="28.68" xlink:href="#linear-gradient"/></defs><g id="Layer_2" data-name="Layer 2"><g id="Layer_1-2" data-name="Layer 1"><path class="cls-1" d="M48.7,19.91V8.47H37.08a.72.72,0,0,1-.52-.21L28.49.19,20.42,8.26a.69.69,0,0,1-.51.21H8.47V19.91a.73.73,0,0,1-.22.52L0,28.68l8.25,8.26a.71.71,0,0,1,.22.52V48.89H20.09a.73.73,0,0,1,.52.22l8.07,8.06,8.07-8.06a.7.7,0,0,1,.51-.22H48.7V37.46a.71.71,0,0,1,.22-.52l8.25-8.26-8.25-8.25A.73.73,0,0,1,48.7,19.91Zm-12,17.74v8.87a.73.73,0,0,1-1.25.51L29.2,40.76a.73.73,0,0,0-1,0l-6.47,6.46a.73.73,0,0,1-1.25-.52V37.65a.73.73,0,0,0-.73-.73H10.47A.73.73,0,0,1,10,35.67l6.47-6.47a.72.72,0,0,0,0-1L10,21.7a.73.73,0,0,1,.52-1.25h9.24a.73.73,0,0,0,.73-.73V10.85a.73.73,0,0,1,1.25-.52L28,16.61a.73.73,0,0,0,1,0l6.46-6.46a.73.73,0,0,1,1.25.51v9.06a.74.74,0,0,0,.74.73H46.7a.73.73,0,0,1,.52,1.25l-6.47,6.47a.72.72,0,0,0,0,1l6.47,6.47a.73.73,0,0,1-.52,1.25H37.46A.74.74,0,0,0,36.72,37.65Z"/><path class="cls-2" d="M48.92,20.43a.73.73,0,0,1-.22-.52V8.47H37.08a.7.7,0,0,1-.52-.21L28.49.19,20.42,8.26a.69.69,0,0,1-.51.21H8.47V19.91a.73.73,0,0,1-.22.52L0,28.68l1,1,7.22,7.23a.71.71,0,0,1,.22.52V48.89H20.09a.72.72,0,0,1,.4.12l.12.1.36.35,7.71,7.71,8.07-8.06a.7.7,0,0,1,.51-.22H48.7V37.46a.71.71,0,0,1,.22-.52l7.22-7.23,1-1Zm-1.7,1.27-6.47,6.47a.72.72,0,0,0,0,1l.51.51,6,6a.73.73,0,0,1-.52,1.25H37.46a.73.73,0,0,0-.74.73v8.87a.73.73,0,0,1-1.25.51L29.2,40.76a.73.73,0,0,0-1,0l-6.47,6.46a.73.73,0,0,1-1.25-.52V37.65a.72.72,0,0,0-.73-.73H10.47A.73.73,0,0,1,10,35.67l6-6,.51-.51a.72.72,0,0,0,0-1L10,21.7a.73.73,0,0,1,.52-1.25h9.24a.73.73,0,0,0,.73-.73V10.85a.73.73,0,0,1,1.25-.52L28,16.61a.73.73,0,0,0,1,0l6.46-6.46A.73.73,0,0,1,36.2,10a.71.71,0,0,1,.48.46.64.64,0,0,1,0,.24v9.06a.74.74,0,0,0,.74.73H46.7A.73.73,0,0,1,47.22,21.7Z"/><path class="cls-3" d="M68.88,25.85l1.77-1V12l-1.77-1v-.18H76a7.13,7.13,0,0,1,4.11,1,3.35,3.35,0,0,1,1.49,2.93,3.63,3.63,0,0,1-1.22,2.8,5.45,5.45,0,0,1-3.26,1.34l1.25.42,3.53,5.52,1.61,1V26H79.93l-4.3-6.94H73v5.78l1.81,1V26H68.88Zm6.53-7.25a3.62,3.62,0,0,0,2.7-1,3.78,3.78,0,0,0,1-2.77A3.38,3.38,0,0,0,78,12.2a3.94,3.94,0,0,0-2.72-.93H73v7.32Z"/><path class="cls-3" d="M94.12,24.73a2.15,2.15,0,0,1-2.07,1.53,1.76,1.76,0,0,1-1.36-.5,2,2,0,0,1-.51-1.29,4.58,4.58,0,0,1-3.67,1.78,3.83,3.83,0,0,1-1-.15,4.7,4.7,0,0,1-1.09-.44,2.43,2.43,0,0,1-.93-.95,3,3,0,0,1-.36-1.48q0-2.41,3.35-3.4c1.06-.29,2.3-.57,3.73-.83V17.36a2.21,2.21,0,0,0-.47-1.53,2,2,0,0,0-1.53-.51,5.23,5.23,0,0,0-1.85.36l-1.37,3h-.17l-1.07-2.86a13,13,0,0,1,4.79-1,4.35,4.35,0,0,1,2.89.81,2.64,2.64,0,0,1,.95,2.1V24c0,.83.23,1.25.66,1.24s.63-.23.91-.67Zm-6.54.55A3.45,3.45,0,0,0,90.15,24V19.36c-.77.2-1.72.48-2.83.83a2.61,2.61,0,0,0-2,2.71A2.4,2.4,0,0,0,86,24.63a2.16,2.16,0,0,0,1.59.65Z"/><path class="cls-3" d="M97.3,15.62v8a1.66,1.66,0,0,0,.4,1.19,1.37,1.37,0,0,0,1.06.42,2,2,0,0,0,1.74-1.08l.27.1a3.68,3.68,0,0,1-1.11,1.47,2.86,2.86,0,0,1-1.85.58,2.64,2.64,0,0,1-2-.7,2.56,2.56,0,0,1-.7-1.92v-8H93.41v-.46h1.74l2-3h.17v3h3.62v.46Z"/><path class="cls-3" d="M113.27,25.82V26h-5.33v-.17l1.59-.85V18.5c0-1.77-.74-2.65-2.24-2.64a4,4,0,0,0-3.11,1.56V25l1.56.85V26h-5.33v-.17L102,25V16.15l-1.59-.85v-.17h3.44l.31,1.75a5.15,5.15,0,0,1,4.09-2,3.45,3.45,0,0,1,2.57.92,3.6,3.6,0,0,1,.89,2.59V25Z"/><path class="cls-3" d="M124.49,24.73a2.15,2.15,0,0,1-2.06,1.53,1.77,1.77,0,0,1-1.37-.5,2,2,0,0,1-.51-1.29,4.58,4.58,0,0,1-3.67,1.78,3.83,3.83,0,0,1-1-.15,4.7,4.7,0,0,1-1.09-.44,2.43,2.43,0,0,1-.93-.95,3,3,0,0,1-.36-1.48q0-2.41,3.35-3.4c1.06-.29,2.3-.57,3.73-.83V17.36a2.21,2.21,0,0,0-.47-1.53,2,2,0,0,0-1.53-.51,5.23,5.23,0,0,0-1.85.36l-1.37,3h-.17l-1.07-2.86a13,13,0,0,1,4.79-1,4.35,4.35,0,0,1,2.89.81,2.64,2.64,0,0,1,1,2.1V24c0,.83.23,1.25.66,1.24s.63-.23.91-.67Zm-6.54.55a3.45,3.45,0,0,0,2.57-1.3V19.36c-.77.2-1.72.48-2.83.83a2.61,2.61,0,0,0-2,2.71,2.4,2.4,0,0,0,.64,1.73,2.16,2.16,0,0,0,1.59.65Z"/><path class="cls-3" d="M68.68,30.35h13v4.42h-.18l-2.13-3.94h-3V44.42l1.78,1v.17H72.23v-.17l1.8-1V30.83H71l-2.13,3.94h-.17Z"/><path class="cls-3" d="M87.47,45.87a5.45,5.45,0,0,1-5.67-5.72A5.5,5.5,0,0,1,83.39,36a5.58,5.58,0,0,1,4.08-1.56,5.4,5.4,0,0,1,5.64,5.67,5.4,5.4,0,0,1-5.63,5.7Zm2.29-1.76a7,7,0,0,0,.89-4,6.91,6.91,0,0,0-.89-3.92A2.69,2.69,0,0,0,87.46,35a2.75,2.75,0,0,0-2.33,1.29,6.9,6.9,0,0,0-.9,3.92,7,7,0,0,0,.9,4,2.76,2.76,0,0,0,2.33,1.3A2.7,2.7,0,0,0,89.76,44.11Z"/><path class="cls-3" d="M110.55,34.73v.17l-1.48,1.61-3.53,9.07h-1.32l-2.74-6.74-2.62,6.74H97.55l-4-9.79-1.18-.89v-.17h4.93v.17l-1.41.85,3.16,8,2.15-5.57-1-2.48-1.14-.85v-.17H104v.17l-1.41.85,3.16,8,2.82-7.31-1.76-1.59v-.17Z"/><path class="cls-3" d="M112.19,40a4.91,4.91,0,0,0,1.11,3.35,3.53,3.53,0,0,0,2.77,1.21,4.1,4.1,0,0,0,3.82-2.3l.33.12a5.23,5.23,0,0,1-1.79,2.52,5.06,5.06,0,0,1-3.16,1,5.25,5.25,0,0,1-3.86-1.53,5.37,5.37,0,0,1-1.54-4,6,6,0,0,1,1.52-4.27,5.19,5.19,0,0,1,3.94-1.59,4.84,4.84,0,0,1,3.61,1.32,4.94,4.94,0,0,1,1.3,3.64V40h-8Zm5.83-.43v-.18c0-3-.9-4.46-2.69-4.46a2.6,2.6,0,0,0-2.2,1.23,6.11,6.11,0,0,0-.94,3.41Z"/><path class="cls-3" d="M129.2,34.75l-1.12,3.15h-.17l-1.24-2.57a3.73,3.73,0,0,0-2.43,2v7.24l2,.85v.17h-5.81v-.17l1.59-.85V35.75l-1.59-.85v-.17h3.44l.31,2a3.92,3.92,0,0,1,3.34-2.24A4.33,4.33,0,0,1,129.2,34.75Z"/><rect class="cls-3" x="151.3" y="7.06" width="0.84" height="43.26"/><path class="cls-4" d="M242,41V31.35h1.21V41Z"/><path class="cls-4" d="M246.21,31.35l5,8.5,0-8.5h1.2V41h-1.85l-5-8.58V41h-1.2V31.35Z"/><path class="cls-4" d="M260.25,31.35v1.12h-5.58v3.15h5v1.09h-5V41h-1.21V31.35Z"/><path class="cls-4" d="M260.87,41V31.35H265a3,3,0,0,1,2.21.89,3,3,0,0,1,.86,2.16,2.88,2.88,0,0,1-2.25,2.85L268.17,41h-1.33l-2.28-3.62h-2.48V41Zm4-4.68a2.06,2.06,0,0,0,1.46-.54,1.82,1.82,0,0,0,.58-1.4,2,2,0,0,0-.51-1.37,1.81,1.81,0,0,0-1.39-.56h-2.91v3.87Z"/><path class="cls-4" d="M268.43,41l3.72-9.64H274L277.62,41h-1.27l-.88-2.3h-4.88L269.7,41Zm6.66-3.4-2-5.37L271,37.59Z"/><path class="cls-4" d="M279.43,31.35v4.27h5.46V31.35h1.2V41h-1.2V36.71h-5.46V41h-1.21V31.35Z"/><path class="cls-4" d="M288.19,32.69a4.82,4.82,0,0,1,6.88,0,5,5,0,0,1,0,7,4.82,4.82,0,0,1-6.89,0,5,5,0,0,1,0-7Zm.84,6.17a3.63,3.63,0,0,0,5.21,0,3.95,3.95,0,0,0,0-5.36,3.61,3.61,0,0,0-5.2,0A3.74,3.74,0,0,0,288,36.17,3.78,3.78,0,0,0,289,38.86Z"/><path class="cls-4" d="M299.1,31.35l3.36,8.28,3.32-8.28h1.92V41h-1.22l0-8.45L303.12,41h-1.37l-3.37-8.45,0,8.45h-1.21V31.35Z"/><path class="cls-4" d="M315.42,31.35v1.12h-5.55v3.15h5v1.09h-5v3.16h5.55V41h-6.76V31.35Z"/><path class="cls-4" d="M317.09,31.93a4.57,4.57,0,0,1,2.6-.7,5.49,5.49,0,0,1,3.4,1.1v1.28a5.48,5.48,0,0,0-3.41-1.25,3.5,3.5,0,0,0-1.76.41,1.31,1.31,0,0,0-.71,1.17.92.92,0,0,0,.15.51,1.34,1.34,0,0,0,.34.37,2.93,2.93,0,0,0,.59.29,6.85,6.85,0,0,0,.7.22l.85.21a11.8,11.8,0,0,1,1.44.41,5.19,5.19,0,0,1,1.11.54,2.29,2.29,0,0,1,.77.81,2.39,2.39,0,0,1,.25,1.11,2.26,2.26,0,0,1-1.05,2,4.58,4.58,0,0,1-2.59.71,6.26,6.26,0,0,1-1.92-.28,10.4,10.4,0,0,1-1.77-.81V38.74A6.45,6.45,0,0,0,319.79,40a3.37,3.37,0,0,0,1.74-.4,1.28,1.28,0,0,0,.68-1.14,1.2,1.2,0,0,0-.58-1.05,5.62,5.62,0,0,0-1.77-.66L319,36.5l-.77-.23a4.69,4.69,0,0,1-.74-.28c-.17-.09-.36-.21-.59-.35a1.77,1.77,0,0,1-.48-.46,2.25,2.25,0,0,1-.28-.56,2.15,2.15,0,0,1-.12-.73A2.24,2.24,0,0,1,317.09,31.93Z"/><path class="cls-4" d="M327.17,41V31.35h1.21v8.52h4.88V41Z"/><path class="cls-4" d="M333.9,41V31.35h1.22v8.52H340V41Z"/><path class="cls-4" d="M340.64,41V31.35h4.12a2.87,2.87,0,0,1,2.22.91,3.31,3.31,0,0,1,0,4.43,2.92,2.92,0,0,1-2.22.89h-2.91V41Zm1.21-4.49h2.84a1.82,1.82,0,0,0,1.44-.58,2.12,2.12,0,0,0,.53-1.47,2,2,0,0,0-.52-1.43,1.88,1.88,0,0,0-1.45-.55h-2.84Z"/><path class="cls-5" d="M231.19,28.33l-6.57-6.55h-6l4.25-4.25.1-9.21-9.28,0-4.26,4.25v-6L203,0l-6.55,6.57v6l-4.11-4.1-9.43-.18.25,9.37,4.1,4.1h-5.8l-6.8,6.55,6.8,6.45h5.8l-4.1,4.1L183,48.32l9.37-.26,4.1-4.1v5.81l6.55,6.8,6.44-6.81V44l4.25,4.25,9.21.1V39l-4.26-4.25h6ZM209.41,16.42,214.79,11h5.43l-.06,5.37-5.38,5.38h-5.37ZM199.12,7.69,203,3.85l3.76,3.83V15.3l-3.79,3.79-3.8-3.79ZM185.8,16.53l-.15-5.46,5.52.1,5.25,5.25v5.36h-5.37Zm-3.29,15.54-4-3.75,4-3.84h7.42l3.79,3.8-3.79,3.79Zm13.91,8.07-5.25,5.25-5.46.15.1-5.52,5.25-5.24h5.36Zm10.29,8.55-3.76,4-3.83-4V41.26l3.8-3.79,3.79,3.79Zm1.6-16.62h-1.6v5.37l-1.88-1.89-1.91-1.91L201,35.55l-1.88,1.89V32.07h-5.36l2-1.94,1.84-1.85h0l-.56-.57-1.35-1.34-1.88-1.89h5.36V19.12l3.8,3.79L204.83,21h0l1.88-1.88v5.36h5.36l-2.14,2.15-.52.52h0l-1.13,1.14,3.79,3.79h-3.76Zm11.84,8.08v5.43l-5.36-.06-5.39-5.38V34.78h5.37Zm-4.25-8.08-3.8-3.79,3.8-3.8h7.6l3.85,3.84-3.84,3.75Z"/><path class="cls-4" d="M251.76,15a4.67,4.67,0,0,0-3.49-1.42h-4.71L242,16.12V28h2.46V23.21l3.81,0a4.81,4.81,0,0,0,3.51-1.4,4.62,4.62,0,0,0,1.38-3.4A4.71,4.71,0,0,0,251.76,15Zm-1.71,5.26a2.48,2.48,0,0,1-1.92.77h-3.67V15.78l3.67,0a2.59,2.59,0,0,1,1.93.72,2.5,2.5,0,0,1,.72,1.84A2.7,2.7,0,0,1,250.05,20.22Z"/><path class="cls-4" d="M254,13.63h2.79v8.54a3.27,3.27,0,0,0,1,2.43,3.13,3.13,0,0,0,2.28.94,3.3,3.3,0,0,0,3.29-3.37V13.63h2.75v8.54a5.75,5.75,0,0,1-1.72,4.3,6.36,6.36,0,0,1-8.6,0A5.7,5.7,0,0,1,254,22.17Z"/><path class="cls-4" d="M268.51,14.53a6.82,6.82,0,0,1,4-1.11A8.91,8.91,0,0,1,277.55,15v2.86A9,9,0,0,0,272.47,16a4.09,4.09,0,0,0-2,.43,1.32,1.32,0,0,0-.77,1.19,1.11,1.11,0,0,0,.74,1,12.35,12.35,0,0,0,2.32.75c.63.15,1.16.29,1.58.42a9.62,9.62,0,0,1,1.44.58,4.72,4.72,0,0,1,1.27.82,3.58,3.58,0,0,1,.81,1.15,3.7,3.7,0,0,1,.32,1.59A3.57,3.57,0,0,1,276.63,27a6.46,6.46,0,0,1-3.89,1.11,9.56,9.56,0,0,1-2.74-.37,18.87,18.87,0,0,1-2.91-1.15V23.78a10.88,10.88,0,0,0,5.67,1.76,3.77,3.77,0,0,0,1.95-.42,1.3,1.3,0,0,0,.7-1.18,1.24,1.24,0,0,0-.66-1.1,8.39,8.39,0,0,0-2-.75A28,28,0,0,1,269.41,21a3.8,3.8,0,0,1-2.51-3.53A3.45,3.45,0,0,1,268.51,14.53Z"/><path class="cls-4" d="M281.74,13.61v5.93h6.86V13.61h2.78V28H288.6V22h-6.86v6H279V13.61Z"/><path class="cls-4" d="M294.29,28V13.61h6.31a4.92,4.92,0,0,1,4.95,4.89,4.6,4.6,0,0,1-1.42,3.42,5,5,0,0,1-3.53,1.41l-3.52,0V28Zm2.79-7.11,3.33,0a2.37,2.37,0,0,0,1.79-.71,2.42,2.42,0,0,0,.68-1.74,2.22,2.22,0,0,0-.68-1.66,2.46,2.46,0,0,0-1.79-.66l-3.33,0Z"/><path class="cls-4" d="M304.24,28l5.59-14.38h2.84L318.42,28h-2.88l-1.13-2.94h-6.22L307.1,28Zm9.27-5.32-2.28-5.78-2.18,5.78Z"/><path class="cls-4" d="M321.93,13.61l7,10.17V13.61h2.67V28H328.9l-7-10.19V28H319.2V13.61Z"/><path class="cls-4" d="M332.56,23.06h2.75a2.4,2.4,0,0,0,.79,1.87,2.71,2.71,0,0,0,1.78.61c1.62,0,2.42-1.09,2.42-3.28V16.17h-6.1V13.61h8.88v9a5.54,5.54,0,0,1-1.41,4,5,5,0,0,1-3.79,1.47,5.63,5.63,0,0,1-3.79-1.31,4.52,4.52,0,0,1-1.53-3.62Z"/><path class="cls-4" d="M343.72,28l5.59-14.38h2.83L357.89,28H355l-1.13-2.94h-6.23L346.57,28ZM353,22.67l-2.28-5.78-2.18,5.78Z"/><path class="cls-4" d="M358.61,28V13.61h2.78V25.42h6.84V28Z"/><path class="cls-4" d="M369.05,28V13.61h2.67V28Z"/></g></g></svg>