<svg xmlns="http://www.w3.org/2000/svg" viewBox="0 0 37.27 37.27"><defs><style>.cls-1{fill:#454a4c;}</style></defs><g id="Layer_2" data-name="Layer 2"><g id="Layer_1-2" data-name="Layer 1"><path class="cls-1" d="M0,0V37.27H37.27V0ZM35.87,35.87H1.4V1.4H35.87Z"/><path class="cls-1" d="M7.42,34.46,6.36,33.4H30.9l-1.06,1.06v0h4.64V29.83h0L33.4,30.89V6.57l1.06,1.06h0V3H29.83V3l.87.87H6.55L7.42,3V3H2.77V7.64h0L3.88,6.55V30.91L2.79,29.83h0v4.65H7.42Zm-3-28.41L6.05,4.38H31.2l1.7,1.69V31.4l-1.5,1.5H5.86L4.38,31.41Z"/><path class="cls-1" d="M29.06,10.37,19.23,6.9V29.67l9.83-4.18Zm-1.4,14.2-7,3V8.88l7,2.48Z"/><path class="cls-1" d="M17,27.86v-19H10.35v19ZM11.75,10.24h3.83V26.46H11.75Z"/></g></g></svg>