<svg xmlns="http://www.w3.org/2000/svg" viewBox="0 0 43.49 38.7"><defs><style>.cls-1{fill:#454a4c;}</style></defs><g id="Layer_2" data-name="Layer 2"><g id="Layer_1-2" data-name="Layer 1"><path class="cls-1" d="M33.54,6.56A18.22,18.22,0,0,0,27.6,2.1,19.86,19.86,0,0,0,21.47.25l-2-.25H17.37L17,.07c-1.26.19-2.54.27-3.77.58A19.16,19.16,0,0,0,3.4,6.41,12.39,12.39,0,0,0,.29,12.29C.12,13.13.09,14,0,14.86c1.23.12,1.23.12,2-.59a3.22,3.22,0,0,1,4-.26A20.18,20.18,0,0,1,7.86,15.7a4.13,4.13,0,0,1,3.47-2,4.19,4.19,0,0,1,3.54,2.11,4.23,4.23,0,0,1,3-2v9l1.33,1V13.77a4.44,4.44,0,0,1,2.77,2,4,4,0,0,1,7,0c.42-.47.77-.91,1.17-1.3a3.3,3.3,0,0,1,2.59-1,3.65,3.65,0,0,1,2.44,1.23c.1.09.22.22.34.23.39,0,.79,0,1.16,0a.87.87,0,0,0,0-.13c0-.12,0-.23,0-.35A11.92,11.92,0,0,0,33.54,6.56ZM7.14,13c-2.86-1.22-2.86-1.22-5.62-.11a8.39,8.39,0,0,1,.83-2.61A15.2,15.2,0,0,1,8.75,3.8a17.9,17.9,0,0,1,3.78-1.6A16.23,16.23,0,0,0,7.14,13Zm7.43-5.78c-.29,1.9-.46,3.81-.68,5.76a5.25,5.25,0,0,0-5.37.15c-.32-4.2,4.26-11,7.7-11.44A17.89,17.89,0,0,0,14.57,7.26Zm.77,6.08a1.45,1.45,0,0,1,0-.28,33.82,33.82,0,0,1,1.3-8.72,19.09,19.09,0,0,1,1-2.28A2.7,2.7,0,0,1,18,1.53a.47.47,0,0,1,.78,0,9.25,9.25,0,0,1,1,1.76,23.28,23.28,0,0,1,1.41,6.39c.12,1.19.2,2.39.31,3.71A5.3,5.3,0,0,0,15.34,13.34Zm13-.16a5.3,5.3,0,0,0-5.46-.12c-.22-3.91-.59-7.73-2.27-11.45.62.3,1.16.51,1.66.8a12,12,0,0,1,4.63,5.35,15.66,15.66,0,0,1,1.44,4.92A4.15,4.15,0,0,1,28.29,13.18Zm1.36-.08A16.91,16.91,0,0,0,28,7.15,14.59,14.59,0,0,0,24.34,2.3l.07-.12c.94.39,1.9.74,2.81,1.19a16,16,0,0,1,6.32,5.36,10.63,10.63,0,0,1,1.71,3.95,2,2,0,0,1,0,.28A4.81,4.81,0,0,0,29.65,13.1Z"/><path class="cls-1" d="M42.21,38.7c-.22-.38-.43-.76-.67-1.13-1-1.54-2-3.07-2.93-4.61a.57.57,0,0,0-.55-.3l-25.63,0a.69.69,0,0,0-.5.22c-1.21,1.87-2.41,3.76-3.61,5.64a.42.42,0,0,0,0,.16H8.11l-1-.74,3.36-5.27H7.7V31.37h.74c1.6,0,3.21,0,4.82,0a.56.56,0,0,0,.58-.32c.37-.61.78-1.2,1.2-1.85L7.09,23a4.22,4.22,0,0,1,6.26-1.23q3.71,2.87,7.39,5.77a1.36,1.36,0,0,0,.93.33c5.82,0,11.65,0,17.47,0a4.28,4.28,0,0,1,4.32,4.82H40c.61.94,1.16,1.8,1.71,2.67L43.37,38l-1.07.73Zm-.13-7.33a4.56,4.56,0,0,0-.2-.57A2.89,2.89,0,0,0,39,29.15H21.14a1.22,1.22,0,0,1-.82-.28c-2.19-1.73-4.39-3.46-6.6-5.17a12.67,12.67,0,0,0-2-1.33A2.44,2.44,0,0,0,9,22.82l.13.12q5.28,4.13,10.58,8.25a1,1,0,0,0,.59.17H42.08Zm-26.85,0h2.54L16.09,30Z"/></g></g></svg>