<svg xmlns="http://www.w3.org/2000/svg" viewBox="0 0 39.35 38.7"><defs><style>.cls-1{fill:#454a4c;}</style></defs><g id="Layer_2" data-name="Layer 2"><g id="Layer_1-2" data-name="Layer 1"><path class="cls-1" d="M38.51,6.87Q29.35,3.5,20.18.1a1.36,1.36,0,0,0-1,0Q9.94,3.52.69,6.92A1.35,1.35,0,0,0,0,7.46V38.25c.16.3.4.46,1,.45,1,0,2,0,2.9,0H5.25a.74.74,0,0,0,.55-.2A.55.55,0,0,0,6,38a30.2,30.2,0,0,0-1.3-9A18,18,0,0,0,4,27.32l-.36-.81-.29-.67,1-.18.77-.13a9.41,9.41,0,0,0,5.68-3.9,14.27,14.27,0,0,0,2.64-6.23.94.94,0,0,1,.84-.75h11l.44.16.11.31.1.47q.09.48.21,1A13.61,13.61,0,0,0,30,23.21,8.58,8.58,0,0,0,35,25.65l.27.06.68.14-.23.65c-.11.28-.24.55-.36.82-.27.59-.52,1.16-.72,1.74a22.79,22.79,0,0,0-1.14,6.08c-.08,1-.13,2-.15,2.74a.88.88,0,0,0,.16.61,1,1,0,0,0,.69.19h2.39c.57,0,1.15,0,1.72,0s.83-.15,1-.45V7.45A1.51,1.51,0,0,0,38.51,6.87ZM6.85,6l4.71-1.74,7.25-2.67.37-.14a1.4,1.4,0,0,1,.92,0l10.78,4,1,.38.2.08L34.41,7H4.32L6.86,6ZM4.42,33.67c.09.71.15,1.44.22,2.17,0,.32.05.64.08,1l.06.63H1.25V27.05l1-.42.24.48c.08.17.18.34.26.5.2.38.4.77.57,1.18A18.84,18.84,0,0,1,4.42,33.67ZM2.07,24.8l-.82.4V14.67H7.4l0,.59a13,13,0,0,1-1.63,6.19A8.49,8.49,0,0,1,2.07,24.8Zm5.31-1.62-1.79.88,1-1.69a14.51,14.51,0,0,0,2-7.17l0-.55h3.42l.05.52C12.35,17.35,9.5,22.14,7.38,23.18Zm24.42-.1a12.14,12.14,0,0,1-4.66-7.73L27,14.66h3.71l0,.54a15.28,15.28,0,0,0,1.9,7.14L34,24.71Zm.2-7.87,0-.55h6.07V25l-.71-.18C34.49,24,31.83,19.28,32,15.21Zm6.1,22.23H34.6l0-.62c.23-3.3.49-6.69,2.28-9.71l.22-.37,1,.24Zm0-24.06H1.25V8.26H38.1Z"/></g></g></svg>