<svg xmlns="http://www.w3.org/2000/svg" viewBox="0 0 43.06 37.01"><defs><style>.cls-1{fill:#454a4c;}</style></defs><g id="Layer_2" data-name="Layer 2"><g id="Layer_1-2" data-name="Layer 1"><path class="cls-1" d="M42,19.79a4,4,0,0,0-3.11-1.42c-12.37-.06-23.76-.06-34.82,0a4,4,0,0,0-3,1.27A4.66,4.66,0,0,0,0,23.09h1.3c.05-2.47,1.13-3.52,3.59-3.52a2,2,0,0,1,1.53.55A2.07,2.07,0,0,1,7,21.75c0,2,0,3.94,0,5.92v5.92a5.28,5.28,0,0,1-.05.66l-.13,1.42-3.3,0v.89c0,.14,0,.28,0,.4H39.29l.24,0c0-.41,0-.84,0-1.27v-.1H36.13V21.22a1.72,1.72,0,0,1,.92-1.44,3.24,3.24,0,0,1,3,.13,3.16,3.16,0,0,1,1.64,2.43c0,.26,0,.56.08.76.32,0,.81,0,1.17,0H43A4.46,4.46,0,0,0,42,19.79ZM13.9,35.58H8.41L8.3,34.11a5.28,5.28,0,0,1,0-.55V29.91c0-2.7,0-5.39,0-8.09a2.28,2.28,0,0,1,.55-1.68,2.23,2.23,0,0,1,1.64-.56h.11c2.88,0,3.35.52,3.35,3.45Zm6.94-4.83c0,1.16,0,2.32,0,3.49a1.35,1.35,0,0,1-.22.68l-.24.53-.68.11H15.25V21.42a1.8,1.8,0,0,1,.64-1.49,2.14,2.14,0,0,1,1.83-.28,1.89,1.89,0,0,0,.38,0,2.42,2.42,0,0,1,2,.29,1.83,1.83,0,0,1,.62,1.43C20.88,24.46,20.87,27.7,20.84,30.75Zm7,4.83H22.37l-.09-1.27a5.52,5.52,0,0,1-.05-.71V29.93c0-2.73,0-5.46,0-8.19a2.22,2.22,0,0,1,.53-1.62,2.35,2.35,0,0,1,1.61-.54c3,0,3.44.5,3.44,3.47Zm6.86,0H29.17V25.84c0-1.41,0-2.81,0-4.2a2,2,0,0,1,.53-1.56,2,2,0,0,1,1.57-.48c.5,0,1,0,1.52,0h1.86Z"/><path class="cls-1" d="M8.27,15.05V10.39c0-2.27,0-4.53,0-6.8a2.25,2.25,0,0,1,.56-1.76,2.15,2.15,0,0,1,1.7-.53c1.55,0,3.13,0,4.69,0h3.46l.77,0,1.41.08V13.76c0,.42,0,1.07,0,1.35.23,0,.84,0,1.26,0h.11c0-1.77,0-3.53,0-5.28,0-2.08,0-4.17,0-6.24a2.32,2.32,0,0,1,.56-1.8,2.34,2.34,0,0,1,1.74-.54c1.84.05,3.73,0,5.56,0h2.49l.76,0,1.43.06v13.7h.48c.31,0,.62,0,.92,0,0-2.91,0-5.83,0-8.74,0-1.66,0-3.32,0-5C36.12.06,36.05,0,34.71,0H8.27C7,0,7,.06,6.94,1.28V14.92s0,.08,0,.13Z"/></g></g></svg>