<svg xmlns="http://www.w3.org/2000/svg" viewBox="0 0 39.62 32.94"><defs><style>.cls-1{fill:#454a4c;}</style></defs><g id="Layer_2" data-name="Layer 2"><g id="Layer_1-2" data-name="Layer 1"><path class="cls-1" d="M0,22.26a.74.74,0,0,1,.8-.47c.35,0,.7,0,1,0a1.85,1.85,0,0,1,1.87,1.87c0,.6,0,1.2,0,1.85H9.19c.54,0,.69-.12.88-.63q.87-2.4,1.75-4.78a.6.6,0,0,0-.08-.63,3.51,3.51,0,0,1-.59-2.27c0-.28-.06-.38-.3-.47-2.83-1-5.65-2.05-8.48-3.07a3.15,3.15,0,0,1-2.1-4.2Q1.59,5.78,2.94,2.11A3.11,3.11,0,0,1,7.12.23l9.3,3.38,21.65,7.88a2.23,2.23,0,0,1,1.55,1.33v.54a2.67,2.67,0,0,1-1.48,1.32c-.58.25-1.14.53-1.73.81l.13.17a1.22,1.22,0,0,1,.34,1.4c-.55,1.5-1.09,3-1.65,4.49a1.22,1.22,0,0,1-1.69.8L32.4,22a3.22,3.22,0,0,1-2.2,1.43,3.46,3.46,0,0,1-1.77-.26c-3.31-1.2-6.62-2.39-9.92-3.61-.33-.12-.5-.12-.72.2a3.41,3.41,0,0,1-2.09,1.36.52.52,0,0,0-.45.4q-.84,2.36-1.71,4.7a4.38,4.38,0,0,1-4.33,3H3.71v1.63a1.89,1.89,0,0,1-2.08,2.08c-.26,0-.52,0-.78,0A.82.82,0,0,1,0,32.47ZM2.45,7.08c-.36,1-.69,1.88-1,2.78a1.86,1.86,0,0,0,1.23,2.58L20.15,18.8,29,22a1.87,1.87,0,0,0,2.62-1.22l.36-1c.32-.88.63-1.76,1-2.69l-.34.08A7.63,7.63,0,0,1,28,17.05L12.07,11.26c-.57-.21-1.14-.41-1.7-.63a.61.61,0,0,1,.38-1.15,2.67,2.67,0,0,1,.4.13L28.47,15.9a5.79,5.79,0,0,0,4.44-.15c1.62-.72,3.22-1.49,4.82-2.25a6.74,6.74,0,0,0,.64-.38V13c-.3-.14-.59-.29-.89-.4L20.23,6.32,6.72,1.41A1.87,1.87,0,0,0,4.06,2.66c-.21.55-.37,1.13-.61,1.66a2,2,0,0,0,1.36,3l.08,0a.63.63,0,0,1,.44.85.66.66,0,0,1-.88.3A3.48,3.48,0,0,1,2.45,7.08ZM3.73,28H9.19a3.16,3.16,0,0,0,3.19-2.2l1.53-4.2c.06-.16.1-.33.14-.47l-1.11-.45c-.06.13-.12.26-.17.39-.51,1.43-1,2.85-1.55,4.27a1.91,1.91,0,0,1-2,1.42H3.73ZM1.26,23v8.64c1,.09,1.22-.08,1.22-1.08V25.46c0-.58,0-1.16,0-1.74A.62.62,0,0,0,1.78,23ZM16.8,18.9l-4.4-1.6a2.44,2.44,0,0,0,1.69,2.49A2.32,2.32,0,0,0,16.8,18.9Zm17.25,2.32,1.68-4.63c-1.1-.47-1.14-.56-1.52.53s-.88,2.43-1.33,3.68Z"/></g></g></svg>