<?xml version="1.0" encoding="UTF-8"?>
<svg id="Layer_2" data-name="Layer 2" xmlns="http://www.w3.org/2000/svg" xmlns:xlink="http://www.w3.org/1999/xlink" viewBox="0 0 185.78 57.43">
  <defs>
    <style>
      .cls-1 {
        fill: #fffef7;
      }

      .cls-2 {
        fill: #fff;
      }

      .cls-3 {
        fill: #52c4f1;
      }

      .cls-4, .cls-5 {
        fill: #014f6e;
      }

      .cls-5 {
        opacity: .24;
      }

      .cls-6 {
        fill: #ffcb21;
      }

      .cls-7 {
        fill: url(#linear-gradient);
      }
    </style>
    <linearGradient id="linear-gradient" x1="15.12" y1="28.35" x2="41.14" y2="28.35" gradientUnits="userSpaceOnUse">
      <stop offset="0" stop-color="#f7f8f8"/>
      <stop offset=".35" stop-color="#f1f4f6"/>
      <stop offset=".81" stop-color="#e0ebf0"/>
      <stop offset="1" stop-color="#d8e6ee"/>
    </linearGradient>
  </defs>
  <g id="Layer_1-2" data-name="Layer 1">
    <g>
      <g>
        <path class="cls-3" d="M185.28,9.9v37.63c0,5.19-3.65,9.4-8.16,9.4H22.04c-4.5,0-8.15-4.2-8.15-9.39V5.09c0-1.13.35-2.15.93-2.95.73-1.01,1.83-1.65,3.06-1.65h159.24c4.51,0,8.16,4.21,8.16,9.4Z"/>
        <path class="cls-2" d="M177.12,57.43H22.04c-4.77,0-8.65-4.43-8.65-9.89V5.09c0-1.18.36-2.34,1.03-3.24.85-1.18,2.11-1.85,3.46-1.85h159.24c4.78,0,8.66,4.44,8.66,9.9v37.63c0,5.46-3.89,9.9-8.66,9.9ZM17.88,1c-1.03,0-2,.52-2.65,1.44-.54.74-.84,1.68-.84,2.65v42.45c0,4.9,3.43,8.89,7.65,8.89h155.07c4.23,0,7.66-3.99,7.66-8.9V9.9c0-4.91-3.44-8.9-7.66-8.9H17.88Z"/>
      </g>
      <path class="cls-5" d="M57.41,17.25l-7.84,39.1h-2.68l.28-2.37c-12.86,2.71-20.84-4.66-20.84-4.66-4.81-3.38-8.95-5.35-12.44-6.43-9.25-2.85-13.89.56-13.89.56L5.87,9.29h.37s3.64-.71,8.58-.53c5.08.18,11.55,1.3,16.86,5.12,10.45,7.53,23.17,3.84,23.17,3.84l.15-.9c.07-1.23,1.2-1.16,1.2-1.16,1.41.15,1.21,1.59,1.21,1.59Z"/>
      <path class="cls-4" d="M6.91,7.86L1.05,42.02s8.8-6.47,26.33,5.87c0,0,7.98,7.37,20.84,4.66l-.45,3.84h2.56l8.13-40.58s.2-1.43-1.2-1.58c0,0-1.13-.08-1.2,1.15l-.15.9s-12.72,3.69-23.17-3.84S7.29,7.86,7.29,7.86"/>
      <path class="cls-7" d="M41.14,32.22l-2.13-3.91-2.77-.82,2.53-1.38,1.3-4.22-4.27-1.26-2.54,1.38.82-2.76-2.07-3.9-3.91,2.13-.82,2.77-1.33-2.45-4.32-1.36-1.16,4.34,1.33,2.44-2.67-.79-4.02,2.09,2.25,3.89,2.67.79-2.45,1.33-1.36,4.32,4.34,1.16,2.44-1.33-.79,2.67,2.09,4.02,3.89-2.25.79-2.67,1.38,2.53,4.22,1.3,1.26-4.27-1.38-2.54,2.76.82,3.9-2.07ZM32.74,23.77l3.21-1.74,2.5.73-.76,2.46-3.21,1.74-2.47-.73.73-2.47ZM29.19,18.36l2.29-1.25,1.21,2.28-1.04,3.5-2.26,1.23-1.23-2.26,1.03-3.5ZM21.86,20.61l.67-2.53,2.52.8,1.7,3.13-.73,2.47-2.47-.73-1.7-3.13ZM18.23,27.31l-1.31-2.27,2.35-1.22,3.41,1.01,1.23,2.26-2.26,1.23-3.42-1.01ZM23.53,32.91l-3.13,1.7-2.53-.67.8-2.52,3.13-1.7,2.47.73-.73,2.47ZM27.1,38.25l-2.27,1.31-1.22-2.35,1.01-3.41,2.26-1.23,1.23,2.26-1.01,3.42ZM30.1,30.82l-.74-.22-.22.74-.15.51-.36,1.22-.61-1.12-.62-1.14-1.14.62-1.12.61.36-1.22.15-.51.22-.74-.74-.22-.51-.15-1.22-.36,1.16-.63,1.1-.6h0s-.18-.34-.18-.34l-.44-.8-.61-1.12,1.22.36.51.15.74.22.22-.74.15-.51.36-1.22,1.23,2.26,1.14-.62h0s1.12-.61,1.12-.61l-.36,1.22-.15.51-.22.74.74.22.51.15,1.22.36-1.28.7-.31.17h0s-.68.37-.68.37l1.23,2.26-1.22-.36-.51-.15ZM34.45,36.15l-.73,2.5-2.46-.76-1.74-3.21.73-2.47,2.47.73,1.74,3.21ZM33.59,31.85l-1.23-2.26,2.26-1.23,3.5,1.03,1.25,2.29-2.28,1.21-3.5-1.04Z"/>
      <g>
        <rect class="cls-6" x="64.44" y="5.96" width="74.3" height="7.99"/>
        <g>
          <path class="cls-4" d="M67.39,12.06v-3.83h.54v3.83h-.54ZM67.73,10.43v-.51h2.13v.51h-2.13ZM69.57,12.06v-3.83h.54v3.83h-.54Z"/>
          <path class="cls-4" d="M71.59,8.23v3.83h-.54v-3.83h.54Z"/>
          <path class="cls-4" d="M73.83,10h1.33v.67c0,.29-.06.54-.17.75s-.27.38-.47.5-.44.18-.71.18-.51-.06-.71-.17c-.2-.11-.36-.27-.47-.47-.11-.2-.17-.44-.17-.71v-1.13c0-.29.06-.54.17-.75s.27-.38.47-.5.44-.18.71-.18c.22,0,.43.05.61.14.18.1.34.23.46.4s.21.37.25.6h-.58c-.05-.2-.15-.35-.29-.46-.14-.11-.29-.16-.46-.16-.24,0-.43.08-.58.25-.14.17-.22.39-.22.66v1.13c0,.25.07.45.22.6.15.15.34.23.58.23s.43-.08.57-.24c.14-.16.22-.38.22-.66v-.17h-.78v-.51Z"/>
          <path class="cls-4" d="M75.98,12.06v-3.83h.54v3.83h-.54ZM76.31,10.43v-.51h2.13v.51h-2.13ZM78.15,12.06v-3.83h.54v3.83h-.54Z"/>
          <path class="cls-4" d="M79.64,12.06v-3.83h.54v3.83h-.54ZM79.9,8.74v-.51h2.2v.51h-2.2ZM79.9,10.42v-.51h1.91v.51h-1.91ZM79.9,12.06v-.51h2.2v.51h-2.2Z"/>
          <path class="cls-4" d="M84.02,12.1c-.19,0-.36-.02-.53-.05s-.32-.09-.46-.16c-.14-.07-.28-.16-.4-.26l.33-.41c.15.13.31.22.48.28.17.06.37.1.57.1.28,0,.49-.05.65-.16.15-.1.23-.25.23-.43h0c0-.15-.04-.26-.12-.34-.08-.08-.18-.14-.3-.17-.13-.04-.26-.07-.41-.09-.14-.02-.29-.05-.44-.09-.15-.03-.28-.09-.41-.16s-.22-.17-.3-.31c-.08-.13-.11-.31-.11-.53h0c0-.36.12-.64.36-.83.24-.2.57-.29,1-.29.21,0,.41.03.6.1.2.07.39.17.57.3l-.31.43c-.15-.11-.29-.19-.44-.24-.14-.05-.29-.08-.44-.08-.26,0-.47.05-.61.16s-.22.25-.22.44h0c0,.15.04.26.13.33.08.08.19.13.33.17.14.04.28.07.44.1.14.03.28.06.42.1s.27.1.38.17c.12.07.21.18.28.31s.1.3.1.51h0c0,.36-.12.63-.37.82-.25.19-.59.29-1.04.29Z"/>
          <path class="cls-4" d="M85.66,8.74v-.51h2.7v.51h-2.7ZM86.75,12.06v-3.52h.54v3.52h-.54Z"/>
          <path class="cls-4" d="M91.53,10h1.33v.67c0,.29-.06.54-.17.75s-.27.38-.47.5-.44.18-.71.18-.51-.06-.71-.17c-.2-.11-.36-.27-.47-.47-.11-.2-.17-.44-.17-.71v-1.13c0-.29.06-.54.17-.75s.27-.38.47-.5.44-.18.71-.18c.22,0,.43.05.61.14.18.1.34.23.46.4s.21.37.25.6h-.58c-.05-.2-.15-.35-.29-.46-.14-.11-.29-.16-.46-.16-.24,0-.43.08-.58.25-.14.17-.22.39-.22.66v1.13c0,.25.07.45.22.6.15.15.34.23.58.23s.43-.08.57-.24c.14-.16.22-.38.22-.66v-.17h-.78v-.51Z"/>
          <path class="cls-4" d="M93.68,12.06v-3.83h.54v3.83h-.54ZM93.91,10.44v-.51h1.31c.16,0,.28-.05.38-.16.09-.11.14-.25.14-.43s-.05-.32-.14-.43c-.1-.11-.22-.16-.38-.16h-1.31v-.51h1.29c.22,0,.42.05.58.14s.3.22.39.39c.09.17.14.36.14.58s-.05.42-.14.58-.22.29-.39.39-.36.14-.58.14h-1.29ZM95.83,12.06l-.88-1.74.54-.12.98,1.86h-.64Z"/>
          <path class="cls-4" d="M96.69,12.06l1.41-3.83h.46l1.41,3.83h-.58l-1.06-3.09-1.06,3.09h-.58ZM97.35,11.22v-.51h2.02v.51h-2.02Z"/>
          <path class="cls-4" d="M100.56,12.06v-3.83h.54v3.83h-.54ZM100.92,12.06v-.51h.87c.28,0,.5-.07.66-.22.16-.15.23-.35.23-.62v-1.13c0-.27-.08-.47-.23-.62-.16-.15-.38-.22-.66-.22h-.87v-.51h.85c.46,0,.82.12,1.08.36.25.24.38.58.38,1.01v1.09c0,.29-.06.54-.17.74s-.28.36-.5.47-.48.16-.79.16h-.85Z"/>
          <path class="cls-4" d="M104.05,12.06v-3.83h.54v3.83h-.54ZM104.31,8.74v-.51h2.2v.51h-2.2ZM104.31,10.42v-.51h1.91v.51h-1.91ZM104.31,12.06v-.51h2.2v.51h-2.2Z"/>
          <path class="cls-4" d="M110.35,10.76l1.12-2.53h.5v3.83h-.52v-2.87l.03.17-.94,2.17h-.37l-.94-2.12.03-.22v2.87h-.52v-3.83h.5l1.13,2.53Z"/>
          <path class="cls-4" d="M112.51,12.06l1.41-3.83h.46l1.41,3.83h-.58l-1.06-3.09-1.06,3.09h-.58ZM113.16,11.22v-.51h2.02v.51h-2.02Z"/>
          <path class="cls-4" d="M115.74,8.74v-.51h2.7v.51h-2.7ZM116.82,12.06v-3.52h.54v3.52h-.54Z"/>
          <path class="cls-4" d="M118.97,12.06v-3.83h.54v3.83h-.54ZM119.23,8.74v-.51h2.2v.51h-2.2ZM119.23,10.42v-.51h1.91v.51h-1.91ZM119.23,12.06v-.51h2.2v.51h-2.2Z"/>
          <path class="cls-4" d="M122.2,12.06v-3.83h.54v3.83h-.54ZM122.43,10.44v-.51h1.31c.16,0,.28-.05.38-.16.09-.11.14-.25.14-.43s-.05-.32-.14-.43c-.1-.11-.22-.16-.38-.16h-1.31v-.51h1.29c.22,0,.42.05.58.14s.3.22.39.39c.09.17.14.36.14.58s-.05.42-.14.58-.22.29-.39.39-.36.14-.58.14h-1.29ZM124.35,12.06l-.88-1.74.54-.12.98,1.86h-.64Z"/>
          <path class="cls-4" d="M126.25,8.23v3.83h-.54v-3.83h.54Z"/>
          <path class="cls-4" d="M126.78,12.06l1.41-3.83h.46l1.41,3.83h-.58l-1.06-3.09-1.06,3.09h-.58ZM127.43,11.22v-.51h2.02v.51h-2.02Z"/>
          <path class="cls-4" d="M130.64,12.06v-3.83h.54v3.83h-.54ZM130.91,12.06v-.51h2.19v.51h-2.19Z"/>
          <path class="cls-4" d="M134.78,12.1c-.19,0-.36-.02-.53-.05s-.32-.09-.46-.16c-.14-.07-.28-.16-.4-.26l.33-.41c.15.13.31.22.48.28.17.06.37.1.57.1.28,0,.49-.05.65-.16.15-.1.23-.25.23-.43h0c0-.15-.04-.26-.12-.34-.08-.08-.18-.14-.3-.17-.13-.04-.26-.07-.41-.09-.14-.02-.29-.05-.44-.09-.15-.03-.28-.09-.41-.16s-.22-.17-.3-.31c-.08-.13-.11-.31-.11-.53h0c0-.36.12-.64.36-.83.24-.2.57-.29,1-.29.21,0,.41.03.6.1.2.07.39.17.57.3l-.31.43c-.15-.11-.29-.19-.44-.24-.14-.05-.29-.08-.44-.08-.26,0-.47.05-.61.16s-.22.25-.22.44h0c0,.15.04.26.13.33.08.08.19.13.33.17.14.04.28.07.44.1.14.03.28.06.42.1s.27.1.38.17c.12.07.21.18.28.31s.1.3.1.51h0c0,.36-.12.63-.37.82-.25.19-.59.29-1.04.29Z"/>
        </g>
      </g>
      <g>
        <path class="cls-1" d="M64.96,31.66v-14.56h2.03v14.56h-2.03ZM66.17,31.66v-1.89h3.95c1.08,0,1.85-.21,2.3-.62.45-.41.68-.96.68-1.63v-.03c0-.72-.19-1.3-.58-1.73-.38-.43-1.02-.65-1.9-.65h-4.45v-1.84h4.45c.75,0,1.32-.18,1.71-.54.38-.36.58-.88.58-1.57,0-.73-.21-1.27-.64-1.63-.43-.36-1.07-.54-1.92-.54h-4.17v-1.89h4.54c1.43,0,2.5.36,3.2,1.07s1.05,1.67,1.05,2.87c0,.73-.21,1.39-.64,2-.43.6-1.1.99-2.01,1.16.9.13,1.6.53,2.1,1.19s.75,1.42.75,2.27v.03c0,1.19-.38,2.15-1.15,2.87-.77.73-1.81,1.09-3.12,1.09h-4.71Z"/>
        <path class="cls-1" d="M82.26,31.81c-1.45,0-2.57-.4-3.37-1.21-.79-.81-1.19-1.96-1.19-3.45v-1.17c0-1.55.38-2.75,1.15-3.6.76-.85,1.84-1.27,3.23-1.27,1.31,0,2.32.48,3.04,1.44.72.96,1.08,2.31,1.08,4.05v.68h-7.01v-1.64h5.07c-.06-.84-.28-1.5-.66-1.97-.38-.47-.88-.71-1.52-.71-.77,0-1.37.25-1.79.76-.43.51-.64,1.23-.64,2.15v1.32c0,.86.23,1.52.69,1.98.46.46,1.1.69,1.93.69.41,0,.82-.08,1.23-.25s.77-.4,1.09-.7l1.34,1.34c-.51.49-1.09.88-1.73,1.15s-1.29.41-1.93.41Z"/>
        <path class="cls-1" d="M89,31.66v-10.4h2.04v10.4h-2.04ZM95.31,31.66v-6.3c0-.73-.19-1.3-.57-1.7-.38-.4-.91-.6-1.61-.6s-1.18.18-1.55.53-.55.85-.55,1.49l-.21-2c.32-.63.74-1.11,1.26-1.45.52-.34,1.09-.51,1.72-.51,1.13,0,2,.37,2.62,1.11.62.74.93,1.78.93,3.13v6.31h-2.04Z"/>
        <path class="cls-1" d="M104.65,31.81c-1.43,0-2.54-.39-3.32-1.18-.78-.79-1.18-1.9-1.18-3.33v-1.71c0-1.42.39-2.52,1.18-3.3.79-.78,1.89-1.17,3.32-1.17.81,0,1.55.14,2.2.43.65.29,1.18.7,1.56,1.23l-1.47,1.32c-.29-.33-.63-.59-1.02-.77-.39-.18-.81-.27-1.24-.27-.79,0-1.4.22-1.83.66-.43.44-.65,1.06-.65,1.86v1.71c0,.82.22,1.46.65,1.9s1.04.67,1.83.67c.43,0,.85-.1,1.24-.29.39-.19.73-.47,1.02-.82l1.47,1.42c-.39.52-.91.92-1.57,1.21-.66.28-1.39.43-2.2.43Z"/>
        <path class="cls-1" d="M110.67,31.66v-14.56h2.04v14.56h-2.04ZM116.98,31.66v-6.3c0-.73-.19-1.3-.57-1.7-.38-.4-.91-.6-1.61-.6s-1.18.17-1.55.52-.55.84-.55,1.47l-.21-2c.32-.61.74-1.09,1.26-1.43.52-.34,1.09-.51,1.72-.51,1.13,0,2,.37,2.62,1.11.62.74.93,1.78.93,3.13v6.31h-2.04Z"/>
        <path class="cls-1" d="M122.13,31.66v-10.4h2.04v10.4h-2.04ZM128.34,31.66v-6.3c0-.73-.18-1.3-.54-1.7-.36-.4-.87-.6-1.53-.6s-1.18.18-1.55.53-.55.85-.55,1.49l-.21-2c.32-.63.74-1.11,1.26-1.45.52-.34,1.09-.51,1.72-.51,1.09,0,1.94.37,2.54,1.11.6.74.9,1.78.9,3.13v6.31h-2.04ZM134.55,31.66v-6.3c0-.73-.19-1.3-.57-1.7-.38-.4-.91-.6-1.61-.6-.63,0-1.13.19-1.47.58-.35.39-.52.94-.52,1.64l-.41-2c.33-.69.77-1.23,1.3-1.6s1.12-.56,1.77-.56c1.13,0,2,.37,2.62,1.11.62.74.93,1.78.93,3.13v6.31h-2.04Z"/>
        <path class="cls-1" d="M143.02,31.81c-1.28,0-2.23-.26-2.87-.79-.64-.53-.96-1.33-.96-2.42s.29-1.81.88-2.32c.58-.51,1.46-.77,2.63-.77h2.95l.14,1.64h-3.08c-.53,0-.92.12-1.19.36-.27.24-.4.6-.4,1.09,0,.53.18.92.53,1.17.35.25.88.38,1.59.38.78,0,1.36-.08,1.74-.25.39-.17.58-.43.58-.78l.21,1.46c-.18.28-.4.51-.67.69-.27.18-.57.32-.92.41-.34.09-.73.14-1.17.14ZM145.57,31.66v-6.59c0-.68-.18-1.21-.55-1.59-.36-.38-.88-.57-1.55-.57-.41,0-.81.06-1.21.19-.4.12-.75.3-1.07.54l-1.49-1.02c.39-.47.91-.84,1.56-1.11s1.36-.4,2.15-.4c1.3,0,2.31.34,3.02,1.01s1.07,1.63,1.07,2.85v6.68h-1.94Z"/>
        <path class="cls-1" d="M150.62,31.66v-10.4h2.04v10.4h-2.04ZM156.33,23.73c-.18-.22-.41-.39-.68-.5-.27-.11-.59-.17-.95-.17-.65,0-1.15.18-1.51.54-.36.36-.54.85-.54,1.49l-.21-2c.31-.61.73-1.1,1.24-1.44s1.07-.52,1.69-.52c.47,0,.9.07,1.29.21s.72.34,1.01.61l-1.33,1.8Z"/>
        <path class="cls-1" d="M159.37,31.66v-14.56h2.04v14.56h-2.04ZM160.12,30.14l.13-2.42,5.35-6.45h2.4l-7.88,8.87ZM166.29,31.66l-3.63-6,1.31-1.36,4.54,7.36h-2.22Z"/>
      </g>
      <g>
        <path class="cls-4" d="M68.11,51.23c-.79,0-1.46-.16-2.02-.47-.56-.32-.99-.78-1.29-1.39-.3-.61-.45-1.34-.45-2.19v-8.09c0-.87.15-1.6.45-2.2.3-.6.73-1.06,1.29-1.38.56-.32,1.23-.48,2.02-.48s1.48.16,2.04.48c.56.32.98.78,1.28,1.39.29.6.44,1.34.44,2.19v.97h-2.42v-.97c0-.36-.05-.66-.15-.91-.1-.25-.25-.44-.45-.57s-.44-.2-.73-.2c-.42,0-.75.15-.98.44-.23.29-.35.71-.35,1.24v8.09c0,.53.12.94.35,1.23.23.29.56.44.98.44s.77-.15.99-.44c.22-.29.34-.71.34-1.24v-.97h2.42v.97c0,.87-.16,1.6-.45,2.2s-.72,1.06-1.27,1.38c-.56.32-1.24.48-2.04.48Z"/>
        <path class="cls-4" d="M77.27,51.23c-.84,0-1.57-.15-2.17-.46s-1.06-.75-1.37-1.32c-.31-.58-.47-1.27-.47-2.09v-8.47c0-.82.16-1.52.47-2.1.31-.57.77-1.01,1.37-1.32.6-.3,1.32-.45,2.17-.45s1.57.15,2.17.45c.6.3,1.06.74,1.37,1.32.31.58.47,1.27.47,2.1v8.47c0,.81-.16,1.51-.47,2.09-.31.57-.77,1.02-1.37,1.32s-1.32.46-2.17.46ZM77.27,48.87c.51,0,.9-.14,1.18-.43.28-.29.42-.69.42-1.21v-8.22c0-.52-.14-.92-.42-1.2-.28-.28-.67-.43-1.18-.43s-.9.14-1.18.43c-.28.28-.42.68-.42,1.2v8.22c0,.52.14.92.42,1.21.28.29.67.43,1.18.43Z"/>
        <path class="cls-4" d="M83.11,51.05v-15.86h1.98l4.04,11.39-.32.35v-11.74h2.23v15.86h-2l-4.01-10.89.32-.36v11.25h-2.24Z"/>
        <path class="cls-4" d="M96.85,51.23c-.83,0-1.54-.15-2.12-.45s-1.03-.73-1.34-1.3c-.31-.57-.46-1.26-.46-2.07v-.82l2.38-.02v.79c0,.49.13.87.4,1.14.27.27.65.4,1.14.4s.84-.13,1.1-.4c.26-.27.39-.64.39-1.13v-1.39c0-.38-.1-.69-.31-.93-.2-.24-.47-.46-.8-.64s-.69-.36-1.08-.55c-.37-.17-.75-.37-1.12-.6s-.73-.49-1.04-.8c-.32-.31-.57-.69-.76-1.14s-.28-1-.28-1.66v-.86c0-1.21.34-2.14,1.01-2.79.67-.66,1.63-.98,2.88-.98s2.14.33,2.81.99c.66.66,1,1.6,1,2.82v.86l-2.39.02v-.82c0-.5-.12-.89-.37-1.15-.25-.27-.6-.4-1.05-.4-.49,0-.86.13-1.11.38s-.38.6-.38,1.04v1.03c0,.42.11.76.34,1.02s.52.48.88.66.74.38,1.15.58c.36.17.71.35,1.06.55.35.2.68.44.97.72.29.28.53.64.71,1.07.18.43.27.97.27,1.62v1.39c0,1.23-.34,2.18-1.01,2.84-.67.66-1.63.99-2.87.99Z"/>
        <path class="cls-4" d="M101.64,37.47v-2.28h7.84v2.28h-7.84ZM104.37,51.06v-14.57h2.38v14.57h-2.38Z"/>
        <path class="cls-4" d="M110.87,51.06v-15.89h2.37v15.89h-2.37ZM111.97,44.35v-2.28h2.9c.46,0,.81-.12,1.06-.37.25-.25.38-.59.39-1.04v-1.69c0-.47-.13-.84-.38-1.11-.25-.27-.61-.4-1.07-.4h-2.9v-2.28h2.73c.85,0,1.58.14,2.18.42.6.28,1.07.69,1.39,1.23s.48,1.19.48,1.95v1.86c0,.79-.16,1.46-.48,2.01s-.78.98-1.39,1.27c-.6.29-1.33.44-2.18.44h-2.73ZM116.6,51.06l-2.16-7.21,2.22-.5,2.54,7.71h-2.6Z"/>
        <path class="cls-4" d="M124.1,51.23c-1.18,0-2.09-.33-2.74-1-.64-.67-.97-1.62-.97-2.86v-12.17h2.4v12.25c0,.46.12.81.34,1.05.23.24.55.37.96.37s.75-.12.98-.37c.23-.24.34-.6.34-1.05v-12.25h2.4v12.17c0,1.24-.32,2.19-.97,2.86-.65.67-1.56,1-2.75,1Z"/>
        <path class="cls-4" d="M133.05,51.23c-.79,0-1.46-.16-2.02-.47-.56-.32-.99-.78-1.29-1.39-.3-.61-.45-1.34-.45-2.19v-8.09c0-.87.15-1.6.45-2.2.3-.6.73-1.06,1.29-1.38.56-.32,1.23-.48,2.02-.48s1.48.16,2.04.48c.56.32.98.78,1.28,1.39.29.6.44,1.34.44,2.19v.97h-2.42v-.97c0-.36-.05-.66-.15-.91-.1-.25-.25-.44-.45-.57s-.44-.2-.73-.2c-.42,0-.75.15-.98.44-.23.29-.35.71-.35,1.24v8.09c0,.53.12.94.35,1.23.23.29.56.44.98.44s.77-.15.99-.44c.22-.29.34-.71.34-1.24v-.97h2.42v.97c0,.87-.16,1.6-.45,2.2s-.72,1.06-1.27,1.38c-.56.32-1.24.48-2.04.48Z"/>
        <path class="cls-4" d="M137.55,37.47v-2.28h7.84v2.28h-7.84ZM140.28,51.06v-14.57h2.38v14.57h-2.38Z"/>
        <path class="cls-4" d="M149.07,35.19v15.88h-2.4v-15.88h2.4Z"/>
        <path class="cls-4" d="M155.01,51.23c-.84,0-1.57-.15-2.17-.46s-1.06-.75-1.37-1.32c-.31-.58-.47-1.27-.47-2.09v-8.47c0-.82.16-1.52.47-2.1.31-.57.77-1.01,1.37-1.32.6-.3,1.32-.45,2.17-.45s1.57.15,2.17.45c.6.3,1.06.74,1.37,1.32.31.58.47,1.27.47,2.1v8.47c0,.81-.16,1.51-.47,2.09-.31.57-.77,1.02-1.37,1.32s-1.32.46-2.17.46ZM155.01,48.87c.51,0,.9-.14,1.18-.43.28-.29.42-.69.42-1.21v-8.22c0-.52-.14-.92-.42-1.2-.28-.28-.67-.43-1.18-.43s-.9.14-1.18.43c-.28.28-.42.68-.42,1.2v8.22c0,.52.14.92.42,1.21.28.29.67.43,1.18.43Z"/>
        <path class="cls-4" d="M160.85,51.05v-15.86h1.98l4.04,11.39-.32.35v-11.74h2.23v15.86h-2l-4.01-10.89.32-.36v11.25h-2.24Z"/>
      </g>
    </g>
  </g>
</svg>