<svg xmlns="http://www.w3.org/2000/svg" viewBox="0 0 295.51 45.64"><defs><style>.cls-1{fill:#318387;}.cls-2{fill:#e2c366;}</style></defs><g id="Layer_2" data-name="Layer 2"><g id="Layer_1-2" data-name="Layer 1"><path class="cls-1" d="M104.85,13.85l-1.72-2.49h-1.91v2.49H99.15V4.9H103a4.85,4.85,0,0,1,2.06.4,3.12,3.12,0,0,1,1.35,1.12,3.15,3.15,0,0,1,.47,1.73,3.07,3.07,0,0,1-.48,1.72,3,3,0,0,1-1.36,1.1l2,2.88ZM104.33,7a2.17,2.17,0,0,0-1.42-.4h-1.69V9.71h1.69a2.17,2.17,0,0,0,1.42-.41,1.45,1.45,0,0,0,.49-1.15A1.43,1.43,0,0,0,104.33,7Z"/><path class="cls-1" d="M115.16,12.19v1.66h-6.93V4.9H115V6.56h-4.7V8.5h4.15v1.62h-4.15v2.07Z"/><path class="cls-1" d="M117.37,13.71a4.9,4.9,0,0,1-1.59-.74l.71-1.56a4.67,4.67,0,0,0,1.36.67,5.19,5.19,0,0,0,1.59.26,2.56,2.56,0,0,0,1.3-.26.8.8,0,0,0,.42-.7.66.66,0,0,0-.25-.53,2,2,0,0,0-.63-.34c-.26-.08-.62-.18-1.06-.28a12.51,12.51,0,0,1-1.67-.49A2.72,2.72,0,0,1,116.43,9,2.13,2.13,0,0,1,116,7.53a2.49,2.49,0,0,1,.42-1.41,2.8,2.8,0,0,1,1.28-1,5.08,5.08,0,0,1,2.07-.37,7.28,7.28,0,0,1,1.68.2,5,5,0,0,1,1.43.59l-.64,1.57a5,5,0,0,0-2.48-.7,2.33,2.33,0,0,0-1.29.28.87.87,0,0,0-.41.74.71.71,0,0,0,.48.68,7.83,7.83,0,0,0,1.46.45,15.3,15.3,0,0,1,1.68.48,2.85,2.85,0,0,1,1.12.77,2.06,2.06,0,0,1,.46,1.42,2.41,2.41,0,0,1-.43,1.4,2.86,2.86,0,0,1-1.28,1,5.19,5.19,0,0,1-2.08.37A7.07,7.07,0,0,1,117.37,13.71Z"/><path class="cls-1" d="M124.32,4.9h2.07v9h-2.07Z"/><path class="cls-1" d="M128.19,4.9h4.07a5.69,5.69,0,0,1,2.57.56A4.13,4.13,0,0,1,136.57,7a4.37,4.37,0,0,1,.62,2.35,4.38,4.38,0,0,1-.62,2.36,4.13,4.13,0,0,1-1.74,1.56,5.69,5.69,0,0,1-2.57.56h-4.07Zm4,7.25a3,3,0,0,0,2.14-.75,2.65,2.65,0,0,0,.8-2,2.64,2.64,0,0,0-.8-2,3,3,0,0,0-2.14-.75h-1.9v5.55Z"/><path class="cls-1" d="M145.36,12.19v1.66h-6.93V4.9h6.76V6.56h-4.7V8.5h4.15v1.62h-4.15v2.07Z"/><path class="cls-1" d="M154.9,4.9v9h-1.7l-4.46-5.43v5.43h-2.05V4.9h1.71l4.45,5.43V4.9Z"/><path class="cls-1" d="M158.55,6.59h-2.86V4.9h7.8V6.59h-2.87v7.26h-2.07Z"/><path class="cls-1" d="M164.28,4.9h2.07v9h-2.07Z"/><path class="cls-1" d="M174,11.93h-4.15l-.79,1.92H167l4-8.95h2l4,9h-2.17Zm-.65-1.57L172,6.93l-1.42,3.43Z"/><path class="cls-1" d="M177.62,4.9h2.07v7.26h4.49v1.69h-6.56Z"/><path class="cls-1" d="M195.2,14l-1.08-1a5,5,0,0,1-4.74.69,2.81,2.81,0,0,1-1.22-.88,2,2,0,0,1-.44-1.26,2.37,2.37,0,0,1,.47-1.47,4.58,4.58,0,0,1,1.5-1.2,3.46,3.46,0,0,1-.7-1,2.06,2.06,0,0,1-.22-.94,2,2,0,0,1,.34-1.15,2.24,2.24,0,0,1,1-.77,3.69,3.69,0,0,1,1.46-.27,2.93,2.93,0,0,1,1.87.55,1.8,1.8,0,0,1,.7,1.5,1.94,1.94,0,0,1-.41,1.23,4.26,4.26,0,0,1-1.34,1L194,10.63a6.57,6.57,0,0,0,.45-1.4l1.59.5a5.91,5.91,0,0,1-.81,2l1,1ZM193,11.92l-2.16-2a2.79,2.79,0,0,0-.86.68,1.19,1.19,0,0,0-.25.75.93.93,0,0,0,.43.8,1.94,1.94,0,0,0,1.16.31A2.84,2.84,0,0,0,193,11.92Zm-2.1-5.55a.74.74,0,0,0-.27.59,1,1,0,0,0,.14.5,4,4,0,0,0,.55.64,3.57,3.57,0,0,0,.91-.62.9.9,0,0,0,.26-.6.71.71,0,0,0-.23-.54,1,1,0,0,0-.66-.2A1,1,0,0,0,190.85,6.37Z"/><path class="cls-1" d="M202.41,13.41a4.45,4.45,0,0,1-2.37-4A4.55,4.55,0,0,1,200.67,7a4.6,4.6,0,0,1,1.74-1.65,5.26,5.26,0,0,1,2.49-.59,5.08,5.08,0,0,1,2.1.41,4.11,4.11,0,0,1,1.58,1.17l-1.33,1.23a2.84,2.84,0,0,0-2.25-1,2.9,2.9,0,0,0-1.48.37,2.61,2.61,0,0,0-1,1,3,3,0,0,0-.36,1.48,3,3,0,0,0,.36,1.49,2.61,2.61,0,0,0,1,1,2.9,2.9,0,0,0,1.48.37,2.85,2.85,0,0,0,2.25-1.06l1.33,1.22A4.06,4.06,0,0,1,207,13.59a5.33,5.33,0,0,1-2.11.41A5.22,5.22,0,0,1,202.41,13.41Z"/><path class="cls-1" d="M211.28,13.4a4.49,4.49,0,0,1-1.75-1.65,4.58,4.58,0,0,1-.63-2.38A4.57,4.57,0,0,1,209.53,7a4.49,4.49,0,0,1,1.75-1.65,5.27,5.27,0,0,1,2.52-.6,5.16,5.16,0,0,1,2.5.6,4.47,4.47,0,0,1,2.39,4,4.47,4.47,0,0,1-2.39,4,5.16,5.16,0,0,1-2.5.6A5.27,5.27,0,0,1,211.28,13.4Zm3.95-1.53a2.62,2.62,0,0,0,1-1,3.17,3.17,0,0,0,0-3,2.62,2.62,0,0,0-1-1,2.8,2.8,0,0,0-1.43-.37,2.75,2.75,0,0,0-1.43.37,2.58,2.58,0,0,0-1,1A3,3,0,0,0,211,9.37a3,3,0,0,0,.36,1.49,2.58,2.58,0,0,0,1,1,2.75,2.75,0,0,0,1.43.37A2.8,2.8,0,0,0,215.23,11.87Z"/><path class="cls-1" d="M228.07,13.85V8.48l-2.63,4.42h-.94l-2.62-4.31v5.26h-1.94V4.9h1.71L225,10.46l3.3-5.56H230l0,9Z"/><path class="cls-1" d="M240,13.85V8.48l-2.63,4.42h-.94l-2.62-4.31v5.26h-1.94V4.9h1.71l3.35,5.56,3.3-5.56h1.7l0,9Z"/><path class="cls-1" d="M250.63,12.19v1.66h-6.92V4.9h6.76V6.56h-4.71V8.5h4.16v1.62h-4.16v2.07Z"/><path class="cls-1" d="M257.66,13.85l-1.72-2.49H254v2.49H252V4.9h3.88a4.85,4.85,0,0,1,2.06.4,3.12,3.12,0,0,1,1.35,1.12,3.15,3.15,0,0,1,.47,1.73,3.07,3.07,0,0,1-.48,1.72,3,3,0,0,1-1.36,1.1l2,2.88ZM257.14,7a2.17,2.17,0,0,0-1.42-.4H254V9.71h1.69a2.17,2.17,0,0,0,1.42-.41,1.45,1.45,0,0,0,.49-1.15A1.43,1.43,0,0,0,257.14,7Z"/><path class="cls-1" d="M262.85,13.41a4.46,4.46,0,0,1-1.74-1.65,4.59,4.59,0,0,1-.63-2.39A4.55,4.55,0,0,1,261.11,7a4.46,4.46,0,0,1,1.74-1.65,5.19,5.19,0,0,1,2.48-.59,5.13,5.13,0,0,1,2.11.41A4.27,4.27,0,0,1,269,6.33l-1.33,1.23a2.87,2.87,0,0,0-2.25-1,2.94,2.94,0,0,0-1.49.37,2.58,2.58,0,0,0-1,1,2.93,2.93,0,0,0-.37,1.48,2.94,2.94,0,0,0,.37,1.49,2.58,2.58,0,0,0,1,1,2.94,2.94,0,0,0,1.49.37,2.88,2.88,0,0,0,2.25-1.06L269,12.4a4.17,4.17,0,0,1-1.59,1.19,5.29,5.29,0,0,1-2.11.41A5.18,5.18,0,0,1,262.85,13.41Z"/><path class="cls-1" d="M270.09,4.9h2.07v9h-2.07Z"/><path class="cls-1" d="M279.85,11.93H275.7l-.79,1.92h-2.13l4-8.95h2.05l4,9h-2.17Zm-.65-1.57-1.42-3.43-1.42,3.43Z"/><path class="cls-1" d="M283.43,4.9h2.07v7.26H290v1.69h-6.56Z"/><rect class="cls-1" width="93.13" height="30.25"/><path class="cls-1" d="M294.83.68V29.57H92.34V.68H294.83m.68-.68H91.66V30.25H295.51V0Z"/><path class="cls-2" d="M18.23,19.7v2.05H8.63V20.13l5.17-4.91A5.59,5.59,0,0,0,15,13.76a2.74,2.74,0,0,0,.31-1.24,1.69,1.69,0,0,0-.61-1.39,2.91,2.91,0,0,0-1.81-.49,3.65,3.65,0,0,0-3,1.36L8.13,10.7a5,5,0,0,1,2-1.59,7.15,7.15,0,0,1,2.9-.57,5.28,5.28,0,0,1,3.38,1,3.31,3.31,0,0,1,1.27,2.73,4.5,4.5,0,0,1-.45,2,7.81,7.81,0,0,1-1.71,2.12L12.09,19.7Z"/><path class="cls-2" d="M24.57,6.09h2.08L20.52,23.61H18.43Z"/><path class="cls-2" d="M35,15.33a3.53,3.53,0,0,1,1,2.51,3.8,3.8,0,0,1-.58,2.07,3.89,3.89,0,0,1-1.73,1.47,6.6,6.6,0,0,1-2.84.55,8.94,8.94,0,0,1-2.69-.4,6.78,6.78,0,0,1-2.2-1.1l1-1.88a5.16,5.16,0,0,0,1.72.94,6.45,6.45,0,0,0,2.09.34,3.34,3.34,0,0,0,2-.53,1.8,1.8,0,0,0,0-2.86,3.64,3.64,0,0,0-2.13-.51H29.5V14.27l3-3.51H26.54v-2h8.87v1.62L32.25,14.1A4.39,4.39,0,0,1,35,15.33Z"/><path class="cls-2" d="M54.53,16.16a3.29,3.29,0,0,1,.63,2.05,3,3,0,0,1-1.3,2.62,6.56,6.56,0,0,1-3.79.92H43.59v-13H49.7a6,6,0,0,1,3.55.9,2.89,2.89,0,0,1,1.24,2.48,3.3,3.3,0,0,1-.44,1.71A3.12,3.12,0,0,1,52.82,15,3.4,3.4,0,0,1,54.53,16.16ZM46,10.63v3.59h3.42a3.51,3.51,0,0,0,2-.46,1.51,1.51,0,0,0,.68-1.33,1.53,1.53,0,0,0-.68-1.35,3.52,3.52,0,0,0-2-.45ZM52.73,18c0-1.25-.94-1.88-2.81-1.88H46v3.76h3.91C51.79,19.85,52.73,19.22,52.73,18Z"/><path class="cls-2" d="M69.32,8.73v13H66.9V16.17H60.16v5.58H57.75v-13h2.41V14.1H66.9V8.73Z"/><path class="cls-2" d="M77.29,16.3l-2.06,2.12v3.33H72.81v-13h2.42v6.68l6.43-6.68h2.72l-5.47,5.82,5.8,7.2H81.89Z"/><path class="cls-1" d="M2.57,42.76a3.41,3.41,0,0,1-.85-2.5V36H2.81v4.27c0,1.63.71,2.44,2.13,2.44a2.07,2.07,0,0,0,1.6-.6,2.65,2.65,0,0,0,.55-1.84V36H8.14v4.31a3.38,3.38,0,0,1-.85,2.5,3.13,3.13,0,0,1-2.36.87A3.13,3.13,0,0,1,2.57,42.76Z"/><path class="cls-1" d="M9.94,35.49h1v8h-1Z"/><path class="cls-1" d="M16.07,43.2a1.63,1.63,0,0,1-.57.3,2.26,2.26,0,0,1-.69.1,1.86,1.86,0,0,1-1.35-.46A1.82,1.82,0,0,1,13,41.8V38.65H12v-.86h1V36.53h1v1.26h1.65v.86H14v3.11a1.05,1.05,0,0,0,.23.72.91.91,0,0,0,.67.25,1.24,1.24,0,0,0,.81-.28Z"/><path class="cls-1" d="M18.85,38a2.86,2.86,0,0,1,1.29-.26v1h-.23a1.73,1.73,0,0,0-1.33.5,2,2,0,0,0-.49,1.44v2.86h-1V37.79h1v1A1.73,1.73,0,0,1,18.85,38Z"/><path class="cls-1" d="M25.06,38.32a2.29,2.29,0,0,1,.64,1.75v3.47h-1v-.76a1.65,1.65,0,0,1-.74.61,2.91,2.91,0,0,1-1.15.21,2.38,2.38,0,0,1-1.54-.46,1.49,1.49,0,0,1-.58-1.23,1.51,1.51,0,0,1,.55-1.22A2.71,2.71,0,0,1,23,40.23h1.64V40a1.31,1.31,0,0,0-.39-1,1.63,1.63,0,0,0-1.15-.36,2.79,2.79,0,0,0-1,.17,2.54,2.54,0,0,0-.83.45l-.43-.79a3.21,3.21,0,0,1,1.06-.54,4.32,4.32,0,0,1,1.31-.19A2.59,2.59,0,0,1,25.06,38.32Zm-1,4.22a1.56,1.56,0,0,0,.62-.76V41h-1.6c-.88,0-1.32.3-1.32.89a.8.8,0,0,0,.33.68,1.53,1.53,0,0,0,.93.25A2,2,0,0,0,24,42.54Z"/><path class="cls-1" d="M30.71,43.36a3.44,3.44,0,0,1-1.25-.69l.4-.85a3.15,3.15,0,0,0,1.11.64,4.15,4.15,0,0,0,1.39.24,2.45,2.45,0,0,0,1.41-.32,1,1,0,0,0,.47-.85A.83.83,0,0,0,34,40.9a1.85,1.85,0,0,0-.62-.38c-.25-.08-.61-.18-1.06-.29a10.9,10.9,0,0,1-1.38-.41,2.16,2.16,0,0,1-.9-.64A1.68,1.68,0,0,1,29.64,38a2,2,0,0,1,.32-1.1,2.27,2.27,0,0,1,1-.78,4,4,0,0,1,1.62-.29,5.31,5.31,0,0,1,1.32.17,3.84,3.84,0,0,1,1.12.5l-.36.87a4.26,4.26,0,0,0-1-.46,4,4,0,0,0-1.06-.16,2.39,2.39,0,0,0-1.39.34,1,1,0,0,0-.46.87.83.83,0,0,0,.26.63,1.89,1.89,0,0,0,.65.38,9.51,9.51,0,0,0,1,.29A10.21,10.21,0,0,1,34,39.7a2.37,2.37,0,0,1,.9.63,1.65,1.65,0,0,1,.37,1.14A2,2,0,0,1,35,42.56a2.19,2.19,0,0,1-1,.78,4.1,4.1,0,0,1-1.63.29A5.1,5.1,0,0,1,30.71,43.36Z"/><path class="cls-1" d="M41,38.11a2.58,2.58,0,0,1,1,1,3,3,0,0,1,.37,1.52A3.11,3.11,0,0,1,42,42.2a2.58,2.58,0,0,1-1,1,3,3,0,0,1-1.49.37,2.71,2.71,0,0,1-1.14-.24,2.32,2.32,0,0,1-.87-.69v3h-1V37.79h1v.91a2.13,2.13,0,0,1,.88-.72,2.78,2.78,0,0,1,1.17-.24A3,3,0,0,1,41,38.11Zm-.59,4.33a1.8,1.8,0,0,0,.7-.72,2.35,2.35,0,0,0,0-2.11,1.71,1.71,0,0,0-.7-.71,2.07,2.07,0,0,0-2,0,1.88,1.88,0,0,0-.69.71,2.31,2.31,0,0,0,0,2.11,1.84,1.84,0,0,0,.69.72,2,2,0,0,0,1,.25A1.92,1.92,0,0,0,40.41,42.44Z"/><path class="cls-1" d="M47.45,38.32a2.29,2.29,0,0,1,.64,1.75v3.47h-1v-.76a1.6,1.6,0,0,1-.74.61,2.91,2.91,0,0,1-1.15.21,2.38,2.38,0,0,1-1.54-.46,1.49,1.49,0,0,1-.58-1.23,1.51,1.51,0,0,1,.55-1.22,2.71,2.71,0,0,1,1.76-.46H47V40a1.31,1.31,0,0,0-.39-1,1.63,1.63,0,0,0-1.15-.36,2.79,2.79,0,0,0-1,.17,2.54,2.54,0,0,0-.83.45l-.43-.79a3.21,3.21,0,0,1,1.06-.54,4.32,4.32,0,0,1,1.31-.19A2.59,2.59,0,0,1,47.45,38.32Zm-1,4.22a1.56,1.56,0,0,0,.62-.76V41h-1.6c-.88,0-1.32.3-1.32.89a.8.8,0,0,0,.33.68,1.54,1.54,0,0,0,.94.25A2,2,0,0,0,46.42,42.54Z"/><path class="cls-1" d="M50.71,43.22a2.81,2.81,0,0,1-1.07-1,3.07,3.07,0,0,1,0-3,2.81,2.81,0,0,1,1.07-1,3.25,3.25,0,0,1,1.57-.37,3,3,0,0,1,1.39.31,2.26,2.26,0,0,1,.95.91l-.79.51a1.8,1.8,0,0,0-.67-.62,2.12,2.12,0,0,0-1.9,0,1.73,1.73,0,0,0-.71.71,2.37,2.37,0,0,0,0,2.12,1.73,1.73,0,0,0,.71.71,2.12,2.12,0,0,0,1.9.05,1.8,1.8,0,0,0,.67-.62l.79.5a2.26,2.26,0,0,1-.95.91,2.85,2.85,0,0,1-1.39.32A3.15,3.15,0,0,1,50.71,43.22Z"/><path class="cls-1" d="M55.71,36.49a.66.66,0,0,1-.2-.48.67.67,0,0,1,.2-.48.71.71,0,0,1,.51-.2.68.68,0,0,1,.5.19.6.6,0,0,1,.2.47.66.66,0,0,1-.2.5.69.69,0,0,1-.5.2A.71.71,0,0,1,55.71,36.49Zm0,1.3h1v5.75h-1Z"/><path class="cls-1" d="M59.37,43.22a2.81,2.81,0,0,1-1.07-1,3.21,3.21,0,0,1,0-3,2.81,2.81,0,0,1,1.07-1,3.39,3.39,0,0,1,3.08,0,2.79,2.79,0,0,1,1.06,1,3.21,3.21,0,0,1,0,3,2.79,2.79,0,0,1-1.06,1,3.31,3.31,0,0,1-3.08,0Zm2.53-.78a1.71,1.71,0,0,0,.69-.72,2.35,2.35,0,0,0,0-2.11,1.63,1.63,0,0,0-.69-.71,2.09,2.09,0,0,0-2,0,1.75,1.75,0,0,0-.69.71,2.27,2.27,0,0,0,0,2.11,1.84,1.84,0,0,0,.69.72,2.09,2.09,0,0,0,2,0Z"/><path class="cls-1" d="M70.42,37.79v5.75h-1v-.87a2,2,0,0,1-.82.69,2.66,2.66,0,0,1-1.13.24A2.52,2.52,0,0,1,65.67,43,2.48,2.48,0,0,1,65,41.1V37.79h1V41a1.8,1.8,0,0,0,.4,1.26,1.49,1.49,0,0,0,1.15.43,1.72,1.72,0,0,0,1.3-.5,1.94,1.94,0,0,0,.48-1.41v-3Z"/><path class="cls-1" d="M72.43,43.41a2.69,2.69,0,0,1-1-.48l.43-.82a3.14,3.14,0,0,0,.92.43,3.75,3.75,0,0,0,1.1.16c.91,0,1.36-.26,1.36-.78a.51.51,0,0,0-.18-.41,1.23,1.23,0,0,0-.46-.22c-.19,0-.45-.1-.79-.16a6.7,6.7,0,0,1-1.13-.25,1.67,1.67,0,0,1-.75-.48,1.3,1.3,0,0,1-.32-.94,1.47,1.47,0,0,1,.65-1.25A2.9,2.9,0,0,1,74,37.74a4.58,4.58,0,0,1,1.15.14,3,3,0,0,1,.94.38l-.44.82A3,3,0,0,0,74,38.63a2,2,0,0,0-1,.21.67.67,0,0,0-.35.58.54.54,0,0,0,.2.44,1.21,1.21,0,0,0,.48.24c.19,0,.46.11.81.17a9.05,9.05,0,0,1,1.12.26A1.6,1.6,0,0,1,76,41a1.3,1.3,0,0,1,.31.91,1.44,1.44,0,0,1-.67,1.24,3.14,3.14,0,0,1-1.82.46A4.64,4.64,0,0,1,72.43,43.41Z"/><path class="cls-1" d="M84.49,38.11a2.62,2.62,0,0,1,1,1,3,3,0,0,1,.37,1.52,3.11,3.11,0,0,1-.37,1.54,2.62,2.62,0,0,1-1,1,3,3,0,0,1-1.5.37,2.63,2.63,0,0,1-1.13-.24,2.28,2.28,0,0,1-.88-.69v3h-1V37.79h1v.91a2.13,2.13,0,0,1,.88-.72A2.78,2.78,0,0,1,83,37.74,3,3,0,0,1,84.49,38.11Zm-.6,4.33a1.8,1.8,0,0,0,.7-.72,2.35,2.35,0,0,0,0-2.11,1.71,1.71,0,0,0-.7-.71,2.07,2.07,0,0,0-2,0,1.88,1.88,0,0,0-.69.71,2.31,2.31,0,0,0,0,2.11,1.84,1.84,0,0,0,.69.72,2,2,0,0,0,1,.25A1.92,1.92,0,0,0,83.89,42.44Z"/><path class="cls-1" d="M88.87,38a2.8,2.8,0,0,1,1.29-.26v1h-.24a1.73,1.73,0,0,0-1.33.5,2,2,0,0,0-.48,1.44v2.86h-1V37.79h1v1A1.71,1.71,0,0,1,88.87,38Z"/><path class="cls-1" d="M96.28,41H91.62a1.78,1.78,0,0,0,.67,1.22A2.36,2.36,0,0,0,95.36,42l.57.67a2.43,2.43,0,0,1-1,.69,3.3,3.3,0,0,1-1.29.24,3.4,3.4,0,0,1-1.62-.37,2.69,2.69,0,0,1-1.09-1,3.23,3.23,0,0,1,0-3,2.67,2.67,0,0,1,1-1,2.93,2.93,0,0,1,1.48-.37,2.87,2.87,0,0,1,1.47.37,2.62,2.62,0,0,1,1,1,3.21,3.21,0,0,1,.36,1.54A1.9,1.9,0,0,1,96.28,41Zm-4.07-1.94a1.82,1.82,0,0,0-.59,1.19h3.69a1.83,1.83,0,0,0-.6-1.18,1.76,1.76,0,0,0-1.25-.46A1.81,1.81,0,0,0,92.21,39.07Z"/><path class="cls-1" d="M106.38,38.37a2.53,2.53,0,0,1,.64,1.86v3.31h-1V40.35a1.79,1.79,0,0,0-.38-1.26,1.42,1.42,0,0,0-1.1-.42,1.64,1.64,0,0,0-1.26.49,2,2,0,0,0-.46,1.42v3h-1V40.35a1.79,1.79,0,0,0-.38-1.26,1.42,1.42,0,0,0-1.1-.42,1.64,1.64,0,0,0-1.26.49,2,2,0,0,0-.47,1.42v3h-1V37.79h1v.86A2,2,0,0,1,99.3,38a2.82,2.82,0,0,1,1.16-.23,2.57,2.57,0,0,1,1.19.27,1.9,1.9,0,0,1,.8.79,2.25,2.25,0,0,1,.91-.78,2.89,2.89,0,0,1,1.3-.28A2.32,2.32,0,0,1,106.38,38.37Z"/><path class="cls-1" d="M108.68,36.49a.66.66,0,0,1-.2-.48.67.67,0,0,1,.2-.48.75.75,0,0,1,1,0,.63.63,0,0,1,.2.47.7.7,0,0,1-.2.5.69.69,0,0,1-.51.2A.69.69,0,0,1,108.68,36.49Zm0,1.3h1v5.75h-1Z"/><path class="cls-1" d="M116.77,37.79v5.75h-1v-.87a2.07,2.07,0,0,1-.83.69,2.62,2.62,0,0,1-1.12.24A2.51,2.51,0,0,1,112,43a2.44,2.44,0,0,1-.67-1.87V37.79h1V41a1.75,1.75,0,0,0,.4,1.26,1.47,1.47,0,0,0,1.15.43,1.74,1.74,0,0,0,1.3-.5,2,2,0,0,0,.47-1.41v-3Z"/><path class="cls-1" d="M127.4,38.37a2.52,2.52,0,0,1,.63,1.86v3.31h-1V40.35a1.79,1.79,0,0,0-.39-1.26,1.4,1.4,0,0,0-1.1-.42,1.67,1.67,0,0,0-1.26.49,2,2,0,0,0-.46,1.42v3h-1V40.35a1.79,1.79,0,0,0-.39-1.26,1.4,1.4,0,0,0-1.1-.42,1.66,1.66,0,0,0-1.26.49,2,2,0,0,0-.46,1.42v3h-1V37.79h1v.86a2,2,0,0,1,.82-.68,2.86,2.86,0,0,1,1.16-.23,2.52,2.52,0,0,1,1.19.27,1.8,1.8,0,0,1,.8.79,2.25,2.25,0,0,1,.91-.78,2.93,2.93,0,0,1,1.31-.28A2.35,2.35,0,0,1,127.4,38.37Z"/><path class="cls-1" d="M133.49,37.29v.5h1.67v.86h-1.64v4.89h-1.05V38.65h-1v-.86h1v-.51a1.83,1.83,0,0,1,.5-1.35,1.88,1.88,0,0,1,1.4-.5,2.69,2.69,0,0,1,.65.08,1.8,1.8,0,0,1,.52.25l-.31.8a1.26,1.26,0,0,0-.8-.28C133.8,36.28,133.49,36.62,133.49,37.29Zm2.66-1.8h1v8h-1Z"/><path class="cls-1" d="M142.82,38.32a2.25,2.25,0,0,1,.64,1.75v3.47h-1v-.76a1.6,1.6,0,0,1-.74.61,2.85,2.85,0,0,1-1.15.21,2.39,2.39,0,0,1-1.54-.46,1.49,1.49,0,0,1-.58-1.23,1.51,1.51,0,0,1,.55-1.22,2.73,2.73,0,0,1,1.76-.46h1.65V40a1.31,1.31,0,0,0-.39-1,1.65,1.65,0,0,0-1.15-.36,2.88,2.88,0,0,0-1,.17,2.48,2.48,0,0,0-.82.45l-.44-.79a3.17,3.17,0,0,1,1.07-.54,4.28,4.28,0,0,1,1.31-.19A2.58,2.58,0,0,1,142.82,38.32Zm-1,4.22a1.52,1.52,0,0,0,.63-.76V41h-1.61c-.88,0-1.32.3-1.32.89a.78.78,0,0,0,.34.68,1.49,1.49,0,0,0,.93.25A2,2,0,0,0,141.79,42.54Z"/><path class="cls-1" d="M148.35,43.2a1.54,1.54,0,0,1-.57.3,2.26,2.26,0,0,1-.69.1,1.82,1.82,0,0,1-1.34-.46,1.79,1.79,0,0,1-.48-1.34V38.65h-1v-.86h1V36.53h1v1.26H148v.86h-1.65v3.11a1.05,1.05,0,0,0,.23.72.91.91,0,0,0,.67.25,1.24,1.24,0,0,0,.81-.28Z"/><path class="cls-1" d="M149.63,43.41a2.69,2.69,0,0,1-1-.48l.43-.82a3.26,3.26,0,0,0,.92.43,3.75,3.75,0,0,0,1.1.16c.91,0,1.37-.26,1.37-.78a.52.52,0,0,0-.19-.41,1.23,1.23,0,0,0-.46-.22c-.18,0-.45-.1-.79-.16a6.7,6.7,0,0,1-1.13-.25,1.67,1.67,0,0,1-.75-.48,1.3,1.3,0,0,1-.32-.94,1.47,1.47,0,0,1,.65-1.25,2.9,2.9,0,0,1,1.75-.47,4.53,4.53,0,0,1,1.15.14,2.92,2.92,0,0,1,.94.38l-.44.82a3,3,0,0,0-1.66-.45,2,2,0,0,0-1,.21.67.67,0,0,0-.35.58.54.54,0,0,0,.2.44,1.21,1.21,0,0,0,.48.24c.19,0,.46.11.81.17a8.63,8.63,0,0,1,1.12.26,1.6,1.6,0,0,1,.73.46,1.26,1.26,0,0,1,.31.91,1.44,1.44,0,0,1-.67,1.24,3.12,3.12,0,0,1-1.82.46A4.64,4.64,0,0,1,149.63,43.41Z"/><path class="cls-1" d="M165.84,37.79l-2.15,5.75h-1L161,39.18l-1.68,4.36h-1l-2.14-5.75h1l1.67,4.58,1.73-4.58h.88l1.7,4.6,1.72-4.6Z"/><path class="cls-1" d="M166.63,36.49a.66.66,0,0,1-.2-.48.67.67,0,0,1,.2-.48.73.73,0,0,1,.51-.2.68.68,0,0,1,.5.19.6.6,0,0,1,.2.47.66.66,0,0,1-.2.5.69.69,0,0,1-.5.2A.73.73,0,0,1,166.63,36.49Zm0,1.3h1v5.75h-1Z"/><path class="cls-1" d="M172.6,43.2a1.58,1.58,0,0,1-.56.3,2.3,2.3,0,0,1-.69.1,1.86,1.86,0,0,1-1.35-.46,1.79,1.79,0,0,1-.48-1.34V38.65h-1v-.86h1V36.53h1v1.26h1.64v.86h-1.64v3.11a1,1,0,0,0,.23.72.88.88,0,0,0,.66.25,1.29,1.29,0,0,0,.82-.28Z"/><path class="cls-1" d="M178.4,38.37a2.49,2.49,0,0,1,.64,1.86v3.31h-1V40.35a1.75,1.75,0,0,0-.4-1.26,1.52,1.52,0,0,0-1.15-.42,1.77,1.77,0,0,0-1.33.49,1.91,1.91,0,0,0-.49,1.42v3h-1v-8h1V38.6a2.18,2.18,0,0,1,.85-.63,2.79,2.79,0,0,1,1.18-.23A2.38,2.38,0,0,1,178.4,38.37Z"/><path class="cls-1" d="M192,37.79l-2.14,5.75h-1l-1.66-4.36-1.68,4.36h-1l-2.13-5.75h1l1.67,4.58,1.74-4.58h.88l1.7,4.6,1.71-4.6Z"/><path class="cls-1" d="M193.58,43.22a2.72,2.72,0,0,1-1.06-1,3.14,3.14,0,0,1,0-3,2.72,2.72,0,0,1,1.06-1,3.16,3.16,0,0,1,1.54-.37,3.11,3.11,0,0,1,1.54.37,2.79,2.79,0,0,1,1.06,1,3.14,3.14,0,0,1,0,3,2.79,2.79,0,0,1-1.06,1,3,3,0,0,1-1.54.38A3.06,3.06,0,0,1,193.58,43.22Zm2.54-.78a1.84,1.84,0,0,0,.69-.72,2.44,2.44,0,0,0,0-2.11,1.75,1.75,0,0,0-.69-.71,2.11,2.11,0,0,0-2,0,1.75,1.75,0,0,0-.69.71,2.27,2.27,0,0,0,0,2.11,1.84,1.84,0,0,0,.69.72,2.11,2.11,0,0,0,2,0Z"/><path class="cls-1" d="M201.08,38a2.8,2.8,0,0,1,1.29-.26v1h-.24a1.73,1.73,0,0,0-1.33.5,2,2,0,0,0-.48,1.44v2.86h-1V37.79h1v1A1.71,1.71,0,0,1,201.08,38Z"/><path class="cls-1" d="M203.37,35.49h1v8h-1Z"/><path class="cls-1" d="M211.55,35.49v8h-1v-.91a2.13,2.13,0,0,1-.88.72,2.64,2.64,0,0,1-1.17.25,3,3,0,0,1-1.49-.37,2.64,2.64,0,0,1-1-1,3.11,3.11,0,0,1-.37-1.54,3,3,0,0,1,.37-1.52,2.64,2.64,0,0,1,1-1,3,3,0,0,1,1.49-.37,2.8,2.8,0,0,1,1.14.23,2.27,2.27,0,0,1,.87.69V35.49Zm-2,6.95a1.84,1.84,0,0,0,.69-.72,2.35,2.35,0,0,0,0-2.11,1.75,1.75,0,0,0-.69-.71,2,2,0,0,0-1-.25,1.92,1.92,0,0,0-1,.25,1.77,1.77,0,0,0-.7.71,2.35,2.35,0,0,0,0,2.11,1.86,1.86,0,0,0,.7.72,1.92,1.92,0,0,0,1,.25A2,2,0,0,0,209.58,42.44Z"/><path class="cls-1" d="M216.84,43.22a2.77,2.77,0,0,1-1.08-1,3.14,3.14,0,0,1,0-3,2.77,2.77,0,0,1,1.08-1,3.21,3.21,0,0,1,1.56-.37,3,3,0,0,1,1.4.31,2.38,2.38,0,0,1,.95.91l-.8.51a1.8,1.8,0,0,0-.67-.62,2.12,2.12,0,0,0-1.9,0,1.73,1.73,0,0,0-.71.71,2.37,2.37,0,0,0,0,2.12,1.73,1.73,0,0,0,.71.71,2.12,2.12,0,0,0,1.9.05,1.8,1.8,0,0,0,.67-.62l.8.5a2.38,2.38,0,0,1-.95.91,2.92,2.92,0,0,1-1.4.32A3.11,3.11,0,0,1,216.84,43.22Z"/><path class="cls-1" d="M221.74,35.49h1v8h-1Z"/><path class="cls-1" d="M228.42,38.32a2.28,2.28,0,0,1,.63,1.75v3.47h-1v-.76a1.6,1.6,0,0,1-.74.61,2.83,2.83,0,0,1-1.14.21,2.4,2.4,0,0,1-1.55-.46,1.6,1.6,0,0,1,0-2.45,2.68,2.68,0,0,1,1.75-.46H228V40a1.31,1.31,0,0,0-.39-1,1.63,1.63,0,0,0-1.15-.36,2.88,2.88,0,0,0-1,.17,2.48,2.48,0,0,0-.82.45l-.43-.79a3.12,3.12,0,0,1,1.06-.54,4.32,4.32,0,0,1,1.31-.19A2.63,2.63,0,0,1,228.42,38.32Zm-1,4.22a1.52,1.52,0,0,0,.63-.76V41h-1.6c-.89,0-1.33.3-1.33.89a.8.8,0,0,0,.34.68,1.49,1.49,0,0,0,.93.25A2,2,0,0,0,227.38,42.54Z"/><path class="cls-1" d="M231,43.41a2.85,2.85,0,0,1-1-.48l.44-.82a3.14,3.14,0,0,0,.92.43,3.74,3.74,0,0,0,1.09.16c.91,0,1.37-.26,1.37-.78a.51.51,0,0,0-.18-.41,1.31,1.31,0,0,0-.46-.22c-.19,0-.45-.1-.79-.16a6.7,6.7,0,0,1-1.13-.25,1.65,1.65,0,0,1-.76-.48,1.3,1.3,0,0,1-.31-.94,1.45,1.45,0,0,1,.65-1.25,2.85,2.85,0,0,1,1.74-.47,4.47,4.47,0,0,1,1.15.14,3,3,0,0,1,.95.38l-.45.82a3,3,0,0,0-1.66-.45,2,2,0,0,0-1,.21.66.66,0,0,0-.34.58.53.53,0,0,0,.19.44,1.18,1.18,0,0,0,.49.24c.19,0,.46.11.8.17a8.84,8.84,0,0,1,1.13.26,1.71,1.71,0,0,1,.73.46,1.3,1.3,0,0,1,.3.91,1.42,1.42,0,0,1-.67,1.24,3.11,3.11,0,0,1-1.81.46A4.75,4.75,0,0,1,231,43.41Z"/><path class="cls-1" d="M236.16,43.41a2.85,2.85,0,0,1-1-.48l.44-.82a3.14,3.14,0,0,0,.92.43,3.75,3.75,0,0,0,1.1.16c.91,0,1.36-.26,1.36-.78a.51.51,0,0,0-.18-.41,1.31,1.31,0,0,0-.46-.22c-.19,0-.45-.1-.79-.16a6.7,6.7,0,0,1-1.13-.25,1.65,1.65,0,0,1-.76-.48,1.3,1.3,0,0,1-.31-.94,1.47,1.47,0,0,1,.65-1.25,2.86,2.86,0,0,1,1.75-.47,4.45,4.45,0,0,1,1.14.14,3,3,0,0,1,.95.38l-.45.82a3,3,0,0,0-1.66-.45,1.93,1.93,0,0,0-1,.21.65.65,0,0,0-.35.58.53.53,0,0,0,.19.44,1.25,1.25,0,0,0,.49.24c.19,0,.46.11.8.17a8.84,8.84,0,0,1,1.13.26,1.65,1.65,0,0,1,.73.46,1.3,1.3,0,0,1,.3.91,1.43,1.43,0,0,1-.66,1.24,3.14,3.14,0,0,1-1.82.46A4.75,4.75,0,0,1,236.16,43.41Z"/><path class="cls-1" d="M247.6,38.32a2.28,2.28,0,0,1,.63,1.75v3.47h-1v-.76a1.6,1.6,0,0,1-.74.61,2.83,2.83,0,0,1-1.14.21,2.4,2.4,0,0,1-1.55-.46,1.6,1.6,0,0,1,0-2.45,2.7,2.7,0,0,1,1.75-.46h1.65V40a1.31,1.31,0,0,0-.39-1,1.63,1.63,0,0,0-1.15-.36,2.88,2.88,0,0,0-1,.17,2.48,2.48,0,0,0-.82.45l-.43-.79a3.12,3.12,0,0,1,1.06-.54,4.32,4.32,0,0,1,1.31-.19A2.61,2.61,0,0,1,247.6,38.32Zm-1,4.22a1.52,1.52,0,0,0,.63-.76V41h-1.6c-.89,0-1.33.3-1.33.89a.8.8,0,0,0,.34.68,1.49,1.49,0,0,0,.93.25A2,2,0,0,0,246.56,42.54Z"/><path class="cls-1" d="M258.8,38.37a2.52,2.52,0,0,1,.63,1.86v3.31h-1V40.35a1.84,1.84,0,0,0-.38-1.26,1.43,1.43,0,0,0-1.1-.42,1.64,1.64,0,0,0-1.26.49,2,2,0,0,0-.47,1.42v3h-1V40.35a1.84,1.84,0,0,0-.38-1.26,1.43,1.43,0,0,0-1.1-.42,1.64,1.64,0,0,0-1.26.49,2,2,0,0,0-.47,1.42v3h-1V37.79h1v.86a2,2,0,0,1,.82-.68,2.86,2.86,0,0,1,1.16-.23,2.59,2.59,0,0,1,1.2.27,1.9,1.9,0,0,1,.8.79,2.22,2.22,0,0,1,.9-.78,3,3,0,0,1,1.31-.28A2.33,2.33,0,0,1,258.8,38.37Z"/><path class="cls-1" d="M266.29,41h-4.67a1.82,1.82,0,0,0,.67,1.22,2.36,2.36,0,0,0,3.07-.23l.58.67a2.5,2.5,0,0,1-1,.69,3.67,3.67,0,0,1-2.91-.13,2.63,2.63,0,0,1-1.09-1,3,3,0,0,1-.39-1.52,3,3,0,0,1,.38-1.5,2.67,2.67,0,0,1,1-1,2.9,2.9,0,0,1,1.48-.37,2.87,2.87,0,0,1,1.47.37,2.6,2.6,0,0,1,1,1,3.11,3.11,0,0,1,.37,1.54C266.31,40.78,266.3,40.88,266.29,41Zm-4.08-1.94a1.86,1.86,0,0,0-.59,1.19h3.69a1.86,1.86,0,0,0-.59-1.18,1.77,1.77,0,0,0-1.25-.46A1.84,1.84,0,0,0,262.21,39.07Z"/><path class="cls-1" d="M272.29,38.37a2.49,2.49,0,0,1,.64,1.86v3.31h-1V40.35a1.75,1.75,0,0,0-.4-1.26,1.52,1.52,0,0,0-1.15-.42,1.77,1.77,0,0,0-1.33.49,1.91,1.91,0,0,0-.49,1.42v3h-1V37.79h1v.87a1.91,1.91,0,0,1,.85-.68,3,3,0,0,1,1.22-.24A2.38,2.38,0,0,1,272.29,38.37Z"/><path class="cls-1" d="M274.61,36.49a.62.62,0,0,1-.2-.48.63.63,0,0,1,.2-.48.69.69,0,0,1,.5-.2.72.72,0,0,1,.51.19.63.63,0,0,1,.2.47.7.7,0,0,1-.2.5.73.73,0,0,1-.51.2A.69.69,0,0,1,274.61,36.49Zm0,1.3h1v5.75h-1Z"/><path class="cls-1" d="M280.58,43.2a1.63,1.63,0,0,1-.57.3,2.26,2.26,0,0,1-.69.1,1.86,1.86,0,0,1-1.35-.46,1.82,1.82,0,0,1-.47-1.34V38.65h-1v-.86h1V36.53h1v1.26h1.65v.86h-1.65v3.11a1.05,1.05,0,0,0,.23.72.91.91,0,0,0,.67.25,1.24,1.24,0,0,0,.81-.28Z"/><path class="cls-1" d="M281.58,36.49a.66.66,0,0,1-.2-.48.67.67,0,0,1,.2-.48.69.69,0,0,1,.5-.2.72.72,0,0,1,.51.19.63.63,0,0,1,.2.47.7.7,0,0,1-.2.5.73.73,0,0,1-.51.2A.69.69,0,0,1,281.58,36.49Zm0,1.3h1v5.75h-1Z"/><path class="cls-1" d="M289.49,41h-4.66a1.77,1.77,0,0,0,.66,1.22,2.38,2.38,0,0,0,3.08-.23l.57.67a2.43,2.43,0,0,1-1,.69,3.67,3.67,0,0,1-2.91-.13,2.69,2.69,0,0,1-1.09-1,3,3,0,0,1-.39-1.52,3,3,0,0,1,.38-1.5,2.67,2.67,0,0,1,1-1,2.93,2.93,0,0,1,1.48-.37,2.87,2.87,0,0,1,1.47.37,2.62,2.62,0,0,1,1,1,3.21,3.21,0,0,1,.36,1.54C289.51,40.78,289.5,40.88,289.49,41Zm-4.07-1.94a1.77,1.77,0,0,0-.59,1.19h3.68a1.81,1.81,0,0,0-.59-1.18,1.76,1.76,0,0,0-1.25-.46A1.79,1.79,0,0,0,285.42,39.07Z"/><path class="cls-1" d="M291,43.41a2.85,2.85,0,0,1-1-.48l.44-.82a3.14,3.14,0,0,0,.92.43,3.75,3.75,0,0,0,1.1.16c.91,0,1.36-.26,1.36-.78a.51.51,0,0,0-.18-.41,1.31,1.31,0,0,0-.46-.22c-.19,0-.45-.1-.79-.16a6.7,6.7,0,0,1-1.13-.25,1.65,1.65,0,0,1-.76-.48,1.3,1.3,0,0,1-.31-.94,1.47,1.47,0,0,1,.65-1.25,2.88,2.88,0,0,1,1.75-.47,4.58,4.58,0,0,1,1.15.14,3,3,0,0,1,.94.38l-.45.82a3,3,0,0,0-1.65-.45,2,2,0,0,0-1,.21.65.65,0,0,0-.35.58.54.54,0,0,0,.2.44,1.14,1.14,0,0,0,.48.24c.19,0,.46.11.81.17a9.05,9.05,0,0,1,1.12.26,1.65,1.65,0,0,1,.73.46,1.3,1.3,0,0,1,.3.91,1.43,1.43,0,0,1-.66,1.24,3.14,3.14,0,0,1-1.82.46A4.75,4.75,0,0,1,291,43.41Z"/><path class="cls-1" d="M100.09,25.46a4,4,0,0,1-1.47-.81l.47-1a3.85,3.85,0,0,0,1.31.75,4.84,4.84,0,0,0,1.64.29,3,3,0,0,0,1.66-.38,1.16,1.16,0,0,0,.55-1,1,1,0,0,0-.3-.75,2,2,0,0,0-.74-.44,11.44,11.44,0,0,0-1.25-.35,13.49,13.49,0,0,1-1.63-.48,2.93,2.93,0,0,1-1.06-.75,2,2,0,0,1-.44-1.36,2.3,2.3,0,0,1,.38-1.29,2.53,2.53,0,0,1,1.14-.92,4.69,4.69,0,0,1,1.91-.35,6.3,6.3,0,0,1,1.56.2,4.27,4.27,0,0,1,1.31.59l-.42,1a4.67,4.67,0,0,0-1.2-.55,4.61,4.61,0,0,0-1.25-.18,2.78,2.78,0,0,0-1.63.39,1.23,1.23,0,0,0-.54,1,1,1,0,0,0,.3.74,2.13,2.13,0,0,0,.76.45,11.19,11.19,0,0,0,1.24.34,11.14,11.14,0,0,1,1.62.49,2.58,2.58,0,0,1,1,.74,1.92,1.92,0,0,1,.45,1.34,2.22,2.22,0,0,1-.39,1.28,2.48,2.48,0,0,1-1.16.92,4.75,4.75,0,0,1-1.92.34A6.12,6.12,0,0,1,100.09,25.46Z"/><path class="cls-1" d="M113.28,17.55a2.84,2.84,0,0,1,1,2.29,2.83,2.83,0,0,1-1,2.29,4.19,4.19,0,0,1-2.74.83h-2.21v2.71h-1.28v-9h3.49A4.19,4.19,0,0,1,113.28,17.55Zm-.92,3.78a1.82,1.82,0,0,0,.64-1.49,1.83,1.83,0,0,0-.64-1.49,2.94,2.94,0,0,0-1.86-.52h-2.17v4h2.17A2.88,2.88,0,0,0,112.36,21.33Z"/><path class="cls-1" d="M121.09,23.43h-4.76l-1,2.24H114l4-9h1.27l4.06,9h-1.34Zm-.45-1L118.71,18l-1.93,4.38Z"/><path class="cls-1" d="M125.87,25.18a4.37,4.37,0,0,1-1.69-1.64,4.49,4.49,0,0,1-.61-2.34,4.55,4.55,0,0,1,.61-2.35,4.47,4.47,0,0,1,1.7-1.64,5,5,0,0,1,2.43-.59,5.17,5.17,0,0,1,1.92.35,4,4,0,0,1,1.48,1l-.83.81a3.33,3.33,0,0,0-2.52-1.06,3.62,3.62,0,0,0-1.8.45,3.11,3.11,0,0,0-1.26,1.23,3.58,3.58,0,0,0,0,3.51,3.2,3.2,0,0,0,1.26,1.24,3.61,3.61,0,0,0,1.8.44,3.32,3.32,0,0,0,2.52-1.07l.83.81a3.9,3.9,0,0,1-1.49,1,5.3,5.3,0,0,1-4.35-.23Z"/><path class="cls-1" d="M139.71,24.56v1.11h-6.49v-9h6.31v1.11h-5v2.75H139v1.09h-4.49v2.89Z"/><path class="cls-1" d="M142.12,25.46a4.06,4.06,0,0,1-1.48-.81l.48-1a3.76,3.76,0,0,0,1.31.75,4.84,4.84,0,0,0,1.64.29,3,3,0,0,0,1.66-.38,1.16,1.16,0,0,0,.55-1,1,1,0,0,0-.3-.75,2,2,0,0,0-.74-.44,11.44,11.44,0,0,0-1.25-.35,13.49,13.49,0,0,1-1.63-.48,2.93,2.93,0,0,1-1.06-.75,2,2,0,0,1-.44-1.36,2.3,2.3,0,0,1,.38-1.29,2.53,2.53,0,0,1,1.14-.92,4.66,4.66,0,0,1,1.91-.35,6.36,6.36,0,0,1,1.56.2,4.27,4.27,0,0,1,1.31.59l-.42,1a4.67,4.67,0,0,0-1.2-.55,4.61,4.61,0,0,0-1.25-.18,2.78,2.78,0,0,0-1.63.39,1.22,1.22,0,0,0-.55,1,1,1,0,0,0,.31.74,2,2,0,0,0,.76.45,11.56,11.56,0,0,0,1.23.34,10.94,10.94,0,0,1,1.63.49,2.58,2.58,0,0,1,1.05.74,1.92,1.92,0,0,1,.44,1.34,2.21,2.21,0,0,1-.38,1.28,2.53,2.53,0,0,1-1.16.92,4.75,4.75,0,0,1-1.92.34A6.12,6.12,0,0,1,142.12,25.46Z"/><path class="cls-1" d="M152.2,16.72h1.28v9H152.2Z"/><path class="cls-1" d="M163.54,16.72v9h-1L157.12,19v6.67h-1.28v-9h1l5.37,6.67V16.72Z"/><path class="cls-1" d="M177.32,25.67l0-6.52-3.23,5.43h-.59l-3.23-5.39v6.48H169v-9h1L173.8,23l3.68-6.29h1.05v9Z"/><path class="cls-1" d="M181.83,24.75a4,4,0,0,1-1-2.94V16.72h1.28v5c0,1.92.84,2.87,2.52,2.87a2.44,2.44,0,0,0,1.88-.7,3.16,3.16,0,0,0,.65-2.17v-5h1.24v5.09a4,4,0,0,1-1,3,3.74,3.74,0,0,1-2.79,1A3.7,3.7,0,0,1,181.83,24.75Z"/><path class="cls-1" d="M197.38,24.56v1.11h-7.47V24.8l5.62-7H190V16.72h7.23v.87l-5.6,7Z"/><path class="cls-1" d="M204.48,23.43h-4.76l-1,2.24h-1.32l4.05-9h1.27l4.06,9h-1.34Zm-.45-1L202.1,18l-1.93,4.38Z"/><path class="cls-1" d="M209.09,17.83V21h4.49v1.1h-4.49v3.62h-1.28v-9h6.32v1.11Z"/><path class="cls-1" d="M216.89,17.83V21h4.49v1.1h-4.49v3.62h-1.28v-9h6.32v1.11Z"/><path class="cls-1" d="M228.7,23.43H224l-1,2.24h-1.31l4-9H227l4.07,9h-1.34Zm-.45-1L226.32,18l-1.93,4.38Z"/><path class="cls-1" d="M238,25.67l-1.93-2.75-.56,0h-2.21v2.72H232v-9h3.49a4.14,4.14,0,0,1,2.73.83,2.82,2.82,0,0,1,1,2.29,3,3,0,0,1-.51,1.77,3,3,0,0,1-1.46,1.06l2.12,3Zm-.68-4.33a1.82,1.82,0,0,0,.64-1.5,1.8,1.8,0,0,0-.64-1.49,2.89,2.89,0,0,0-1.85-.52h-2.17v4h2.17A2.83,2.83,0,0,0,237.34,21.34Z"/><path class="cls-1" d="M247.24,17.55a2.84,2.84,0,0,1,1,2.29,2.83,2.83,0,0,1-1,2.29,4.19,4.19,0,0,1-2.74.83h-2.21v2.71H241v-9h3.49A4.19,4.19,0,0,1,247.24,17.55Zm-.93,3.78a1.79,1.79,0,0,0,.64-1.49,1.8,1.8,0,0,0-.64-1.49,2.89,2.89,0,0,0-1.85-.52h-2.17v4h2.17A2.83,2.83,0,0,0,246.31,21.33Z"/><path class="cls-1" d="M250.74,24.75a4,4,0,0,1-1-2.94V16.72H251v5c0,1.92.84,2.87,2.52,2.87a2.41,2.41,0,0,0,1.87-.7,3.11,3.11,0,0,0,.66-2.17v-5h1.24v5.09a4.07,4.07,0,0,1-1,3,3.74,3.74,0,0,1-2.79,1A3.7,3.7,0,0,1,250.74,24.75Z"/><path class="cls-1" d="M265.59,25.67l-1.93-2.75-.56,0h-2.21v2.72h-1.28v-9h3.49a4.14,4.14,0,0,1,2.73.83,2.82,2.82,0,0,1,1,2.29,3,3,0,0,1-.51,1.77,3,3,0,0,1-1.46,1.06l2.12,3Zm-.68-4.33a1.82,1.82,0,0,0,.64-1.5,1.8,1.8,0,0,0-.64-1.49,2.89,2.89,0,0,0-1.85-.52h-2.17v4h2.17A2.83,2.83,0,0,0,264.91,21.34Z"/></g></g></svg>