<svg xmlns="http://www.w3.org/2000/svg" viewBox="0 0 239.34 81.31"><defs><style>.cls-1{fill:#318387;}</style></defs><g id="Layer_2" data-name="Layer 2"><g id="Layer_1-2" data-name="Layer 1"><path class="cls-1" d="M20.87,54.65A17.55,17.55,0,0,1,6.62,48.07C3,43.68,1.21,37.42,1.21,29.23S3,14.77,6.58,10.39A17.55,17.55,0,0,1,20.87,3.81a17.49,17.49,0,0,1,14.25,6.51q5.34,6.52,5.34,18.84T35.12,48a17.44,17.44,0,0,1-14.25,6.58Zm0-1.58q11.88,0,11.86-23.77T20.83,5.46a8.72,8.72,0,0,0-4.41,1.13,11,11,0,0,0-3.7,3.7A21,21,0,0,0,10,17.68a59.24,59.24,0,0,0-1,11.55c0,8.6,1.1,14.69,3.29,18.33s5,5.44,8.5,5.44Z"/><path class="cls-1" d="M60.9,3.71c6,0,10.62,2.05,13.87,6.2s4.9,10.38,4.9,18.7-2,14.8-5.82,19.25a18.73,18.73,0,0,1-14.8,6.68,48.32,48.32,0,0,1-13.67-2.46L49,41.29h.55l4.21,10.92a20.34,20.34,0,0,0,4.94.69q13.2,0,13.18-24.12v-.06a18.94,18.94,0,0,1-13.32,5.41,16.55,16.55,0,0,1-10.9-3.77q-4.52-3.75-4.52-10.69A15,15,0,0,1,48,8.26c3.18-3,7.54-4.48,13-4.48Zm1,27.78a13.74,13.74,0,0,0,10-4.42c-.13-7.84-1.13-13.46-3-16.82s-4.52-5-7.91-5a9,9,0,0,0-7.44,3.7c-1.92,2.46-2.87,5.78-2.87,10,0,8.39,3.73,12.57,11.23,12.57Z"/><path class="cls-1" d="M0,78.57l1.72-1V65L0,64.09v-.17H12v3.73h-.17l-2.2-3.27H4V71.2H7.8l1.57-1.8h.17v4.06H9.37L7.8,71.67H4v5.94l2.22,1v.16H0Z"/><path class="cls-1" d="M12.11,78.57l1.73-1V65l-1.73-1v-.17h5.76v.17l-1.76,1V78.25h5.31l2.41-3.75H24v4.23H12.11Z"/><path class="cls-1" d="M32,79A7.33,7.33,0,0,1,26.5,76.9a8.42,8.42,0,0,1,0-11.13A7.32,7.32,0,0,1,32,63.63a7.26,7.26,0,0,1,5.45,2.14,8.43,8.43,0,0,1,0,11.12A7.26,7.26,0,0,1,32,79Zm0-.48a4.34,4.34,0,0,0,3.62-1.86A8.78,8.78,0,0,0,37,71.32,8.7,8.7,0,0,0,35.58,66a4.44,4.44,0,0,0-7.23,0A8.77,8.77,0,0,0,27,71.32a8.78,8.78,0,0,0,1.4,5.38A4.34,4.34,0,0,0,32,78.56Z"/><path class="cls-1" d="M47.76,79A7.33,7.33,0,0,1,42.3,76.9a8.42,8.42,0,0,1,0-11.13,7.32,7.32,0,0,1,5.45-2.14,7.26,7.26,0,0,1,5.45,2.14,8.43,8.43,0,0,1,0,11.12A7.26,7.26,0,0,1,47.76,79Zm0-.48a4.36,4.36,0,0,0,3.62-1.86,8.78,8.78,0,0,0,1.42-5.38A8.77,8.77,0,0,0,51.38,66a4.44,4.44,0,0,0-7.23,0,8.77,8.77,0,0,0-1.4,5.37,8.78,8.78,0,0,0,1.4,5.38,4.34,4.34,0,0,0,3.61,1.86Z"/><path class="cls-1" d="M55.82,78.59l1.72-1V65.06l-1.72-1v-.17h6.89a7,7,0,0,1,4,1,3.25,3.25,0,0,1,1.44,2.85A3.53,3.53,0,0,1,67,70.51a5.27,5.27,0,0,1-3.17,1.3l1.22.4,3.43,5.37,1.57,1v.16H66.56L62.39,72H59.82v5.62l1.75,1v.16H55.82Zm6.35-7.06a3.49,3.49,0,0,0,2.62-1,3.69,3.69,0,0,0,.93-2.7,3.28,3.28,0,0,0-1-2.57,3.8,3.8,0,0,0-2.64-.91H59.82v7.12Z"/><path class="cls-1" d="M70.49,74l.19,0,1.65,4a7.55,7.55,0,0,0,2.52.47,4.69,4.69,0,0,0,3-.89A2.85,2.85,0,0,0,79,75.36a2.44,2.44,0,0,0-.65-1.75,5,5,0,0,0-2-1.17l-2.79-1c-2.31-.81-3.45-2.13-3.45-4a3.32,3.32,0,0,1,1.44-2.88,6.24,6.24,0,0,1,3.69-1,17.81,17.81,0,0,1,5,.87l-.79,3.65-.16,0L77.66,64.5a8.25,8.25,0,0,0-2.37-.41,4.06,4.06,0,0,0-2.54.75,2.32,2.32,0,0,0-1,2,2.17,2.17,0,0,0,.56,1.53,4.53,4.53,0,0,0,1.87,1.05l2.72.93a7.76,7.76,0,0,1,3,1.68,3.28,3.28,0,0,1,1,2.42,4,4,0,0,1-1.65,3.39A6.67,6.67,0,0,1,75.08,79a20.37,20.37,0,0,1-5.37-1Z"/><line class="cls-1" x1="112.55" x2="112.55" y2="81.31"/><rect class="cls-1" x="112.05" width="1" height="81.31"/><path class="cls-1" d="M202.68,11.41a29.25,29.25,0,0,0-9.56-7.19,32.13,32.13,0,0,0-9.87-3L180,.84h-3.33L176,1c-2,.31-4.09.44-6.07.94a30.88,30.88,0,0,0-15.81,9.27,20.07,20.07,0,0,0-5,9.47c-.27,1.36-.32,2.76-.47,4.15,2,.19,2,.19,3.27-1a5.21,5.21,0,0,1,6.51-.42,30.41,30.41,0,0,1,2.87,2.72,6.7,6.7,0,0,1,5.59-3.26c2.56,0,4.28,1.39,5.7,3.4,1.24-1.68,2.59-3,4.78-3.28V37.45L179.54,39V23c2,.36,3.3,1.69,4.47,3.26,1.41-2.06,3.15-3.4,5.68-3.41s4.28,1.42,5.66,3.35c.67-.76,1.23-1.47,1.87-2.1a5.29,5.29,0,0,1,4.18-1.64,5.9,5.9,0,0,1,3.92,2c.16.16.35.36.54.38.64,0,1.28,0,1.88,0,0-.13.07-.17.08-.21,0-.19,0-.37,0-.56A19.14,19.14,0,0,0,202.68,11.41ZM160.19,21.84c-4.62-2-4.62-2-9.06-.17a13.53,13.53,0,0,1,1.33-4.21A24.47,24.47,0,0,1,162.77,7a28.58,28.58,0,0,1,6.09-2.57A26.05,26.05,0,0,0,160.19,21.84Zm11.95-9.3c-.46,3.05-.73,6.12-1.09,9.26a8.47,8.47,0,0,0-8.65.25c-.52-6.76,6.87-17.74,12.39-18.42A28.69,28.69,0,0,0,172.14,12.54Zm1.24,9.78a1.93,1.93,0,0,1-.06-.45,54.13,54.13,0,0,1,2.09-14A32,32,0,0,1,177,4.16a3.48,3.48,0,0,1,.69-.85c.42-.43.92-.46,1.25,0a14.81,14.81,0,0,1,1.69,2.83,38.06,38.06,0,0,1,2.26,10.28c.2,1.93.33,3.86.5,6A8.54,8.54,0,0,0,173.38,22.32Zm20.85-.26a8.56,8.56,0,0,0-8.79-.2c-.36-6.28-.94-12.43-3.66-18.42,1,.48,1.88.81,2.68,1.28a19.35,19.35,0,0,1,7.46,8.62,25.77,25.77,0,0,1,2.31,7.92A7.09,7.09,0,0,1,194.23,22.06Zm2.19-.13a27.25,27.25,0,0,0-2.6-9.57,23.61,23.61,0,0,0-5.95-7.82l.11-.19c1.51.63,3.06,1.19,4.53,1.92a25.94,25.94,0,0,1,10.18,8.63,17.42,17.42,0,0,1,2.74,6.36,2.81,2.81,0,0,1,0,.45A7.74,7.74,0,0,0,196.42,21.93Z"/><path class="cls-1" d="M216.64,63.15c-.36-.61-.7-1.23-1.07-1.83-1.57-2.47-3.16-4.93-4.72-7.4a.92.92,0,0,0-.88-.49q-20.64,0-41.28,0a1,1,0,0,0-.79.35c-2,3-3.89,6-5.83,9.08a.71.71,0,0,0,0,.26h-.28L160.16,62l5.41-8.48h-4.5V51.34h1.19c2.59,0,5.18,0,7.77,0a.94.94,0,0,0,.94-.52c.6-1,1.25-1.93,1.93-3l-12.8-10a6.78,6.78,0,0,1,10.07-2c4,3.07,7.94,6.18,11.9,9.3a2.28,2.28,0,0,0,1.5.53c9.38,0,18.76,0,28.14,0a6.9,6.9,0,0,1,6.95,7.76H213c1,1.52,1.87,2.91,2.75,4.3s1.79,2.8,2.71,4.26l-1.72,1.17Zm-.2-11.81a7.58,7.58,0,0,0-.33-.91,4.67,4.67,0,0,0-4.56-2.66H182.72a2,2,0,0,1-1.32-.46q-5.29-4.18-10.64-8.32a20.05,20.05,0,0,0-3.12-2.14,3.93,3.93,0,0,0-4.4.73l.21.18q8.51,6.65,17,13.29a1.63,1.63,0,0,0,1,.27h35Zm-43.24-.05h4.09l-2.71-2.12Z"/><path class="cls-1" d="M139.39,75.94l.1,0,.93,2.25a4.25,4.25,0,0,0,1.4.26,2.61,2.61,0,0,0,1.68-.5,1.58,1.58,0,0,0,.62-1.29,1.33,1.33,0,0,0-.37-1,2.87,2.87,0,0,0-1.14-.65l-1.55-.53c-1.29-.45-1.93-1.19-1.93-2.21a1.85,1.85,0,0,1,.81-1.61,3.46,3.46,0,0,1,2.06-.57,10.07,10.07,0,0,1,2.8.48l-.44,2h-.09l-.88-2a4.54,4.54,0,0,0-1.32-.22,2.34,2.34,0,0,0-1.42.41,1.31,1.31,0,0,0-.54,1.09,1.17,1.17,0,0,0,.31.85,2.39,2.39,0,0,0,1,.59l1.52.52a4.22,4.22,0,0,1,1.66.94,1.8,1.8,0,0,1,.55,1.35,2.22,2.22,0,0,1-.92,1.89,3.72,3.72,0,0,1-2.32.7,11.3,11.3,0,0,1-3-.55Z"/><path class="cls-1" d="M157.62,70.29v.1l-1.05,1.07-2.34,7.1h-.77l-1.86-5.47-1.88,5.47H149L146.24,71l-.78-.57v-.1h3v.1l-.94.53,2.29,6.43,1.61-4.69-.58-1.7-.78-.57v-.1h3v.1l-.93.53,2.19,6.42,1.95-5.92-1.13-1v-.1Z"/><path class="cls-1" d="M157.67,78.47l1-.54v-7l-1-.53v-.1h3.21v.1l-1,.53v7l1,.54v.09h-3.21Z"/><path class="cls-1" d="M161.35,78.47l1.13-.94V71l-1-.56v-.1h2.11l2.93,5.25,2.65-5.25h2.08v.1l-1,.53v7l1,.54v.09H168v-.09l1-.54V71.21l-2.86,5.72h-.26l-3.11-5.57v6.17l1.25.94v.09h-2.66Z"/><path class="cls-1" d="M171.68,78.47l1.13-.94V71l-1-.56v-.1h2.1l2.93,5.25,2.65-5.25h2.09v.1l-1,.53v7l1,.54v.09h-3.21v-.09l1-.54V71.21l-2.86,5.72h-.26l-3.12-5.57v6.17l1.25.94v.09h-2.66Z"/><path class="cls-1" d="M182.19,78.47l1-.54v-7l-1-.53v-.1h3.21v.1l-1,.53v7l1,.54v.09h-3.21Z"/><path class="cls-1" d="M185.94,78.47l1.13-.94V71l-1.07-.6v-.1h2.13L193,77.14V71.32l-1.25-.93v-.1h2.66v.1l-1.14.93v7.24h-.77l-5.17-7.27v6.24l1.25.94v.09h-2.65Z"/><path class="cls-1" d="M194.94,74.44a4.27,4.27,0,0,1,.62-2.33,4,4,0,0,1,1.58-1.49,4.64,4.64,0,0,1,2.08-.48,9.23,9.23,0,0,1,3.2.61l-.61,2h-.09l-.85-2.1a4.64,4.64,0,0,0-1.54-.3,2.64,2.64,0,0,0-2.1,1,4.3,4.3,0,0,0-.88,2.87,4.78,4.78,0,0,0,.87,3,2.58,2.58,0,0,0,2.09,1.11,2.44,2.44,0,0,0,1.07-.23,1.69,1.69,0,0,0,.7-.61V75.23l-1.2-.53v-.1h3.29v.1l-.88.53v3.5h-.1l-1-.61a3.77,3.77,0,0,1-2.11.61,4.06,4.06,0,0,1-3-1.19,4.19,4.19,0,0,1-1.2-3.12Z"/><path class="cls-1" d="M210.37,70.29a3.71,3.71,0,0,1,2.33.66,2.16,2.16,0,0,1,.84,1.81,2.39,2.39,0,0,1-.85,1.94,3.46,3.46,0,0,1-2.3.72h-1.65v2.51l1.24.54v.09h-3.47v-.09l1-.54v-7l-1-.53v-.1h3.86ZM210,75.15a2.08,2.08,0,0,0,1.58-.6,2.39,2.39,0,0,0,.59-1.74,2.2,2.2,0,0,0-.61-1.66,2.17,2.17,0,0,0-1.58-.6h-1.26v4.6H210Z"/><path class="cls-1" d="M218.45,78.73a4.12,4.12,0,0,1-3-1.19,4.72,4.72,0,0,1,0-6.22,4.49,4.49,0,0,1,6.09,0,4.71,4.71,0,0,1,0,6.21,4,4,0,0,1-3,1.2Zm0-.27a2.45,2.45,0,0,0,2-1,6.09,6.09,0,0,0,0-6,2.49,2.49,0,0,0-4,0,6.09,6.09,0,0,0,0,6,2.41,2.41,0,0,0,2,1Z"/><path class="cls-1" d="M227.74,78.73a4.11,4.11,0,0,1-3.05-1.19,4.69,4.69,0,0,1,0-6.22,4.49,4.49,0,0,1,6.09,0,4.29,4.29,0,0,1,1.17,3.1,4.24,4.24,0,0,1-1.17,3.11,4.05,4.05,0,0,1-3,1.2Zm0-.27a2.43,2.43,0,0,0,2-1,6.13,6.13,0,0,0,0-6,2.5,2.5,0,0,0-4,0,6.16,6.16,0,0,0,0,6,2.45,2.45,0,0,0,2,1Z"/><path class="cls-1" d="M232.7,78.47l1-.54v-7l-1-.53v-.1h3.22v.1l-1,.53v7.37h3l1.34-2.1h.1v2.37H232.7Z"/></g></g></svg>