<svg xmlns="http://www.w3.org/2000/svg" viewBox="0 0 320.9 32.54"><defs><style>.cls-1{fill:#318387;}</style></defs><g id="Layer_2" data-name="Layer 2"><g id="Layer_1-2" data-name="Layer 1"><path class="cls-1" d="M8.07,27.64v3.13H6.8V22.56h3.25a2.81,2.81,0,0,1,2,.69,2.4,2.4,0,0,1,.74,1.84,2.51,2.51,0,0,1-.43,1.46,2.21,2.21,0,0,1-1.17.88L13,30.77H11.54L9.87,27.64Zm0-4v2.88H9.9a1.63,1.63,0,0,0,1.15-.38,1.37,1.37,0,0,0,.41-1.06A1.34,1.34,0,0,0,11,24.06a1.69,1.69,0,0,0-1.16-.38Z"/><path class="cls-1" d="M19.5,29.61v1.16H14.29V22.56H19.5v1.16H15.57V26h3.72v1.11H15.57v2.46Z"/><path class="cls-1" d="M22.33,27.64v3.13H21.05V22.56H24.3a2.78,2.78,0,0,1,2,.69A2.4,2.4,0,0,1,27,25.09a2.58,2.58,0,0,1-.42,1.46,2.29,2.29,0,0,1-1.17.88l1.84,3.34H25.8l-1.68-3.13Zm0-4v2.88h1.83a1.62,1.62,0,0,0,1.14-.38,1.34,1.34,0,0,0,.41-1.06,1.37,1.37,0,0,0-.42-1.06,1.71,1.71,0,0,0-1.17-.38Z"/><path class="cls-1" d="M33.86,30.77l-.75-2.18H30l-.76,2.18H27.91l3-8.21h1.37l3,8.21ZM31.5,24.05l-1.2,3.47h2.48l-1.19-3.47Z"/><path class="cls-1" d="M44.56,30.77l-.75-2.18H40.68l-.76,2.18H38.61l3-8.21H43l3,8.21ZM42.2,24.05,41,27.52h2.49L42.3,24.05Z"/><path class="cls-1" d="M47.05,22.56h3.22a2.64,2.64,0,0,1,2,.76,2.71,2.71,0,0,1,.75,2,2.61,2.61,0,0,1-.77,1.95,2.68,2.68,0,0,1-2,.76h-1.9v2.76H47.05Zm1.28,1.13v3.2h1.6a1.81,1.81,0,0,0,1.28-.42,1.47,1.47,0,0,0,.46-1.17,1.56,1.56,0,0,0-.45-1.2,1.87,1.87,0,0,0-1.29-.41Z"/><path class="cls-1" d="M54.32,22.56h3.22a2.63,2.63,0,0,1,2,.76,2.71,2.71,0,0,1,.75,2,2.61,2.61,0,0,1-.77,1.95,2.68,2.68,0,0,1-2,.76H55.6v2.76H54.32Zm1.28,1.13v3.2h1.6a1.86,1.86,0,0,0,1.29-.42A1.5,1.5,0,0,0,59,25.3a1.6,1.6,0,0,0-.45-1.2,1.89,1.89,0,0,0-1.3-.41Z"/><path class="cls-1" d="M62.87,27.64v3.13H61.6V22.56h3.25a2.81,2.81,0,0,1,2,.69,2.4,2.4,0,0,1,.74,1.84,2.59,2.59,0,0,1-.43,1.46,2.21,2.21,0,0,1-1.17.88l1.85,3.34H66.34l-1.67-3.13Zm0-4v2.88H64.7a1.63,1.63,0,0,0,1.15-.38,1.37,1.37,0,0,0,.41-1.06,1.34,1.34,0,0,0-.43-1.06,1.69,1.69,0,0,0-1.16-.38Z"/><path class="cls-1" d="M72.59,22.36a3.56,3.56,0,0,1,2.8,1.16,4.59,4.59,0,0,1,1,3.15,4.58,4.58,0,0,1-1,3.14,4,4,0,0,1-5.61,0,4.59,4.59,0,0,1-1-3.14,4.55,4.55,0,0,1,1-3.15A3.57,3.57,0,0,1,72.59,22.36Zm0,1.19a2.28,2.28,0,0,0-1.85.84,3.56,3.56,0,0,0-.68,2.28,3.53,3.53,0,0,0,.67,2.27,2.27,2.27,0,0,0,1.86.84,2.23,2.23,0,0,0,1.84-.84,3.53,3.53,0,0,0,.68-2.27,3.54,3.54,0,0,0-.68-2.28A2.23,2.23,0,0,0,72.59,23.55Z"/><path class="cls-1" d="M81.28,30.77h-1.4l-2.94-8.21h1.39l2.21,6.62h.1l2.2-6.62H84.2Z"/><path class="cls-1" d="M90.55,29.61v1.16H85.33V22.56h5.22v1.16H86.61V26h3.73v1.11H86.61v2.46Z"/><path class="cls-1" d="M92.09,22.56h3a3.74,3.74,0,0,1,2.84,1.07,4.2,4.2,0,0,1,1,3,4.3,4.3,0,0,1-1,3.05,3.73,3.73,0,0,1-2.85,1.08h-3Zm1.28,1.16v5.89h1.55a2.57,2.57,0,0,0,2-.77,3.11,3.11,0,0,0,.7-2.18,3,3,0,0,0-.71-2.16,2.57,2.57,0,0,0-2-.78Z"/><path class="cls-1" d="M104.76,32.54h-1.09v-10h1.09Z"/><path class="cls-1" d="M113.22,30.77h-3.38V22.56h3.31a2.77,2.77,0,0,1,1.81.55,1.86,1.86,0,0,1,.66,1.5,1.76,1.76,0,0,1-.42,1.15,1.61,1.61,0,0,1-1,.61v.1a2.09,2.09,0,0,1,1.35.63,1.93,1.93,0,0,1,.5,1.35,2.08,2.08,0,0,1-.74,1.7A3.09,3.09,0,0,1,113.22,30.77Zm-2.1-7.13V26h1.51a2.18,2.18,0,0,0,1.28-.31,1,1,0,0,0,.44-.89A1.07,1.07,0,0,0,114,24a1.72,1.72,0,0,0-1.1-.32Zm0,6.05H113a2.11,2.11,0,0,0,1.31-.34,1.18,1.18,0,0,0,.45-1,1.1,1.1,0,0,0-.47-1,2.33,2.33,0,0,0-1.36-.33h-1.77Z"/><path class="cls-1" d="M118.64,27.64v3.13h-1.27V22.56h3.25a2.81,2.81,0,0,1,2,.69,2.4,2.4,0,0,1,.74,1.84,2.59,2.59,0,0,1-.43,1.46,2.21,2.21,0,0,1-1.17.88l1.85,3.34h-1.48l-1.67-3.13Zm0-4v2.88h1.83a1.63,1.63,0,0,0,1.15-.38,1.37,1.37,0,0,0,.41-1.06,1.34,1.34,0,0,0-.43-1.06,1.69,1.69,0,0,0-1.16-.38Z"/><path class="cls-1" d="M130.07,29.61v1.16h-5.21V22.56h5.21v1.16h-3.94V26h3.73v1.11h-3.73v2.46Z"/><path class="cls-1" d="M132.89,27.64v3.13h-1.27V22.56h3.25a2.78,2.78,0,0,1,2,.69,2.4,2.4,0,0,1,.74,1.84,2.58,2.58,0,0,1-.42,1.46,2.29,2.29,0,0,1-1.17.88l1.84,3.34h-1.47l-1.68-3.13Zm0-4v2.88h1.84a1.62,1.62,0,0,0,1.14-.38,1.56,1.56,0,0,0,0-2.12,1.71,1.71,0,0,0-1.17-.38Z"/><path class="cls-1" d="M144.43,30.77l-.75-2.18h-3.13l-.76,2.18h-1.31l3-8.21h1.37l3,8.21Zm-2.36-6.72-1.2,3.47h2.48l-1.19-3.47Z"/><path class="cls-1" d="M146.92,22.56h3.21a2.61,2.61,0,0,1,2,.76,2.71,2.71,0,0,1,.75,2,2.61,2.61,0,0,1-.76,1.95,2.71,2.71,0,0,1-2,.76h-1.9v2.76h-1.27Zm1.27,1.13v3.2h1.61a1.81,1.81,0,0,0,1.28-.42,1.47,1.47,0,0,0,.46-1.17,1.56,1.56,0,0,0-.45-1.2,1.87,1.87,0,0,0-1.29-.41Z"/><path class="cls-1" d="M155.84,27.09V26h1a1.56,1.56,0,0,0,1.07-.36,1.19,1.19,0,0,0,.42-1,1.17,1.17,0,0,0-.41-.92,1.61,1.61,0,0,0-1.07-.34,1.66,1.66,0,0,0-1.09.35,1.33,1.33,0,0,0-.46,1h-1.21A2.35,2.35,0,0,1,154.9,23a3.31,3.31,0,0,1,3.91,0,1.9,1.9,0,0,1,.78,1.55,2,2,0,0,1-.4,1.23,1.85,1.85,0,0,1-1.07.67v.09a2,2,0,0,1,1.32.64,2,2,0,0,1,.48,1.36,2.13,2.13,0,0,1-.39,1.25,2.61,2.61,0,0,1-1.08.87,3.57,3.57,0,0,1-1.54.32,3.27,3.27,0,0,1-2.11-.66,2.36,2.36,0,0,1-.87-1.77h1.22a1.28,1.28,0,0,0,.54.95,2,2,0,0,0,1.22.36,1.89,1.89,0,0,0,1.23-.39,1.23,1.23,0,0,0,.48-1,1.21,1.21,0,0,0-.47-1,2,2,0,0,0-1.27-.37Z"/><path class="cls-1" d="M163,27.09V26h1a1.6,1.6,0,0,0,1.08-.36,1.22,1.22,0,0,0,.41-1,1.16,1.16,0,0,0-.4-.92,1.66,1.66,0,0,0-1.08-.34,1.61,1.61,0,0,0-1.08.35,1.34,1.34,0,0,0-.47,1h-1.21a2.35,2.35,0,0,1,.81-1.75A3.31,3.31,0,0,1,166,23a2,2,0,0,1,.38,2.78,1.85,1.85,0,0,1-1.07.67v.09a2,2,0,0,1,1.32.64,2,2,0,0,1,.48,1.36,2.13,2.13,0,0,1-.39,1.25,2.61,2.61,0,0,1-1.08.87,3.51,3.51,0,0,1-1.54.32,3.22,3.22,0,0,1-2.1-.66,2.33,2.33,0,0,1-.88-1.77h1.23a1.3,1.3,0,0,0,.53.95,2,2,0,0,0,1.22.36,1.89,1.89,0,0,0,1.23-.39,1.23,1.23,0,0,0,.48-1,1.18,1.18,0,0,0-.47-1,2,2,0,0,0-1.27-.37Z"/><path class="cls-1" d="M171.31,31a2.6,2.6,0,0,1-2.24-1.13,5.5,5.5,0,0,1-.8-3.18,5.33,5.33,0,0,1,.81-3.16,2.75,2.75,0,0,1,4.46,0,5.44,5.44,0,0,1,.8,3.17,5.44,5.44,0,0,1-.8,3.17A2.55,2.55,0,0,1,171.31,31ZM170,29a1.44,1.44,0,0,0,1.3.83A1.42,1.42,0,0,0,172.6,29a5.08,5.08,0,0,0,.45-2.38,5,5,0,0,0-.45-2.36,1.42,1.42,0,0,0-2.58,0,4.89,4.89,0,0,0-.46,2.36A5,5,0,0,0,170,29Z"/><path class="cls-1" d="M178.59,31a2.59,2.59,0,0,1-2.24-1.13,5.5,5.5,0,0,1-.8-3.18,5.41,5.41,0,0,1,.8-3.16,2.59,2.59,0,0,1,2.24-1.14,2.55,2.55,0,0,1,2.22,1.14,5.36,5.36,0,0,1,.81,3.17,5.44,5.44,0,0,1-.8,3.17A2.55,2.55,0,0,1,178.59,31ZM177.29,29a1.44,1.44,0,0,0,1.3.83,1.42,1.42,0,0,0,1.29-.82,5.08,5.08,0,0,0,.45-2.38,5,5,0,0,0-.45-2.36,1.42,1.42,0,0,0-2.58,0,4.89,4.89,0,0,0-.46,2.36A5,5,0,0,0,177.29,29Z"/><path class="cls-1" d="M185.72,31a2.91,2.91,0,0,1-1.85-.6,2.55,2.55,0,0,1-1-1.61h1.29a1.4,1.4,0,0,0,.55.79,1.69,1.69,0,0,0,1,.29,1.65,1.65,0,0,0,1.47-.82,4.32,4.32,0,0,0,.54-2.3h-.1a2.07,2.07,0,0,1-.86.92,2.48,2.48,0,0,1-1.29.33,2.58,2.58,0,0,1-1.93-.78,2.63,2.63,0,0,1-.77-2,2.76,2.76,0,0,1,.83-2.06,3,3,0,0,1,4.84.89,5.42,5.42,0,0,1,.51,2.5,5.41,5.41,0,0,1-.86,3.25A2.82,2.82,0,0,1,185.72,31Zm.06-4.08a1.69,1.69,0,0,0,1.24-.48,1.57,1.57,0,0,0,.49-1.2,1.69,1.69,0,0,0-1.72-1.73,1.71,1.71,0,0,0-1.23.49,1.78,1.78,0,0,0,0,2.44A1.67,1.67,0,0,0,185.78,26.89Z"/><path class="cls-1" d="M194.05,28.06h-3.73v-1.2h3.73Z"/><path class="cls-1" d="M198.45,31a2.6,2.6,0,0,1-2.24-1.13,5.5,5.5,0,0,1-.8-3.18,5.33,5.33,0,0,1,.81-3.16,2.75,2.75,0,0,1,4.46,0,5.44,5.44,0,0,1,.8,3.17,5.44,5.44,0,0,1-.8,3.17A2.55,2.55,0,0,1,198.45,31ZM197.15,29a1.44,1.44,0,0,0,1.3.83,1.42,1.42,0,0,0,1.29-.82,5.08,5.08,0,0,0,.45-2.38,5,5,0,0,0-.45-2.36,1.42,1.42,0,0,0-2.58,0,4.89,4.89,0,0,0-.46,2.36A5,5,0,0,0,197.15,29Z"/><path class="cls-1" d="M205.73,31a2.59,2.59,0,0,1-2.24-1.13,5.5,5.5,0,0,1-.8-3.18,5.41,5.41,0,0,1,.8-3.16,2.59,2.59,0,0,1,2.24-1.14A2.55,2.55,0,0,1,208,23.5a5.36,5.36,0,0,1,.81,3.17,5.44,5.44,0,0,1-.8,3.17A2.55,2.55,0,0,1,205.73,31ZM204.43,29a1.44,1.44,0,0,0,1.3.83A1.42,1.42,0,0,0,207,29a5.08,5.08,0,0,0,.45-2.38A5,5,0,0,0,207,24.3a1.42,1.42,0,0,0-2.58,0,4.89,4.89,0,0,0-.46,2.36A5,5,0,0,0,204.43,29Z"/><path class="cls-1" d="M213.88,30.77V29.19h-4V28c.63-1.16,1.77-3,3.42-5.44h1.81v5.49h1.14v1.14h-1.14v1.58ZM211.1,28v.08h2.8v-4.4h-.07Q212.38,25.78,211.1,28Z"/><path class="cls-1" d="M218,32.53h-1.09l2.45-10h1.11Z"/><path class="cls-1" d="M223.37,30.77V23.93h-.09l-2.06,1.46v-1.3l2.16-1.53h1.27v8.21Z"/><path class="cls-1" d="M229.77,31a2.87,2.87,0,0,1-1.6-.44,3,3,0,0,1-1.09-1.26,5.4,5.4,0,0,1-.5-2.5,5.41,5.41,0,0,1,.85-3.25,2.82,2.82,0,0,1,2.4-1.16,2.89,2.89,0,0,1,1.85.6,2.55,2.55,0,0,1,.95,1.61h-1.28a1.46,1.46,0,0,0-.56-.79,1.68,1.68,0,0,0-1-.29,1.65,1.65,0,0,0-1.47.82,4.31,4.31,0,0,0-.55,2.3h.1a2.07,2.07,0,0,1,.86-.92,2.8,2.8,0,0,1,3.23.45,2.68,2.68,0,0,1,.76,2,2.75,2.75,0,0,1-.84,2.07A3,3,0,0,1,229.77,31Zm-1.24-1.62a1.64,1.64,0,0,0,1.23.5,1.67,1.67,0,0,0,1.23-.49,1.64,1.64,0,0,0,.5-1.22,1.66,1.66,0,0,0-.48-1.22,1.84,1.84,0,0,0-2.48,0,1.58,1.58,0,0,0-.49,1.2A1.67,1.67,0,0,0,228.53,29.35Z"/><path class="cls-1" d="M239.25,30.3a4.07,4.07,0,0,1-4.46,0,2.1,2.1,0,0,1-.86-1.73,2,2,0,0,1,.48-1.36,2.11,2.11,0,0,1,1.26-.74v-.09a1.83,1.83,0,0,1-1-.66,1.8,1.8,0,0,1-.39-1.15A2,2,0,0,1,235,23a3.06,3.06,0,0,1,2-.62,3.1,3.1,0,0,1,2,.62,2,2,0,0,1,.77,1.6,1.82,1.82,0,0,1-1.41,1.81v.09a2.11,2.11,0,0,1,1.27.72,2.06,2.06,0,0,1,.48,1.37A2.09,2.09,0,0,1,239.25,30.3Zm-3.52-.79a2.26,2.26,0,0,0,2.57,0,1.27,1.27,0,0,0,.5-1,1.3,1.3,0,0,0-.5-1,2.26,2.26,0,0,0-2.57,0,1.29,1.29,0,0,0-.49,1A1.26,1.26,0,0,0,235.73,29.51Zm.2-3.89A1.61,1.61,0,0,0,237,26a1.58,1.58,0,0,0,1.08-.36,1.13,1.13,0,0,0,.42-.92,1.17,1.17,0,0,0-.42-.93,1.58,1.58,0,0,0-1.08-.36,1.61,1.61,0,0,0-1.09.36,1.19,1.19,0,0,0-.41.93A1.16,1.16,0,0,0,235.93,25.62Z"/><path class="cls-1" d="M242,32.53h-1.09l2.44-10h1.12Z"/><path class="cls-1" d="M246.77,27.64v3.13H245.5V22.56h3.25a2.78,2.78,0,0,1,2,.69,2.4,2.4,0,0,1,.74,1.84,2.51,2.51,0,0,1-.43,1.46,2.23,2.23,0,0,1-1.16.88l1.84,3.34h-1.47l-1.68-3.13Zm0-4v2.88h1.84a1.62,1.62,0,0,0,1.14-.38,1.56,1.56,0,0,0,0-2.12,1.71,1.71,0,0,0-1.17-.38Z"/><path class="cls-1" d="M256.61,28.06h-3.74v-1.2h3.74Z"/><path class="cls-1" d="M260.08,30.77V23.93H260l-2.06,1.46v-1.3l2.16-1.53h1.27v8.21Z"/><path class="cls-1" d="M266.48,31a2.85,2.85,0,0,1-1.6-.44,3,3,0,0,1-1.1-1.26,5.53,5.53,0,0,1-.5-2.5,5.41,5.41,0,0,1,.86-3.25,2.82,2.82,0,0,1,2.4-1.16,2.87,2.87,0,0,1,1.84.6,2.55,2.55,0,0,1,.95,1.61h-1.28a1.46,1.46,0,0,0-.56-.79,1.74,1.74,0,0,0-2.44.53,4.4,4.4,0,0,0-.55,2.3h.1a2.13,2.13,0,0,1,.86-.92,2.64,2.64,0,0,1,1.3-.32,2.58,2.58,0,0,1,1.93.77,2.68,2.68,0,0,1,.77,2,2.75,2.75,0,0,1-.84,2.07A3,3,0,0,1,266.48,31Zm-1.24-1.62a1.64,1.64,0,0,0,1.23.5,1.67,1.67,0,0,0,1.23-.49,1.63,1.63,0,0,0,.49-1.22,1.64,1.64,0,0,0-1.72-1.7,1.7,1.7,0,0,0-1.24.48,1.62,1.62,0,0,0-.49,1.2A1.67,1.67,0,0,0,265.24,29.35Z"/><path class="cls-1" d="M273.53,31a2.89,2.89,0,0,1-1.85-.6,2.55,2.55,0,0,1-.95-1.61H272a1.46,1.46,0,0,0,.56.79A1.75,1.75,0,0,0,275,29a4.32,4.32,0,0,0,.54-2.3h-.1a2.07,2.07,0,0,1-.86.92,2.48,2.48,0,0,1-1.29.33,2.61,2.61,0,0,1-1.94-.78,2.66,2.66,0,0,1-.76-2,2.76,2.76,0,0,1,.83-2.06,3,3,0,0,1,4.84.89,5.42,5.42,0,0,1,.51,2.5,5.41,5.41,0,0,1-.86,3.25A2.82,2.82,0,0,1,273.53,31Zm.06-4.08a1.7,1.7,0,0,0,1.24-.48,1.57,1.57,0,0,0,.49-1.2,1.69,1.69,0,0,0-1.72-1.73,1.71,1.71,0,0,0-1.23.49,1.7,1.7,0,0,0,1.22,2.92Z"/><path class="cls-1" d="M280.07,30.77V23.93H280l-2.05,1.46v-1.3l2.16-1.53h1.27v8.21Z"/><path class="cls-1" d="M284,32.53h-1.09l2.45-10h1.11Z"/><path class="cls-1" d="M287.25,24.93a2.41,2.41,0,0,1,.78-1.85,2.77,2.77,0,0,1,2-.72A2.83,2.83,0,0,1,292,23a2.13,2.13,0,0,1,.77,1.68,2.53,2.53,0,0,1-.38,1.29,9.81,9.81,0,0,1-1.42,1.68l-1.83,1.85v.1h3.76v1.14h-5.53v-.92L290.1,27a9.71,9.71,0,0,0,1.09-1.29,1.68,1.68,0,0,0,.27-.89,1.22,1.22,0,0,0-.42-.94,1.57,1.57,0,0,0-1.07-.37,1.48,1.48,0,0,0-1.09.4,1.42,1.42,0,0,0-.42,1.06v0h-1.21Z"/><path class="cls-1" d="M297.13,31a2.57,2.57,0,0,1-2.23-1.13,5.42,5.42,0,0,1-.8-3.18,5.33,5.33,0,0,1,.8-3.16,2.75,2.75,0,0,1,4.46,0,5.44,5.44,0,0,1,.8,3.17,5.44,5.44,0,0,1-.79,3.17A2.58,2.58,0,0,1,297.13,31ZM295.84,29a1.43,1.43,0,0,0,2.59,0,5.08,5.08,0,0,0,.45-2.38,5,5,0,0,0-.46-2.36,1.4,1.4,0,0,0-1.29-.82,1.42,1.42,0,0,0-1.29.82,5,5,0,0,0-.46,2.36A4.91,4.91,0,0,0,295.84,29Z"/><path class="cls-1" d="M301.44,24.93a2.41,2.41,0,0,1,.78-1.85,2.77,2.77,0,0,1,2-.72,2.83,2.83,0,0,1,1.94.67,2.13,2.13,0,0,1,.77,1.68,2.53,2.53,0,0,1-.38,1.29,9.81,9.81,0,0,1-1.42,1.68l-1.82,1.85v.1H307v1.14h-5.53v-.92L304.29,27a9.71,9.71,0,0,0,1.09-1.29,1.68,1.68,0,0,0,.27-.89,1.22,1.22,0,0,0-.42-.94,1.57,1.57,0,0,0-1.07-.37,1.48,1.48,0,0,0-1.09.4,1.42,1.42,0,0,0-.42,1.06v0h-1.21Z"/><path class="cls-1" d="M312.06,30.77V29.19h-4V28c.64-1.16,1.78-3,3.42-5.44h1.82v5.49h1.13v1.14h-1.13v1.58ZM309.28,28v.08h2.8v-4.4H312Q310.56,25.78,309.28,28Z"/><path class="cls-1" d="M0,12.91l1.36-1.6L2.55,9.9A38.78,38.78,0,0,0,5.74,5.8a5.2,5.2,0,0,0,.94-2.68,2.84,2.84,0,0,0-.65-2A2.21,2.21,0,0,0,4.33.44,4.75,4.75,0,0,0,2.8.71L1.53,3.63H1.38L.41,1A10.87,10.87,0,0,1,4.65,0a4.51,4.51,0,0,1,3,.91,3,3,0,0,1,1.12,2.5A5.15,5.15,0,0,1,7.19,6.82a36,36,0,0,1-4.58,4l-.91.65h6l1.1-1.7h.14v3.23H0Z"/><path class="cls-1" d="M21.07,6.27a4.87,4.87,0,0,1,2.57.94,2.61,2.61,0,0,1,1,2.17,3.18,3.18,0,0,1-1.3,2.71,6.1,6.1,0,0,1-3.69,1H13.2v-.14l1.49-.83V1.22L13.2.4V.25h6.23a5.86,5.86,0,0,1,3.27.8,2.53,2.53,0,0,1,1.21,2.19,2.79,2.79,0,0,1-.78,2,3.67,3.67,0,0,1-2.07,1Zm-4.43-.09h2.28a3,3,0,0,0,2.16-.73,2.79,2.79,0,0,0,.77-2.1,2.46,2.46,0,0,0-.82-2A3.27,3.27,0,0,0,18.78.65H16.65Zm2.2,6.45a4.19,4.19,0,0,0,2.75-.79,2.85,2.85,0,0,0,.94-2.31,2.63,2.63,0,0,0-.94-2.22A4.06,4.06,0,0,0,19,6.58H16.64v6.05h2.2Z"/><path class="cls-1" d="M25.08,12.91l1.49-.83V1.22L25.08.4V.25h5V.4l-1.51.82V6.27h6.72v-5L33.74.4V.25h5V.4l-1.5.82V12.08l1.5.83v.14h-5v-.14l1.52-.83V6.67H28.54v5.41l1.51.83v.14h-5Z"/><path class="cls-1" d="M51.81,12.91v.14H47v-.14l1-.81L44,6.54,42.42,8.06v4l1.64.83v.14H39v-.14l1.5-.83V1.22L39,.4V.25h5V.4l-1.52.82V7.49l6.09-5.85L46.77.4V.25h4.5V.44L48.91,1.85,45.37,5.22l5,6.75Z"/><path class="cls-1" d="M53.05,10.65l.63.62a2,2,0,0,1,.68,1.41,2.22,2.22,0,0,1-.62,1.47,13.79,13.79,0,0,1-1.91,1.68l-.19-.16a3.11,3.11,0,0,0,1.18-2.06,1.28,1.28,0,0,0-.13-.63,3.12,3.12,0,0,0-.5-.61l-.4-.42Z"/><path class="cls-1" d="M59.23,1a11.34,11.34,0,0,1,4.29-1,4.68,4.68,0,0,1,2.87.82,2.57,2.57,0,0,1,1.08,2.17,2.62,2.62,0,0,1-.88,2,4.88,4.88,0,0,1-2.4,1.12A5.33,5.33,0,0,1,67,7.2a2.72,2.72,0,0,1,1.12,2.26,3.32,3.32,0,0,1-1.34,2.81,5.75,5.75,0,0,1-3.62,1A13.66,13.66,0,0,1,59,12.5L60,9.61h.16l1.22,3a4.71,4.71,0,0,0,1.52.24A3.12,3.12,0,0,0,65.19,12a3.22,3.22,0,0,0,.87-2.35,2.8,2.8,0,0,0-1-2.38,4.72,4.72,0,0,0-2.84-.83l0-.19a4.34,4.34,0,0,0,2.43-1,2.79,2.79,0,0,0,.91-2.19,2.51,2.51,0,0,0-.73-1.93A2.45,2.45,0,0,0,63.05.46a6.1,6.1,0,0,0-1.51.22L60.33,3.6h-.14l-1-2.6Z"/><path class="cls-1" d="M80.15,6.27a4.87,4.87,0,0,1,2.57.94,2.61,2.61,0,0,1,1,2.17,3.18,3.18,0,0,1-1.3,2.71,6.1,6.1,0,0,1-3.69,1H72.29v-.14l1.49-.83V1.22L72.29.4V.25h6.23a5.84,5.84,0,0,1,3.26.8A2.5,2.5,0,0,1,83,3.24a2.79,2.79,0,0,1-.78,2,3.64,3.64,0,0,1-2.07,1Zm-4.43-.09H78a3,3,0,0,0,2.16-.73,2.79,2.79,0,0,0,.76-2.1,2.46,2.46,0,0,0-.82-2A3.27,3.27,0,0,0,77.86.65H75.73Zm2.21,6.45a4.23,4.23,0,0,0,2.75-.79,2.87,2.87,0,0,0,.93-2.31,2.66,2.66,0,0,0-.93-2.22,4.1,4.1,0,0,0-2.58-.73H75.72v6.05h2.21Z"/><path class="cls-1" d="M84.16,12.91l1.49-.83V1.22L84.16.4V.25h5V.4l-1.51.82V6.27h6.72v-5L92.82.4V.25h5V.4l-1.5.82V12.08l1.5.83v.14h-5v-.14l1.52-.83V6.67H87.62v5.41l1.51.83v.14h-5Z"/><path class="cls-1" d="M110.89,12.91v.14h-4.78v-.14l1-.81-4-5.56L101.5,8.06v4l1.64.83v.14H98.05v-.14l1.49-.83V1.22L98.05.4V.25h5V.4l-1.52.82V7.49l6.09-5.85L105.85.4V.25h4.5V.44L108,1.85l-3.53,3.37,5,6.75Z"/><path class="cls-1" d="M127.48,12.93v.15H125.1L123,11a5,5,0,0,1-4.28,2.29,4.52,4.52,0,0,1-3-1,3.17,3.17,0,0,1-1.15-2.54,3.14,3.14,0,0,1,1-2.36,5,5,0,0,1,2.62-1.2L118,6.11a7.42,7.42,0,0,1-1.26-1.56,3.16,3.16,0,0,1-.41-1.61,2.59,2.59,0,0,1,1-2.14,4,4,0,0,1,2.55-.75,8.78,8.78,0,0,1,3.68,1l-1.21,2.52h-.15l-1-2.81A3.29,3.29,0,0,0,120,.46,1.86,1.86,0,0,0,118.6,1a1.87,1.87,0,0,0-.53,1.36,2.75,2.75,0,0,0,.37,1.41,7,7,0,0,0,1.2,1.44l4,4a11.55,11.55,0,0,0,.81-2.07L123.2,5.67V5.52h4v.15l-2.3,1.4A14.62,14.62,0,0,1,124,9.49Zm-8.14-.4a4.24,4.24,0,0,0,3.34-1.83l-4.24-4.15a3.14,3.14,0,0,0-2.1,3.08,2.83,2.83,0,0,0,.81,2.09,3,3,0,0,0,2.19.83Z"/><path class="cls-1" d="M140.2.79a5.67,5.67,0,0,0-2.12-.4A4.09,4.09,0,0,0,134.9,2a6.58,6.58,0,0,0-1.36,4.36A7.34,7.34,0,0,0,135,11.1a4.17,4.17,0,0,0,3.36,1.78,5.18,5.18,0,0,0,1.77-.28l2.48-3.4.15,0-.33,3.38a14.89,14.89,0,0,1-4.31.68,6.66,6.66,0,0,1-4.75-1.82,6.33,6.33,0,0,1-1.93-4.84,6.28,6.28,0,0,1,2-4.85A6.63,6.63,0,0,1,138,0a13.39,13.39,0,0,1,4.7.91l-1,3.22h-.14Z"/><path class="cls-1" d="M150,13.32a6.36,6.36,0,0,1-4.72-1.85,6.58,6.58,0,0,1-1.82-4.81,6.58,6.58,0,0,1,1.82-4.81,6.92,6.92,0,0,1,9.42,0,6.59,6.59,0,0,1,1.81,4.8,6.61,6.61,0,0,1-1.8,4.81A6.32,6.32,0,0,1,150,13.31Zm0-.42a3.77,3.77,0,0,0,3.13-1.61,7.57,7.57,0,0,0,1.22-4.64A7.57,7.57,0,0,0,153.13,2a3.84,3.84,0,0,0-6.25,0,7.57,7.57,0,0,0-1.21,4.64,7.57,7.57,0,0,0,1.21,4.64A3.75,3.75,0,0,0,150,12.9Z"/><path class="cls-1" d="M156.7,12.91l1.75-1.45V1.28L156.88.4V.25h3.26l4.53,8.12,4.1-8.12H172V.4l-1.52.82V12.08l1.52.83v.14h-5v-.14l1.5-.83V1.68l-4.43,8.84h-.4L158.88,1.9v9.56l1.94,1.45v.14H156.7Z"/><path class="cls-1" d="M172,12.91l1.75-1.45V1.28L172.16.4V.25h3.26L180,8.37l4.1-8.12h3.23V.4l-1.52.82V12.08l1.52.83v.14h-5v-.14l1.5-.83V1.68l-4.43,8.84H179L174.16,1.9v9.56l1.93,1.45v.14H172Z"/><path class="cls-1" d="M187.52,12.91l1.49-.83V1.22L187.52.4V.25H198V3.47h-.14L195.92.65H191V6.27h3.14l1.35-1.56h.17V8.22h-.17l-1.35-1.55H191v6h5.28l1.92-3.05h.15v3.47h-10.8Z"/><path class="cls-1" d="M198.87,12.93l1.49-.83V1.24L198.87.42V.27h5.95a6,6,0,0,1,3.45.85,2.84,2.84,0,0,1,1.25,2.47,3.1,3.1,0,0,1-1,2.36,4.65,4.65,0,0,1-2.74,1.12l1.05.35,3,4.64,1.36.85v.14h-3l-3.61-5.83h-2.22v4.86l1.52.83v.14h-5Zm5.49-6.1A3,3,0,0,0,206.62,6a3.17,3.17,0,0,0,.81-2.33,2.81,2.81,0,0,0-.89-2.22,3.28,3.28,0,0,0-2.28-.79h-1.94V6.82Z"/><path class="cls-1" d="M219.61.79a5.71,5.71,0,0,0-2.12-.4A4.07,4.07,0,0,0,214.31,2,6.58,6.58,0,0,0,213,6.39a7.34,7.34,0,0,0,1.41,4.71,4.16,4.16,0,0,0,3.36,1.78,5.22,5.22,0,0,0,1.77-.28L222,9.2l.15,0-.33,3.38a14.89,14.89,0,0,1-4.31.68,6.71,6.71,0,0,1-4.76-1.82,6.36,6.36,0,0,1-1.92-4.84,6.28,6.28,0,0,1,1.95-4.85A6.61,6.61,0,0,1,217.36,0a13.39,13.39,0,0,1,4.7.91l-1,3.22h-.14Z"/><path class="cls-1" d="M222.72,12.91l1.49-.83V1.22L222.72.4V.25h5V.4l-1.52.82V12.08l1.52.83v.14h-5Z"/><path class="cls-1" d="M240.37,12.91v.14h-4.68v-.14l1.45-.83-1.52-3.8h-5.21l-1.21,3,1.72,1.64v.14h-3.81v-.14l1.64-1.67,4-10L231.56.4V.25h2.87L239.16,12Zm-4.9-5L233,1.77l-2.47,6.1Z"/><path class="cls-1" d="M239.93,12.91l1.49-.83V1.22L239.93.4V.25h5V.4l-1.52.82V12.63H248l2.08-3.24h.15v3.66H239.93Z"/><path class="cls-1" d="M255.12,9l.16,0,1.43,3.48a6.72,6.72,0,0,0,2.18.4,4,4,0,0,0,2.6-.77,2.46,2.46,0,0,0,.95-2,2.14,2.14,0,0,0-.56-1.52,4.56,4.56,0,0,0-1.77-1l-2.41-.82c-2-.69-3-1.84-3-3.41A2.89,2.89,0,0,1,256,.88,5.37,5.37,0,0,1,259.16,0a15.43,15.43,0,0,1,4.33.75l-.67,3.16-.15,0L261.32.75A7.27,7.27,0,0,0,259.27.4a3.56,3.56,0,0,0-2.19.64,2,2,0,0,0-.84,1.69,1.85,1.85,0,0,0,.48,1.32,3.81,3.81,0,0,0,1.61.91l2.35.81a6.76,6.76,0,0,1,2.57,1.44,2.83,2.83,0,0,1,.85,2.1,3.46,3.46,0,0,1-1.43,2.93,5.78,5.78,0,0,1-3.59,1.08,17.83,17.83,0,0,1-4.64-.86Z"/><path class="cls-1" d="M270.5.25a5.7,5.7,0,0,1,3.59,1,3.34,3.34,0,0,1,1.32,2.8,3.7,3.7,0,0,1-1.33,3,5.36,5.36,0,0,1-3.56,1.11H268v3.89l1.92.83v.14h-5.37v-.14l1.49-.83V1.22L264.52.4V.25h6Zm-.57,7.53a3.3,3.3,0,0,0,2.46-.93,3.73,3.73,0,0,0,.9-2.7,3.4,3.4,0,0,0-1-2.57A3.33,3.33,0,0,0,269.9.65H268V7.77h2Z"/><path class="cls-1" d="M288,12.91v.14h-4.67v-.14l1.44-.83-1.51-3.8h-5.22l-1.2,3,1.71,1.64v.14h-3.8v-.14l1.63-1.67,4-10L279.2.4V.25h2.88L286.81,12Zm-4.9-5-2.42-6.1-2.48,6.1Z"/><path class="cls-1" d="M296.54.79a5.62,5.62,0,0,0-2.11-.4A4.06,4.06,0,0,0,291.25,2a6.58,6.58,0,0,0-1.36,4.36,7.34,7.34,0,0,0,1.41,4.71,4.16,4.16,0,0,0,3.36,1.78,5.22,5.22,0,0,0,1.77-.28l2.48-3.4.15,0-.33,3.38a14.89,14.89,0,0,1-4.31.68,6.71,6.71,0,0,1-4.76-1.82,6.36,6.36,0,0,1-1.93-4.84,6.29,6.29,0,0,1,2-4.85A6.6,6.6,0,0,1,294.29,0,13.45,13.45,0,0,1,299,.91l-1,3.22h-.14Z"/><path class="cls-1" d="M299.66,12.91l1.49-.83V1.22L299.66.4V.25h10.45V3.47H310L308.06.65h-4.95V6.27h3.14l1.35-1.56h.17V8.22h-.17l-1.35-1.55h-3.14v6h5.28l1.92-3.05h.15v3.47h-10.8Z"/><path class="cls-1" d="M311.92,9l.16,0,1.42,3.48a6.77,6.77,0,0,0,2.18.4,4,4,0,0,0,2.6-.77,2.47,2.47,0,0,0,1-2,2.11,2.11,0,0,0-.57-1.52,4.43,4.43,0,0,0-1.76-1l-2.41-.82c-2-.69-3-1.84-3-3.41a2.89,2.89,0,0,1,1.25-2.5A5.39,5.39,0,0,1,316,0a15.49,15.49,0,0,1,4.34.75l-.68,3.16-.14,0L318.11.75a7.27,7.27,0,0,0-2-.35,3.59,3.59,0,0,0-2.2.64A2,2,0,0,0,313,2.73a1.85,1.85,0,0,0,.48,1.32,3.79,3.79,0,0,0,1.62.91l2.35.81a6.76,6.76,0,0,1,2.57,1.44,2.87,2.87,0,0,1,.85,2.1,3.49,3.49,0,0,1-1.43,2.93,5.8,5.8,0,0,1-3.59,1.08,17.76,17.76,0,0,1-4.64-.86Z"/></g></g></svg>