<svg xmlns="http://www.w3.org/2000/svg" viewBox="0 0 97.02 97.02"><defs><style>.cls-1{fill:#24235c;}.cls-2{fill:#cb952b;}</style></defs><g id="Layer_2" data-name="Layer 2"><g id="Layer_1-2" data-name="Layer 1"><rect class="cls-1" width="97.02" height="97.02" rx="7.88"/><path class="cls-2" d="M86,48.58l-8.72-8.7h-8L75,34.24,75.1,22,62.79,22l-5.65,5.65v-8L48.59,11,39.9,19.7v8l-5.45-5.45L21.92,22l.34,12.43,5.44,5.44H20l-9,8.7,9,8.55H27.7l-5.45,5.44L22,75.1l12.42-.34,5.45-5.44V77l8.69,9,8.55-9v-7.7L62.78,75,75,75.09l0-12.32-5.65-5.64h8ZM57.14,32.76l7.13-7.13h7.21l-.08,7.12-7.14,7.14H57.14ZM43.48,21.19l5.09-5.1,5,5.09v10.1l-5,5-5-5ZM25.81,32.91l-.2-7.24,7.32.13,7,7v7.12H32.78ZM21.44,53.54l-5.27-5,5.28-5.08h9.84l5,5-5,5ZM39.9,64.25l-7,7-7.25.2.14-7.32,7-7H39.9ZM53.55,75.59l-5,5.26-5.09-5.27V65.73l5-5,5,5Zm2.12-22.05H53.55v7.12l-2.5-2.5-2.53-2.54L46,58.16l-2.5,2.5V53.54H36.36L39,51l2.45-2.45h0l-.75-.76L38.86,46l-2.5-2.5h7.12V36.35l5,5,2.53-2.54h0l2.5-2.5v7.12h7.12l-2.85,2.85-.68.68h0l-1.5,1.51,5,5h-5ZM71.39,64.26l0,7.2-7.13-.07-7.14-7.15V57.13h7.12ZM65.74,53.54l-5-5,5-5H75.83l5.11,5.08-5.1,5Z"/></g></g></svg>